<svg width="306" height="333" viewBox="0 0 306 333" fill="none" xmlns="http://www.w3.org/2000/svg">
<path d="M145.099 3.57892C131.901 3.79038 94.6369 4.28379 62.3837 4.56573C4.5819 5.12963 3.59383 5.20012 3.17037 6.53937C2.67634 8.16057 3.31153 27.051 4.37017 40.1616C5.49938 54.5409 7.05205 65.6779 10.2986 82.1013C14.1097 101.344 14.7448 106.983 15.5918 129.962C16.7915 162.738 16.721 161.963 21.5907 197.136C26.4605 232.873 29.5658 267.975 30.201 296.593L30.6244 316.541L32.9535 319.572C35.7059 323.166 38.3878 324.929 44.5985 326.902C53.5617 329.933 57.0905 330.074 116.515 329.933C170.718 329.792 192.244 329.299 207.417 327.678C211.158 327.255 224.92 326.691 237.906 326.409C264.231 325.774 266.984 325.351 271.642 321.052C273.688 319.219 274.253 318.162 274.394 315.977C274.394 314.497 274.818 309.351 275.241 304.487C275.664 299.624 276.3 290.249 276.723 283.694C277.076 277.068 278.417 264.874 279.546 256.556C284.275 223.427 284.628 219.339 285.192 186.069C285.827 153.152 286.18 148.993 289.85 132.006C292.25 120.94 294.226 108.04 294.72 100.075C295.496 87.5288 296.555 76.4624 298.954 53.2017C302.907 16.2666 303 5.96875 302.5 4.46875C301 4.46875 300.441 4.53922 298.602 4.46875C295.5 4.46875 295.002 4.91814 252.233 3.86084C205.512 2.80354 187.233 2.73308 145.099 3.57892ZM278.346 8.86542C289.497 9.14736 298.602 8.30154 298.602 8.513C298.602 9.92274 295.567 42.4172 293.732 59.8979C292.532 70.9644 291.121 86.683 290.556 94.7889C289.427 110.226 288.792 114.455 285.192 132.147C281.522 150.192 280.958 156.606 280.958 180.29C280.958 209.401 279.97 221.524 274.253 262.548C273.265 269.526 272.136 281.861 271.783 290.038C271.359 298.214 270.583 307.589 270.018 311.043C269.454 314.426 268.96 317.316 268.96 317.527C268.96 317.668 267.689 318.514 266.066 319.29C262.114 321.334 254.421 322.039 240.729 321.616C232.048 321.404 224.92 321.686 212.499 322.814C197.678 324.153 188.856 324.435 129.925 324.999C54.1263 325.704 49.7506 325.492 40.858 320.558C35.7765 317.739 35.5648 316.893 34.7179 293.209C33.5181 260.292 30.4127 226.74 25.1195 190.369C21.6613 166.333 21.379 162.668 20.5321 138.491C19.6146 110.296 18.9794 103.811 15.1683 84.3569C10.3691 59.6865 7.82839 36.5667 7.82839 17.3943V9.49979L51.7973 9.28833C75.9343 9.14736 106.847 8.79495 120.397 8.513C146.087 7.87862 242.988 8.09006 278.346 8.86542Z" stroke="#E7A702" stroke-width="5"/>
<path d="M204.223 139.322L208.436 122.522L191.78 127.274L204.223 139.322ZM102.3 133.987C107.542 120.312 117.305 101.931 129.506 90.9895C135.595 85.5289 142.153 82.0433 148.949 81.7512C155.691 81.4613 162.971 84.3031 170.572 92.126L172.724 90.0353C164.689 81.7673 156.626 78.4184 148.82 78.7539C141.068 79.0872 133.873 83.0431 127.503 88.7562C114.785 100.162 104.81 119.057 99.4992 132.914L102.3 133.987ZM170.572 92.126C186.218 108.227 194.817 119.542 199.224 127.098L201.816 125.586C197.235 117.733 188.451 106.22 172.724 90.0353L170.572 92.126Z" fill="#42ED06"/>
<path d="M97.1186 144.266L80.2333 148.124L92.0172 160.818L97.1186 144.266ZM138.553 237.539C123.987 239.064 103.178 238.691 87.895 232.774C80.268 229.821 74.1886 225.554 70.8483 219.628C67.5344 213.75 66.7688 205.973 70.2972 195.652L67.4585 194.681C63.7293 205.59 64.3981 214.295 68.2349 221.101C72.0451 227.861 78.8323 232.482 86.8119 235.571C102.742 241.739 124.106 242.068 138.866 240.522L138.553 237.539ZM70.2972 195.652C77.5593 174.408 83.7483 161.615 88.4868 154.262L85.9651 152.637C81.0404 160.279 74.7584 173.327 67.4585 194.681L70.2972 195.652Z" fill="#42ED06"/>
<path d="M159.309 235.489L172.23 247.023L175.758 230.066L159.309 235.489ZM211.371 147.705C221.048 158.698 232.791 175.882 236.815 191.768C238.823 199.697 238.863 207.124 235.966 213.278C233.091 219.384 227.193 224.51 216.735 227.609L217.587 230.485C228.641 227.21 235.352 221.625 238.68 214.556C241.985 207.536 241.824 199.327 239.723 191.032C235.529 174.472 223.428 156.862 213.623 145.723L211.371 147.705ZM216.735 227.609C195.21 233.986 181.195 236.347 172.456 236.74L172.591 239.737C181.673 239.328 195.95 236.896 217.587 230.485L216.735 227.609Z" fill="#42ED06"/>
</svg>
