<svg width="324" height="55" viewBox="0 0 324 55" fill="none" xmlns="http://www.w3.org/2000/svg">
<path d="M98.435 2.06394C91.8984 2.52946 76.7784 2.99497 64.8936 3.06147C44.8877 3.19448 43.171 3.26098 42.6428 4.39152C42.2466 5.05654 41.9825 12.0393 41.9825 19.8865V34.251H21.9105H1.90457L1.44239 36.7116C0.65007 41.6992 0.980201 52.6721 1.9706 53.4701C3.09304 54.4011 308.201 54.0021 316.652 53.0711L321.604 52.5391L321.802 43.1623L322 33.7855L318.897 33.3199C317.18 33.1204 307.804 32.9209 298.032 32.9209H280.271L280.337 17.7584C280.337 9.44568 280.403 2.26345 280.337 1.79793C280.337 0.600895 115.338 0.8004 98.435 2.06394ZM277.696 18.2905V32.9209H225.404C196.616 32.9209 144.125 33.1204 108.867 33.3864L44.6236 33.7855V19.8865V5.98757L65.9501 5.85456C77.6367 5.72156 92.5587 5.25605 99.0953 4.72403C108.141 4.05901 130.92 3.793 194.371 3.7265L277.696 3.66V18.2905ZM317.84 35.98C319.227 36.379 319.293 36.7116 319.293 43.2288V50.0785L315.199 50.544C312.888 50.7435 241.91 51.076 157.396 51.2755L3.68728 51.608V45.0908C3.68728 41.4997 3.95138 38.1746 4.21549 37.7091C4.61165 37.1106 19.0714 36.7781 70.4399 36.379C150.002 35.6475 315.727 35.448 317.84 35.98Z" fill="#E7A702" stroke="#E7A702" stroke-width="2"/>
</svg>
