<svg width="170" height="270" viewBox="0 0 170 270" fill="none" xmlns="http://www.w3.org/2000/svg">
<path d="M86.61 184.602C90.763 189.128 93.688 224.922 73 230.056" stroke="#962F07" stroke-width="0.49"/>
<path d="M95.779 184.182C99.932 188.708 99.879 263.869 79.191 269.003" stroke="#7C0808" stroke-width="0.49"/>
<path d="M107.658 184.381C104.426 189.474 107.832 225.287 129.194 227.195" stroke="#962F07" stroke-width="0.49"/>
<path d="M99.587 184C96.355 189.093 115.792 262.778 137.155 264.686" stroke="#7C0808" stroke-width="0.49"/>
<path d="M1.07221 58.1685C1.94401 61.1615 3.44051 64.0765 6.28501 65.6565C7.76591 66.4925 9.63221 66.7505 11.3199 66.4315C11.7668 66.3395 12.2136 66.2475 12.5823 66.0955C14.365 65.4115 13.2722 62.6225 11.4592 63.3455C11.3594 63.3935 11.29 63.4025 11.1903 63.4505C10.7825 63.5715 11.5676 63.3675 11.1903 63.4505C11.0513 63.4675 10.9516 63.5155 10.8128 63.5325C10.6436 63.5895 10.4657 63.5765 10.2574 63.6035C10.188 63.6115 10.0492 63.6295 9.94061 63.6075C9.55451 63.6215 10.188 63.6115 9.94061 63.6075C9.47621 63.5605 9.01181 63.5135 8.57781 63.4275C8.46931 63.4055 8.50831 63.4365 8.72541 63.4795C8.68631 63.4485 8.61691 63.4575 8.53871 63.3965C8.39111 63.3455 8.28261 63.3235 8.13491 63.2715C7.98731 63.2195 7.87001 63.1285 7.76151 63.1075C7.68331 63.0465 7.23171 62.8215 7.61401 63.0555C7.34901 62.9125 7.07531 62.7005 6.84081 62.5185C6.72351 62.4275 6.56711 62.3055 6.48011 62.1755C6.32371 62.0545 6.32371 62.0545 6.48011 62.1755C6.44101 62.1455 6.36291 62.0845 6.35401 62.0155C5.11111 60.5505 4.45381 58.9755 3.90021 57.1065C3.69521 56.3205 2.67071 56.0275 1.96371 56.2925C1.07881 56.5455 0.867213 57.3835 1.07221 58.1685Z" fill="#C83E3E"/>
<path d="M164.197 50.2611C165.669 47.3951 165.438 43.8973 164.667 40.8566C163.886 37.7458 162.62 34.6965 160.711 32.1513C160.411 31.7315 159.85 31.4844 159.335 31.5849C152.301 32.5789 145.268 33.5729 138.243 34.6371C133.948 35.2498 129.583 35.872 125.287 36.4847C123.036 36.8045 120.754 37.1628 118.463 37.4524C117.56 37.566 116.696 37.7103 115.794 37.8252C115.655 37.8426 115.477 37.8298 115.308 37.8858C113.403 38.1623 113.811 41.1085 115.677 40.8014C115.816 40.784 115.884 40.7756 116.023 40.7582C116.787 40.6619 117.551 40.5653 118.345 40.4295C120.388 40.1361 122.502 39.8341 124.545 39.5407C128.563 38.9631 132.65 38.3757 136.667 37.7978C143.354 36.8479 150.001 35.8674 156.657 34.9561C157.698 34.8247 158.7 34.6631 159.772 34.4921C159.29 34.3059 158.877 34.1116 158.396 33.9257C160.004 36.0496 161.18 38.6518 161.868 41.3151C162.518 43.9492 162.769 46.7731 161.553 49.1491C161.185 49.8651 161.655 50.7931 162.363 51.0921C163.031 51.3601 163.829 50.9771 164.197 50.2611Z" fill="#C83E3E"/>
<path d="M42.3729 143.371C42.9352 145.311 43.9356 147.089 45.7205 148.097C46.6716 148.647 47.8868 148.776 48.9585 148.605C49.2665 148.531 49.5745 148.457 49.8434 148.352C50.5808 148.048 51.0006 147.184 50.6568 146.416C50.3521 145.679 49.488 145.259 48.7203 145.603C48.6509 145.611 48.6205 145.65 48.5511 145.659C48.2822 145.764 48.998 145.568 48.6899 145.642C48.6205 145.65 48.5511 145.659 48.4514 145.707C48.3516 145.755 48.2431 145.733 48.1346 145.712C48.0652 145.721 47.9957 145.729 47.9567 145.699C47.6789 145.734 48.3126 145.725 48.0955 145.682C47.809 145.647 47.5617 145.643 47.3055 145.57C47.1971 145.548 47.7093 145.695 47.414 145.591C47.3359 145.531 47.2665 145.539 47.1882 145.479C47.1101 145.418 47.0406 145.427 46.9625 145.366C46.9233 145.336 46.8842 145.306 46.8452 145.275C46.7279 145.184 46.767 145.215 47.0319 145.357C46.8755 145.236 46.6887 145.154 46.6018 145.024C46.5236 144.963 46.4454 144.902 46.3672 144.842C46.1326 144.66 46.6193 145.163 46.4064 144.872C46.2803 144.712 46.1151 144.521 45.9891 144.361C45.9412 144.261 45.8542 144.131 45.8064 144.031C45.7194 143.901 45.7586 143.931 45.8542 144.131C45.8455 144.061 45.7673 144.001 45.7586 143.931C45.4713 143.333 45.2536 142.726 45.075 142.149C44.8396 141.402 43.8366 141 43.1384 141.335C42.3883 141.818 42.1679 142.586 42.3729 143.371Z" fill="#C83E3E"/>
<path d="M138.559 138.771C139.429 137.003 139.335 134.864 138.882 132.947C138.427 131.029 137.627 129.155 136.445 127.612C136.145 127.191 135.584 126.945 135.068 127.045C129.076 127.908 123.045 128.74 117.066 129.425C115.847 129.543 114.597 129.701 113.378 129.82C113.061 129.825 112.714 129.869 112.397 129.873C112.289 129.852 112.188 129.899 112.081 129.878C111.694 129.891 112.476 129.934 112.219 129.86C112.18 129.83 112.002 129.818 111.972 129.857C112.141 129.8 112.523 130.034 112.64 130.125C112.992 130.397 113.319 131.026 113.202 131.5C113.383 130.701 112.653 129.947 111.933 129.826C111.074 129.723 110.48 130.327 110.259 131.096C110.017 131.972 110.886 132.709 111.637 132.791C112.101 132.838 112.627 132.807 113.082 132.784C116.302 132.589 119.526 132.147 122.719 131.744C126.954 131.209 131.18 130.604 135.376 130.039C134.894 129.853 134.481 129.658 133.999 129.472C134.212 129.763 134.465 130.084 134.647 130.413C134.734 130.543 134.742 130.613 134.656 130.483C134.664 130.552 134.742 130.613 134.752 130.682C134.808 130.851 134.934 131.012 134.991 131.181C135.326 131.879 135.648 132.755 135.835 133.402C135.918 133.779 136.04 134.187 136.054 134.573C136.098 134.92 136.138 135.515 136.125 135.693C136.091 136.543 136.005 136.977 135.668 137.655C135.299 138.371 135.769 139.299 136.477 139.598C137.402 139.94 138.191 139.487 138.559 138.771Z" fill="#C83E3E"/>
<path d="M112.631 0.490944C104.877 1.36424 97.1618 2.26804 89.3778 3.18094C87.4638 3.38754 87.8718 6.33344 89.7458 6.09644C97.4998 5.22314 105.215 4.31944 112.999 3.40654C114.913 3.19994 114.544 0.284344 112.631 0.490944Z" fill="#C83E3E"/>
<path d="M77.5977 4.56327C70.2847 3.90027 62.8557 4.27387 55.6667 5.71067C54.8727 5.84677 54.2877 6.51947 54.3927 7.35267C54.4887 8.11677 55.2797 8.79267 56.0347 8.62627C62.9857 7.25467 70.1277 6.84707 77.2237 7.46667C78.0437 7.53967 78.7857 6.98747 78.8967 6.19767C78.9787 5.44657 78.4177 4.63627 77.5977 4.56327Z" fill="#C83E3E"/>
<path d="M111.443 1.6988C111.598 14.6568 112.11 27.6401 112.899 40.5883C113.116 44.2641 113.364 47.8993 113.651 51.5663C113.717 52.3693 114.529 52.9363 115.293 52.8403C116.126 52.7353 116.633 52.0003 116.567 51.1983C115.6 38.237 114.95 25.2714 114.616 12.3C114.507 8.6463 114.468 4.9842 114.389 1.2909C114.392 0.479797 113.472 -0.109603 112.747 0.0171968C111.845 0.131097 111.447 0.886795 111.443 1.6988Z" fill="#C83E3E"/>
<path d="M109.345 74.1513C109.03 82.5493 108.893 90.9593 108.965 99.3443C109.006 107.767 109.225 116.203 109.652 124.612C109.893 129.308 110.163 133.963 110.543 138.641C110.609 139.444 111.42 140.011 112.185 139.915C113.018 139.81 113.524 139.076 113.458 138.273C112.8 129.998 112.361 121.767 112.128 113.508C111.888 105.181 111.786 96.8363 111.932 88.4953C111.978 83.8343 112.132 79.1953 112.288 74.5563C112.33 73.7753 111.847 73.0243 111.017 72.8823C110.298 72.7623 109.387 73.3713 109.345 74.1513Z" fill="#C83E3E"/>
<path d="M108.66 152.773C108.628 158.384 108.566 164.035 108.534 169.646C108.531 170.457 108.944 171.216 109.804 171.32C110.523 171.44 111.474 170.862 111.477 170.05C111.509 164.439 111.571 158.789 111.603 153.178C111.606 152.366 111.193 151.607 110.333 151.504C109.613 151.384 108.663 151.962 108.66 152.773Z" fill="#C83E3E"/>
<path d="M54.8897 7.67007C54.6997 21.2357 55.5567 31.442 59.0847 44.5733C60.0827 48.2917 61.2118 51.9217 62.5098 55.4957C62.7838 56.2727 63.7087 56.6147 64.4457 56.3097C65.1837 56.0047 65.5338 55.1497 65.2588 54.3737C60.8388 41.9897 58.1708 28.9609 57.2858 15.8129C57.0688 12.1379 56.9508 8.41407 56.9808 4.74277C56.9838 3.93177 57.3058 8.80167 56.9768 6.09907C58.2418 9.47027 56.9767 6.09907 54.8897 7.67007Z" fill="#C83E3E"/>
<path d="M65.2298 78.6306C67.2878 86.5526 68.9688 94.5566 70.3418 102.636C71.7148 110.714 72.7408 118.837 73.4498 126.964C73.8208 131.572 74.1208 136.189 74.2838 140.824C74.3108 141.596 75.2008 142.224 75.9258 142.098C76.7588 141.992 77.2258 141.228 77.1998 140.456C76.9068 132.276 76.2278 124.109 75.2708 115.978C74.3148 107.847 72.9418 99.7676 71.3308 91.7546C70.4048 87.2166 69.3398 82.6966 68.1758 78.2236C67.9708 77.4386 67.3668 76.8446 66.5338 76.9496C65.7698 77.0466 65.0248 77.8456 65.2298 78.6306Z" fill="#C83E3E"/>
<path d="M74.7577 155.468C76.3847 162.491 77.1587 169.729 76.9417 176.95C76.9387 177.762 77.3517 178.521 78.2107 178.624C78.9617 178.705 79.8427 178.136 79.8847 177.354C80.1047 169.886 79.4057 162.392 77.7127 155.13C77.5077 154.345 76.9027 153.751 76.0697 153.856C75.3067 153.952 74.5917 154.713 74.7577 155.468Z" fill="#C83E3E"/>
<path d="M108.401 170.545C108.563 172.111 108.726 173.677 108.888 175.244C109.313 174.696 109.737 174.149 110.162 173.602C102.14 174.58 94.0688 175.458 86.0108 176.158C83.7108 176.378 81.3728 176.568 79.0638 176.718C78.2608 176.784 77.6938 177.597 77.7898 178.36C77.8958 179.194 78.6288 179.7 79.4318 179.634C87.4978 179.003 95.5478 178.234 103.58 177.325C105.91 177.066 108.2 176.777 110.492 176.487C111.324 176.382 111.862 175.609 111.765 174.845C111.603 173.279 111.44 171.713 111.277 170.146C111.11 168.263 108.194 168.631 108.401 170.545Z" fill="#C83E3E"/>
<path d="M71.3937 53.7308C58.6377 54.9178 45.9239 56.4538 33.3028 58.4348C31.0204 58.7948 28.7774 59.1828 26.5255 59.5028C24.9982 59.6958 23.4317 59.8588 21.8742 60.0908C18.3033 60.5768 14.6111 61.2198 11.3497 62.7598C9.8535 63.4778 8.3835 64.4038 7.3524 65.7338C6.2518 67.0718 5.7896 68.7168 5.8309 70.4398C5.9159 72.5098 6.8429 74.5438 7.943 76.2738C9.3998 78.5938 11.7887 80.1958 14.3978 81.0298C20.0287 82.8938 26.1986 82.0438 32.0348 81.6238C38.535 81.1558 45.1046 80.6788 51.635 80.1708C64.6657 79.1948 77.6877 78.1498 90.7007 77.0358C103.753 75.9518 116.796 74.7978 129.84 73.6428C136.322 73.0368 142.805 72.4288 149.288 71.8228C152.529 71.5178 155.77 71.2148 159.011 70.9118C160.648 70.7398 162.253 70.6078 163.889 70.4358C164.692 70.3698 165.867 70.4688 166.509 69.9648C166.96 69.6248 167.22 68.8868 167.436 68.3658C169.193 64.4058 170.045 59.4318 169.007 55.1198C168.431 52.7948 167.231 50.5478 165.133 49.2958C162.997 48.0158 160.562 48.0048 158.123 48.2418C151.958 48.8448 145.747 49.0998 139.547 49.4248C132.999 49.7938 126.481 50.1238 119.933 50.4918C106.907 51.2198 93.8407 51.9178 80.8097 52.8938C77.7077 53.1798 74.5657 53.4358 71.3937 53.7308C69.5107 53.8978 69.8487 56.8528 71.7627 56.6458C79.8507 55.9068 87.9257 55.3448 95.9707 54.8228C104.055 54.3308 112.178 53.8688 120.301 53.4068C128.534 52.9668 136.765 52.5268 144.958 52.0558C148.88 51.8428 152.851 51.7298 156.786 51.3388C157.519 51.2808 158.283 51.1848 159.017 51.1278C159.681 51.0788 160.344 51.0308 160.909 51.0298C161.551 51.0888 162.233 51.1788 162.636 51.3038C163.335 51.5338 163.639 51.7068 164.195 52.2018C165.112 53.0378 165.612 53.9258 165.978 55.1498C166.109 55.6268 166.218 56.2128 166.336 56.8678C166.415 57.4928 166.442 58.2648 166.443 58.8298C166.42 61.4418 165.873 64.0848 164.912 66.5338C164.696 67.0558 164.48 67.5758 164.194 68.1058C164.614 67.8048 164.966 67.5148 165.386 67.2148C156.782 68.0548 148.207 68.8548 139.634 69.6558C130.99 70.4658 122.377 71.2358 113.764 72.0068C105.181 72.7378 96.5677 73.5088 87.9847 74.2398C79.3627 74.9408 70.7107 75.6808 62.0797 76.3128C53.4887 76.9748 44.8966 77.6368 36.266 78.2678C32.1437 78.5768 27.9999 78.9948 23.8514 79.0958C20.4058 79.1778 16.6778 78.9788 13.5469 77.3638C12.1139 76.6288 10.9841 75.5018 10.1361 74.0918C9.8665 73.6328 9.5705 72.9648 9.3224 72.3968C9.2179 72.1278 9.1046 71.7898 9.0001 71.5208C8.9914 71.4508 8.9826 71.3818 8.9435 71.3508C8.9435 71.3508 8.9699 71.5598 8.9523 71.4208C8.8956 71.2518 8.8781 71.1128 8.8518 70.9038C8.7864 70.6658 8.7905 70.4188 8.7641 70.2098C8.7466 70.0708 8.781 69.7848 8.7466 70.0708C8.7682 69.9628 8.7506 69.8238 8.7722 69.7158C8.7762 69.4678 8.8584 69.2818 8.8625 69.0338C8.7499 69.2598 8.8968 68.7478 8.8625 69.0338C8.9144 68.8858 8.9359 68.7778 8.9878 68.6298C9.07 68.4438 9.1522 68.2568 9.2344 68.0698C9.347 67.8438 9.0524 68.3048 9.2648 68.0308C9.3254 67.9528 9.4163 67.8358 9.4771 67.7568C9.5983 67.6008 9.75 67.4058 9.8713 67.2488C9.9016 67.2098 10.153 66.9668 9.9623 67.1318C9.8019 67.2578 10.1227 67.0058 10.1833 66.9278C10.5648 66.5968 10.955 66.3358 11.3453 66.0758C11.4753 65.9888 11.5751 65.9408 11.7052 65.8538C11.935 65.7188 11.5057 65.9498 11.8049 65.8058C12.0347 65.6708 12.3036 65.5668 12.5335 65.4318C13.5701 64.9838 14.6458 64.5658 15.739 64.2858C15.8778 64.2688 15.9776 64.2208 16.1165 64.2028C16.4245 64.1288 16.1165 64.2028 16.355 64.1378C16.663 64.0638 16.9711 63.9898 17.2791 63.9158C17.8648 63.8058 18.4114 63.6668 18.9971 63.5578C20.1685 63.3388 21.3096 63.1598 22.4898 63.0108C24.3945 62.7348 26.3168 62.5978 28.2128 62.2528C32.2912 61.5958 36.3696 60.9398 40.4569 60.3528C48.8001 59.1238 57.1697 58.1008 65.5657 57.2878C67.6187 57.0638 69.6797 56.9088 71.7327 56.6848C73.6847 56.5098 73.3167 53.5928 71.3937 53.7308Z" fill="#C83E3E"/>
<path d="M85.0217 139.572C77.7367 140.245 70.4777 141.127 63.2147 142.256C61.0707 142.597 58.9197 142.869 56.8067 143.171C54.7627 143.464 52.589 143.845 50.772 144.815C48.8855 145.794 47.4338 147.423 47.5061 149.671C47.627 152.582 49.8912 155.153 52.5483 156.087C55.8347 157.258 59.4057 156.772 62.7647 156.56C66.4707 156.303 70.2057 156.008 73.9417 155.712C88.7867 154.578 103.584 153.344 118.402 152.001C122.128 151.636 125.825 151.31 129.553 150.945C131.436 150.778 133.281 150.581 135.163 150.413C136.036 150.338 136.938 150.224 137.81 150.149C138.366 150.079 138.891 150.048 139.285 149.54C139.527 149.227 139.683 148.784 139.817 148.45C140.786 146.071 141.269 143.189 140.597 140.664C140.252 139.332 139.53 138.083 138.367 137.243C137.094 136.381 135.671 136.278 134.203 136.393C119.607 137.532 104.952 137.936 90.3547 139.075C88.6497 139.255 86.8367 139.414 85.0217 139.572C83.1387 139.739 83.4767 142.694 85.3897 142.488C94.3507 141.673 103.355 141.206 112.39 140.7C116.976 140.438 121.532 140.215 126.12 139.953C128.358 139.812 130.607 139.739 132.876 139.558C133.679 139.492 134.472 139.357 135.315 139.321C135.809 139.329 136.46 139.458 136.773 139.701C137.398 140.186 137.59 140.585 137.795 141.37C137.851 141.539 137.834 141.401 137.795 141.37C137.812 141.509 137.86 141.609 137.878 141.748C137.904 141.956 137.93 142.164 137.957 142.373C138.009 142.789 138.005 143.037 137.979 143.392C137.913 145.094 137.562 146.513 136.766 148.024C137.186 147.724 137.537 147.433 137.958 147.133C128.343 148.066 118.688 148.967 109.064 149.83C99.4697 150.654 89.8767 151.478 80.2737 152.232C75.4877 152.59 70.7017 152.948 65.9147 153.305C63.5367 153.465 61.1687 153.693 58.7817 153.783C56.8897 153.881 54.8717 153.819 53.0827 153.057C52.2966 152.698 51.6711 152.213 51.1884 151.462C50.9754 151.172 50.8797 150.973 50.7273 150.604C50.6707 150.435 50.6141 150.265 50.5271 150.135C50.5183 150.066 50.5096 149.997 50.4704 149.966C50.5359 150.205 50.4704 149.966 50.4617 149.897C50.4442 149.758 50.4266 149.619 50.409 149.48C50.4004 149.411 50.3915 149.341 50.4131 149.233C50.4219 149.302 50.3788 149.519 50.4219 149.302C50.4435 149.194 50.4259 149.055 50.4474 148.946C50.4603 148.769 50.4259 149.055 50.4259 149.055C50.4474 148.946 50.4778 148.907 50.4994 148.799C50.5209 148.69 50.6118 148.573 50.6334 148.465C50.4906 148.729 50.5424 148.582 50.6638 148.425C50.7244 148.347 50.8154 148.23 50.8761 148.152C51.0277 147.956 50.8457 148.191 50.8154 148.23C50.8761 148.152 50.9758 148.104 51.0062 148.065C51.1969 147.9 51.4267 147.765 51.6174 147.6C51.8776 147.426 51.5177 147.648 51.7475 147.513C51.8776 147.426 52.0467 147.369 52.1768 147.282C52.745 147.034 53.3527 146.816 53.9987 146.629C54.0677 146.62 54.1677 146.572 54.2367 146.564C54.2367 146.564 54.0287 146.59 54.2067 146.603C54.3457 146.585 54.5147 146.528 54.6537 146.511C55.0317 146.428 55.3387 146.354 55.7167 146.271C56.3717 146.153 56.9967 146.074 57.6217 145.995C65.6657 144.909 73.6137 143.622 81.6937 142.814C82.8737 142.665 84.0627 142.585 85.2817 142.466C87.3127 142.351 86.9057 139.405 85.0217 139.572Z" fill="#C83E3E"/>
<path d="M90.7858 4.83723C90.0558 4.08303 89.1218 3.67224 88.0508 3.84314C87.1178 3.99574 86.1678 4.57444 85.6698 5.37804C84.4828 7.14984 84.9808 9.41454 85.1958 11.3975C85.6578 15.8882 86.1188 20.379 86.5798 24.8706C86.7868 26.7837 89.7028 26.4153 89.4958 24.5023C89.1398 20.8438 88.7448 17.1558 88.3878 13.4983C88.2078 11.7933 87.9198 10.0662 87.8778 8.34383C87.8738 8.02623 87.8988 7.67094 87.9638 7.34504C88.0368 7.08914 88.0678 7.04954 88.1888 6.89404C87.9978 7.05874 88.3488 6.76794 88.4188 6.75874C88.2578 6.88484 88.6268 6.73204 88.4188 6.75874C88.5578 6.74124 88.5788 6.63264 88.6268 6.73204C88.5878 6.70164 88.4398 6.65014 88.3928 6.55064C88.9268 7.15284 89.7648 7.36483 90.4758 6.85133C91.0658 6.49523 91.3198 5.44033 90.7858 4.83723Z" fill="#C83E3E"/>
<path d="M74.5836 6.10768C75.8896 12.8191 77.2267 19.4918 78.5327 26.2032C78.6677 26.9977 79.3416 27.5825 80.1746 27.4778C80.9376 27.3813 81.6137 26.5907 81.4477 25.8358C80.2117 19.1152 78.8746 12.4425 77.5686 5.73008C77.4336 4.93658 76.7596 4.35178 75.9266 4.45648C75.1636 4.55298 74.4486 5.31318 74.5836 6.10768Z" fill="#C83E3E"/>
<path d="M80.7348 48.3893C81.2668 50.3673 81.8288 52.3073 82.3618 54.2843C82.4748 54.6233 82.8348 54.9663 83.1698 55.0993C83.5038 55.2343 83.9288 55.2503 84.2978 55.0983C84.6668 54.9463 84.9868 54.6943 85.1128 54.2903C85.2378 53.8863 85.2338 53.5693 85.1108 53.1623C84.5788 51.1833 84.0168 49.2453 83.4848 47.2663C83.3718 46.9273 83.0107 46.5863 82.6767 46.4513C82.3417 46.3183 81.8778 46.2698 81.5488 46.4533C81.1798 46.6053 80.8588 46.8583 80.7338 47.2613C80.5688 47.6343 80.6128 47.9813 80.7348 48.3893Z" fill="#C83E3E"/>
<path d="M82.4857 77.0499C83.5117 85.1729 84.4677 93.3039 85.3937 101.474C86.3287 109.714 87.2247 117.923 88.1587 126.163C88.6687 130.754 89.2477 135.336 89.8257 139.917C90.0627 141.792 93.0177 141.454 92.7417 139.549C91.7157 131.427 90.7597 123.296 89.8327 115.125C88.8977 106.885 88.0027 98.6759 87.0677 90.4359C86.5587 85.8459 85.9797 81.2639 85.4007 76.6819C85.1947 74.7689 82.2787 75.1369 82.4857 77.0499Z" fill="#C83E3E"/>
<path d="M91.9487 153.085C93.1287 160.764 94.3107 168.444 95.5327 176.154C95.8077 178.059 98.7927 177.682 98.4477 175.786C97.2657 168.106 96.0847 160.427 94.8637 152.717C94.5887 150.812 91.6717 151.18 91.9487 153.085Z" fill="#C83E3E"/>
<path d="M88.5127 76.4653C89.4777 84.6653 90.4737 92.8273 91.5777 101.01C92.6427 109.163 93.7387 117.277 94.9027 125.381C95.5597 130.024 96.2467 134.627 96.9037 139.27C97.1797 141.175 100.126 140.767 99.8197 138.902C98.6157 130.767 97.4427 122.592 96.3387 114.409C95.2437 106.295 94.1787 98.1433 93.1527 90.0203C92.5647 85.3693 92.0157 80.7483 91.4677 76.1273C91.2617 74.2143 88.2767 74.5903 88.5127 76.4653Z" fill="#C83E3E"/>
<path d="M77.4637 45.6638C82.6457 49.6842 90.1057 48.7412 94.1257 43.5593C98.1447 38.3774 97.2027 30.9182 92.0207 26.8981C86.8387 22.8779 79.3787 23.8205 75.3597 29.0025C71.3397 34.1845 72.2817 41.6436 77.4637 45.6638Z" stroke="#C83E3E" stroke-width="4" stroke-miterlimit="10"/>
<path d="M60.5917 45.5371C60.5917 45.5371 7.32324 46.2348 4.91764 51.7578C2.51184 57.2808 2.51184 57.2808 2.51184 57.2808" stroke="#C83E3E" stroke-width="5" stroke-miterlimit="10"/>
<path d="M74.7438 134.416C74.7438 134.416 43.0881 139.543 43.4571 143.023" stroke="#C83E3E" stroke-width="6" stroke-miterlimit="10"/>
</svg>
