<svg width="131" height="124" viewBox="0 0 131 124" fill="none" xmlns="http://www.w3.org/2000/svg">
<path d="M0 105.891V18C0 8.05888 8.05887 0 18 0H113C122.941 0 131 8.05889 131 18V105.891C131 115.833 122.941 123.891 113 123.891H18C8.05887 123.891 0 115.833 0 105.891Z" fill="black"/>
<path d="M0 105.891V18C0 8.05888 8.05887 0 18 0H113C122.941 0 131 8.05889 131 18V105.891C131 115.833 122.941 123.891 113 123.891H18C8.05887 123.891 0 115.833 0 105.891Z" stroke="black"/>
<path d="M10.155 102.659V41.9451C10.155 38.6314 12.8413 35.9451 16.155 35.9451H21.0821C22.7143 35.9451 24.2672 35.2793 25.4123 34.1162C32.8259 26.5868 45.6337 15.2325 65.5263 15.2325C83.8029 15.2325 99.3322 25.6187 105.313 32.8093C106.794 34.5901 108.892 35.9451 111.208 35.9451H115.86C119.174 35.9451 121.86 38.6314 121.86 41.9451V102.659C121.86 105.973 119.174 108.659 115.86 108.659H16.155C12.8413 108.659 10.155 105.973 10.155 102.659Z" fill="white" stroke="white"/>
<path d="M91.4418 61.438C91.4418 76.4245 79.7306 88.3953 65.5 88.3953C51.2693 88.3953 39.5581 76.4245 39.5581 61.438C39.5581 46.4515 51.2693 34.4806 65.5 34.4806C79.7306 34.4806 91.4418 46.4515 91.4418 61.438Z" fill="white" stroke="black" stroke-width="6"/>
<rect x="106.628" y="7.10852" width="14.2171" height="14.2171" rx="2" fill="white"/>
</svg>
