<svg width="987" height="250" viewBox="0 0 987 250" fill="none" xmlns="http://www.w3.org/2000/svg">
<path d="M307.663 249.847H679.337V139.478L499.117 114.255L307.663 140.603V249.847Z" fill="#C83E3E"/>
<path d="M418.094 197.96C417.987 197.507 417.841 196.893 417.654 196.12C417.467 195.347 417.267 194.493 417.054 193.56C416.841 192.627 416.614 191.653 416.374 190.64C416.161 189.627 415.947 188.68 415.734 187.8C415.547 186.893 415.361 186.093 415.174 185.4C415.014 184.68 414.894 184.147 414.814 183.8C413.934 183.88 413.214 183.933 412.654 183.96C412.121 183.96 411.681 183.96 411.334 183.96C410.987 183.96 410.707 183.96 410.494 183.96C410.281 183.96 410.081 183.973 409.894 184C409.254 186.133 408.667 188.28 408.134 190.44C407.601 192.6 407.107 194.68 406.654 196.68C406.201 198.68 405.801 200.573 405.454 202.36C405.134 204.12 404.854 205.68 404.614 207.04C404.374 208.4 404.187 209.507 404.054 210.36C403.921 211.213 403.827 211.733 403.774 211.92C403.801 211.947 403.827 211.96 403.854 211.96C405.667 211.933 407.001 211.947 407.854 212C408.707 212.053 409.241 212.053 409.454 212C409.481 212 409.494 212 409.494 212C409.521 211.973 409.547 211.96 409.574 211.96C409.814 211.507 410.001 210.987 410.134 210.4C410.267 209.813 410.387 209.213 410.494 208.6C410.627 207.96 410.747 207.36 410.854 206.8C410.987 206.213 411.147 205.707 411.334 205.28C411.627 205.28 411.854 205.28 412.014 205.28C412.201 205.253 412.361 205.24 412.494 205.24C412.654 205.24 412.827 205.24 413.014 205.24C413.201 205.24 413.467 205.267 413.814 205.32C414.001 205.72 414.174 206.2 414.334 206.76C414.494 207.32 414.641 207.907 414.774 208.52C414.934 209.133 415.081 209.733 415.214 210.32C415.374 210.907 415.534 211.413 415.694 211.84H415.734C416.587 212.027 417.494 212.133 418.454 212.16C419.414 212.213 420.294 212.16 421.094 212V211.96L418.094 197.96ZM414.014 200.56C413.507 200.56 413.001 200.573 412.494 200.6C411.987 200.6 411.507 200.587 411.054 200.56C411.241 199.2 411.401 197.933 411.534 196.76C411.694 195.587 411.827 194.613 411.934 193.84C412.067 193.067 412.201 192.56 412.334 192.32C412.494 192.053 412.641 192.147 412.774 192.6C412.934 193.053 413.107 193.92 413.294 195.2C413.507 196.48 413.747 198.267 414.014 200.56ZM441.598 211.88C441.198 210.787 440.704 209.733 440.118 208.72C439.531 207.68 438.918 206.667 438.278 205.68C437.638 204.693 436.984 203.72 436.318 202.76C435.651 201.773 435.038 200.787 434.478 199.8V199.76H434.518H434.678C435.958 199.68 437.011 199.32 437.838 198.68C438.691 198.04 439.371 197.24 439.878 196.28C440.704 194.893 441.091 193.467 441.038 192C441.011 190.507 440.651 189.147 439.958 187.92C439.264 186.693 438.291 185.667 437.038 184.84C435.784 184.013 434.371 183.56 432.798 183.48C430.851 183.267 428.984 183.253 427.198 183.44C425.411 183.627 423.771 183.827 422.278 184.04C422.331 184.387 422.371 185.053 422.398 186.04C422.451 187 422.491 188.173 422.518 189.56C422.544 190.92 422.571 192.427 422.598 194.08C422.651 195.707 422.678 197.36 422.678 199.04C422.704 200.693 422.718 202.307 422.718 203.88C422.718 205.427 422.718 206.8 422.718 208C422.718 209.2 422.704 210.173 422.678 210.92C422.651 211.64 422.611 212 422.558 212C422.691 211.973 423.038 211.973 423.598 212C424.184 212.027 424.838 212.027 425.558 212C426.278 212 426.998 211.973 427.718 211.92C428.464 211.867 429.064 211.747 429.518 211.56C429.491 211.053 429.451 210.373 429.398 209.52C429.344 208.667 429.291 207.773 429.238 206.84C429.211 205.88 429.198 204.96 429.198 204.08C429.198 203.173 429.238 202.413 429.318 201.8L429.398 201.92C429.958 202.613 430.518 203.413 431.078 204.32C431.638 205.227 432.158 206.147 432.638 207.08C433.118 208.013 433.558 208.907 433.958 209.76C434.358 210.613 434.691 211.347 434.958 211.96H434.998C436.198 212.04 437.371 212.053 438.518 212C439.664 211.92 440.704 211.88 441.638 211.88H441.598ZM428.118 189.64C429.051 189.267 429.971 189.067 430.878 189.04C431.784 188.987 432.531 189.227 433.118 189.76C433.491 190.053 433.758 190.453 433.918 190.96C434.078 191.44 434.131 191.933 434.078 192.44C434.024 192.92 433.851 193.373 433.558 193.8C433.291 194.2 432.904 194.453 432.398 194.56C431.758 194.667 431.078 194.707 430.358 194.68C429.638 194.653 428.971 194.613 428.358 194.56H428.318C428.264 194.267 428.224 193.907 428.198 193.48C428.198 193.053 428.198 192.613 428.198 192.16C428.198 191.707 428.184 191.267 428.158 190.84C428.158 190.387 428.144 189.987 428.118 189.64ZM458.941 184.2C456.194 183.907 453.367 183.773 450.461 183.8C447.581 183.8 444.781 183.813 442.061 183.84C442.061 183.867 442.061 183.88 442.061 183.88C442.087 183.88 442.101 183.893 442.101 183.92C442.047 184.56 442.021 185.227 442.021 185.92C442.021 186.613 442.021 187.267 442.021 187.88C442.047 188.467 442.074 188.973 442.101 189.4C442.154 189.827 442.207 190.093 442.261 190.2C442.421 190.253 442.701 190.28 443.101 190.28C443.501 190.28 443.941 190.293 444.421 190.32C444.901 190.32 445.381 190.347 445.861 190.4C446.341 190.427 446.741 190.52 447.061 190.68L447.101 190.72C447.261 194.453 447.354 197.64 447.381 200.28C447.434 202.92 447.447 205.093 447.421 206.8C447.421 208.48 447.407 209.747 447.381 210.6C447.354 211.453 447.354 211.933 447.381 212.04C447.861 211.96 448.381 211.92 448.941 211.92C449.501 211.92 450.061 211.92 450.621 211.92C451.207 211.92 451.781 211.92 452.341 211.92C452.927 211.893 453.461 211.84 453.941 211.76V211.72V211.68C453.887 208.773 453.847 206.253 453.821 204.12C453.794 201.96 453.767 200.12 453.741 198.6C453.714 197.053 453.687 195.8 453.661 194.84C453.661 193.853 453.661 193.067 453.661 192.48C453.661 191.867 453.661 191.427 453.661 191.16C453.687 190.867 453.714 190.653 453.741 190.52C453.741 190.493 453.741 190.48 453.741 190.48C453.767 190.453 453.781 190.427 453.781 190.4H453.821H453.901C455.154 190.347 456.154 190.307 456.901 190.28C457.647 190.253 458.274 190.293 458.781 190.4C458.914 189.44 458.981 188.387 458.981 187.24C459.007 186.093 458.994 185.08 458.941 184.2ZM488.82 210.28C488.686 209.587 488.406 208.96 487.98 208.4C487.58 207.84 487.193 207.32 486.82 206.84V206.88C486.58 206.56 486.34 206.28 486.1 206.04C485.886 205.773 485.78 205.56 485.78 205.4C485.78 205.267 485.86 205.04 486.02 204.72C486.18 204.4 486.326 204.093 486.46 203.8C486.54 203.667 486.606 203.533 486.66 203.4C486.74 203.24 486.806 203.12 486.86 203.04C486.913 202.853 486.966 202.707 487.02 202.6C487.073 202.467 487.126 202.333 487.18 202.2V202.24C487.473 201.547 487.74 200.88 487.98 200.24C488.22 199.573 488.34 198.813 488.34 197.96C488.34 197.347 488.206 196.947 487.94 196.76C487.673 196.573 487.313 196.48 486.86 196.48H484.02C483.166 196.48 482.58 196.667 482.26 197.04C481.94 197.387 481.753 197.813 481.7 198.32C481.7 198.613 481.66 198.907 481.58 199.2C481.526 199.467 481.433 199.707 481.3 199.92C480.793 199.253 480.42 198.68 480.18 198.2C479.94 197.72 479.78 197.32 479.7 197C479.62 196.653 479.58 196.4 479.58 196.24C479.606 196.053 479.62 195.92 479.62 195.84C479.62 195.787 479.713 195.613 479.9 195.32C480.033 195.08 480.18 194.853 480.34 194.64C480.5 194.4 480.66 194.16 480.82 193.92C481.326 193.147 481.806 192.36 482.26 191.56C482.713 190.733 482.94 189.827 482.94 188.84C482.94 188.04 482.766 187.28 482.42 186.56C482.1 185.813 481.633 185.16 481.02 184.6C480.433 184.04 479.713 183.6 478.86 183.28C478.006 182.933 477.073 182.76 476.06 182.76C475.1 182.76 474.153 182.92 473.22 183.24C472.313 183.533 471.486 183.96 470.74 184.52C470.02 185.053 469.433 185.693 468.98 186.44C468.553 187.16 468.34 187.947 468.34 188.8C468.34 189.413 468.433 190.04 468.62 190.68C468.833 191.293 469.086 191.893 469.38 192.48C469.7 193.067 470.033 193.627 470.38 194.16C470.753 194.693 471.1 195.173 471.42 195.6C470.913 196.08 470.42 196.613 469.94 197.2C469.46 197.787 469.033 198.413 468.66 199.08C468.286 199.72 467.98 200.387 467.74 201.08C467.526 201.773 467.42 202.48 467.42 203.2C467.42 204.267 467.593 205.333 467.94 206.4C468.286 207.44 468.793 208.387 469.46 209.24C470.126 210.067 470.953 210.747 471.94 211.28C472.953 211.787 474.126 212.04 475.46 212.04C476.5 211.987 477.513 211.853 478.5 211.64C479.486 211.4 480.38 211.013 481.18 210.48C481.58 210.853 481.94 211.147 482.26 211.36C482.58 211.547 482.9 211.693 483.22 211.8C483.54 211.907 483.886 211.973 484.26 212C484.633 212.027 485.06 212.04 485.54 212.04H485.74C486.06 212.04 486.38 212.027 486.7 212C487.02 212 487.313 211.96 487.58 211.88C487.873 211.8 488.126 211.68 488.34 211.52C488.553 211.36 488.7 211.133 488.78 210.84L488.82 210.64V210.28ZM476.06 187.28C476.353 187.28 476.553 187.36 476.66 187.52C476.793 187.68 476.86 187.88 476.86 188.12C476.86 189.08 476.766 189.947 476.58 190.72C476.393 191.467 476.06 191.88 475.58 191.96V191.92C475.446 191.947 475.3 191.853 475.14 191.64C475.006 191.427 474.873 191.16 474.74 190.84C474.633 190.52 474.54 190.187 474.46 189.84C474.38 189.493 474.34 189.187 474.34 188.92C474.34 188.387 474.486 187.987 474.78 187.72C475.1 187.427 475.526 187.28 476.06 187.28ZM477.18 206.32C477.046 206.347 476.886 206.373 476.7 206.4C476.513 206.427 476.313 206.44 476.1 206.44C475.62 206.44 475.22 206.373 474.9 206.24C474.58 206.08 474.313 205.88 474.1 205.64C473.913 205.4 473.766 205.133 473.66 204.84C473.58 204.547 473.526 204.267 473.5 204C473.446 203.68 473.446 203.333 473.5 202.96C473.553 202.56 473.646 202.187 473.78 201.84C473.94 201.493 474.126 201.2 474.34 200.96C474.553 200.693 474.78 200.547 475.02 200.52C475.766 200.413 476.366 200.467 476.82 200.68C477.273 200.867 477.62 201.133 477.86 201.48C478.1 201.827 478.246 202.24 478.3 202.72C478.38 203.173 478.406 203.613 478.38 204.04C478.353 204.467 478.313 204.853 478.26 205.2C478.206 205.52 478.18 205.733 478.18 205.84C478.18 205.867 478.046 205.947 477.78 206.08C477.54 206.187 477.34 206.267 477.18 206.32ZM505.045 190.32C505.258 190.107 505.551 189.96 505.925 189.88C506.325 189.8 506.698 189.733 507.045 189.68C507.818 189.653 508.378 189.813 508.725 190.16C509.098 190.507 509.351 190.96 509.485 191.52C509.618 192.053 509.685 192.64 509.685 193.28C509.711 193.92 509.765 194.493 509.845 195C510.858 195.187 511.831 195.32 512.765 195.4C513.725 195.453 514.698 195.373 515.685 195.16C516.111 193.933 516.271 192.733 516.165 191.56C516.058 190.387 515.751 189.307 515.245 188.32C514.738 187.307 514.058 186.413 513.205 185.64C512.351 184.867 511.391 184.253 510.325 183.8C509.285 183.32 508.165 183.04 506.965 182.96C505.765 182.88 504.551 183.04 503.325 183.44C502.951 183.547 502.591 183.68 502.245 183.84C501.898 183.973 501.578 184.147 501.285 184.36C500.778 184.813 500.338 185.333 499.965 185.92C499.618 186.507 499.325 187.147 499.085 187.84C498.925 188.24 498.791 188.68 498.685 189.16C498.605 189.613 498.591 190.067 498.645 190.52C498.618 192.68 498.591 194.587 498.565 196.24C498.565 197.867 498.565 199.333 498.565 200.64C498.591 201.92 498.618 203.08 498.645 204.12C498.671 205.16 498.711 206.16 498.765 207.12C498.871 208.24 499.218 209.173 499.805 209.92C500.418 210.667 501.165 211.253 502.045 211.68C502.925 212.08 503.871 212.333 504.885 212.44C505.898 212.573 506.885 212.573 507.845 212.44C509.311 212.413 510.618 212.053 511.765 211.36C512.938 210.64 513.885 209.733 514.605 208.64C515.325 207.547 515.791 206.32 516.005 204.96C516.218 203.573 516.098 202.187 515.645 200.8C515.271 200.693 514.845 200.627 514.365 200.6C513.911 200.573 513.445 200.56 512.965 200.56C512.485 200.56 512.005 200.573 511.525 200.6C511.071 200.627 510.658 200.613 510.285 200.56C510.151 201.227 510.098 201.907 510.125 202.6C510.178 203.267 510.058 203.907 509.765 204.52C509.498 205.053 509.098 205.44 508.565 205.68C508.058 205.893 507.511 205.973 506.925 205.92C506.151 205.707 505.591 205.24 505.245 204.52C504.925 203.773 504.725 203.013 504.645 202.24C504.565 201.307 504.525 200.213 504.525 198.96C504.525 197.68 504.538 196.453 504.565 195.28C504.591 194.107 504.618 193.093 504.645 192.24C504.698 191.387 504.751 190.92 504.805 190.84C504.831 190.787 504.858 190.707 504.885 190.6C504.938 190.467 504.991 190.373 505.045 190.32ZM537.496 211.88C537.096 210.787 536.603 209.733 536.016 208.72C535.429 207.68 534.816 206.667 534.176 205.68C533.536 204.693 532.883 203.72 532.216 202.76C531.549 201.773 530.936 200.787 530.376 199.8V199.76H530.416H530.576C531.856 199.68 532.909 199.32 533.736 198.68C534.589 198.04 535.269 197.24 535.776 196.28C536.603 194.893 536.989 193.467 536.936 192C536.909 190.507 536.549 189.147 535.856 187.92C535.163 186.693 534.189 185.667 532.936 184.84C531.683 184.013 530.269 183.56 528.696 183.48C526.749 183.267 524.883 183.253 523.096 183.44C521.309 183.627 519.669 183.827 518.176 184.04C518.229 184.387 518.269 185.053 518.296 186.04C518.349 187 518.389 188.173 518.416 189.56C518.443 190.92 518.469 192.427 518.496 194.08C518.549 195.707 518.576 197.36 518.576 199.04C518.603 200.693 518.616 202.307 518.616 203.88C518.616 205.427 518.616 206.8 518.616 208C518.616 209.2 518.603 210.173 518.576 210.92C518.549 211.64 518.509 212 518.456 212C518.589 211.973 518.936 211.973 519.496 212C520.083 212.027 520.736 212.027 521.456 212C522.176 212 522.896 211.973 523.616 211.92C524.363 211.867 524.963 211.747 525.416 211.56C525.389 211.053 525.349 210.373 525.296 209.52C525.243 208.667 525.189 207.773 525.136 206.84C525.109 205.88 525.096 204.96 525.096 204.08C525.096 203.173 525.136 202.413 525.216 201.8L525.296 201.92C525.856 202.613 526.416 203.413 526.976 204.32C527.536 205.227 528.056 206.147 528.536 207.08C529.016 208.013 529.456 208.907 529.856 209.76C530.256 210.613 530.589 211.347 530.856 211.96H530.896C532.096 212.04 533.269 212.053 534.416 212C535.563 211.92 536.603 211.88 537.536 211.88H537.496ZM524.016 189.64C524.949 189.267 525.869 189.067 526.776 189.04C527.683 188.987 528.429 189.227 529.016 189.76C529.389 190.053 529.656 190.453 529.816 190.96C529.976 191.44 530.029 191.933 529.976 192.44C529.923 192.92 529.749 193.373 529.456 193.8C529.189 194.2 528.803 194.453 528.296 194.56C527.656 194.667 526.976 194.707 526.256 194.68C525.536 194.653 524.869 194.613 524.256 194.56H524.216C524.163 194.267 524.123 193.907 524.096 193.48C524.096 193.053 524.096 192.613 524.096 192.16C524.096 191.707 524.083 191.267 524.056 190.84C524.056 190.387 524.043 189.987 524.016 189.64ZM552.039 197.96C551.932 197.507 551.786 196.893 551.599 196.12C551.412 195.347 551.212 194.493 550.999 193.56C550.786 192.627 550.559 191.653 550.319 190.64C550.106 189.627 549.892 188.68 549.679 187.8C549.492 186.893 549.306 186.093 549.119 185.4C548.959 184.68 548.839 184.147 548.759 183.8C547.879 183.88 547.159 183.933 546.599 183.96C546.066 183.96 545.626 183.96 545.279 183.96C544.932 183.96 544.652 183.96 544.439 183.96C544.226 183.96 544.026 183.973 543.839 184C543.199 186.133 542.612 188.28 542.079 190.44C541.546 192.6 541.052 194.68 540.599 196.68C540.146 198.68 539.746 200.573 539.399 202.36C539.079 204.12 538.799 205.68 538.559 207.04C538.319 208.4 538.132 209.507 537.999 210.36C537.866 211.213 537.772 211.733 537.719 211.92C537.746 211.947 537.772 211.96 537.799 211.96C539.612 211.933 540.946 211.947 541.799 212C542.652 212.053 543.186 212.053 543.399 212C543.426 212 543.439 212 543.439 212C543.466 211.973 543.492 211.96 543.519 211.96C543.759 211.507 543.946 210.987 544.079 210.4C544.212 209.813 544.332 209.213 544.439 208.6C544.572 207.96 544.692 207.36 544.799 206.8C544.932 206.213 545.092 205.707 545.279 205.28C545.572 205.28 545.799 205.28 545.959 205.28C546.146 205.253 546.306 205.24 546.439 205.24C546.599 205.24 546.772 205.24 546.959 205.24C547.146 205.24 547.412 205.267 547.759 205.32C547.946 205.72 548.119 206.2 548.279 206.76C548.439 207.32 548.586 207.907 548.719 208.52C548.879 209.133 549.026 209.733 549.159 210.32C549.319 210.907 549.479 211.413 549.639 211.84H549.679C550.532 212.027 551.439 212.133 552.399 212.16C553.359 212.213 554.239 212.16 555.039 212V211.96L552.039 197.96ZM547.959 200.56C547.452 200.56 546.946 200.573 546.439 200.6C545.932 200.6 545.452 200.587 544.999 200.56C545.186 199.2 545.346 197.933 545.479 196.76C545.639 195.587 545.772 194.613 545.879 193.84C546.012 193.067 546.146 192.56 546.279 192.32C546.439 192.053 546.586 192.147 546.719 192.6C546.879 193.053 547.052 193.92 547.239 195.2C547.452 196.48 547.692 198.267 547.959 200.56ZM569.023 201.56C569.103 201.56 569.143 201.533 569.143 201.48C569.09 201 569.063 200.427 569.063 199.76C569.09 199.093 569.116 198.44 569.143 197.8C569.17 197.133 569.17 196.533 569.143 196C569.143 195.467 569.103 195.107 569.023 194.92C568.73 194.947 568.37 194.973 567.943 195C567.516 195.027 567.076 195.04 566.623 195.04C566.17 195.04 565.703 195.04 565.223 195.04C564.77 195.013 564.356 194.973 563.983 194.92C563.956 194.92 563.93 194.907 563.903 194.88C563.663 194.453 563.516 193.92 563.463 193.28C563.41 192.64 563.53 191.973 563.823 191.28C564.65 191.2 565.53 191.133 566.463 191.08C567.423 191.027 568.37 190.987 569.303 190.96C570.263 190.907 571.183 190.853 572.063 190.8C572.97 190.747 573.783 190.693 574.503 190.64C574.53 190.293 574.543 189.867 574.543 189.36C574.543 188.827 574.543 188.28 574.543 187.72C574.543 187.133 574.53 186.573 574.503 186.04C574.503 185.507 574.503 185.067 574.503 184.72C573.756 184.533 572.863 184.387 571.823 184.28C570.783 184.173 569.676 184.12 568.503 184.12C567.33 184.093 566.13 184.107 564.903 184.16C563.703 184.187 562.556 184.24 561.463 184.32C560.396 184.4 559.436 184.48 558.583 184.56C557.73 184.64 557.076 184.72 556.623 184.8V184.84C556.623 186.92 556.623 188.813 556.623 190.52C556.623 192.2 556.61 193.773 556.583 195.24C556.583 196.707 556.583 198.107 556.583 199.44C556.583 200.747 556.57 202.053 556.543 203.36C556.543 204.667 556.543 206.027 556.543 207.44C556.543 208.827 556.543 210.32 556.543 211.92L556.583 211.96C556.69 212.013 557.01 212.053 557.543 212.08C558.103 212.107 558.743 212.12 559.463 212.12C560.183 212.12 560.903 212.107 561.623 212.08C562.37 212.053 563.01 212.013 563.543 211.96C563.57 210.44 563.596 208.853 563.623 207.2C563.65 205.52 563.73 203.84 563.863 202.16H563.903C564.703 202.027 565.543 201.933 566.423 201.88C567.33 201.8 568.196 201.693 569.023 201.56ZM591.949 184.2C589.202 183.907 586.375 183.773 583.469 183.8C580.589 183.8 577.789 183.813 575.069 183.84C575.069 183.867 575.069 183.88 575.069 183.88C575.095 183.88 575.109 183.893 575.109 183.92C575.055 184.56 575.029 185.227 575.029 185.92C575.029 186.613 575.029 187.267 575.029 187.88C575.055 188.467 575.082 188.973 575.109 189.4C575.162 189.827 575.215 190.093 575.269 190.2C575.429 190.253 575.709 190.28 576.109 190.28C576.509 190.28 576.949 190.293 577.429 190.32C577.909 190.32 578.389 190.347 578.869 190.4C579.349 190.427 579.749 190.52 580.069 190.68L580.109 190.72C580.269 194.453 580.362 197.64 580.389 200.28C580.442 202.92 580.455 205.093 580.429 206.8C580.429 208.48 580.415 209.747 580.389 210.6C580.362 211.453 580.362 211.933 580.389 212.04C580.869 211.96 581.389 211.92 581.949 211.92C582.509 211.92 583.069 211.92 583.629 211.92C584.215 211.92 584.789 211.92 585.349 211.92C585.935 211.893 586.469 211.84 586.949 211.76V211.72V211.68C586.895 208.773 586.855 206.253 586.829 204.12C586.802 201.96 586.775 200.12 586.749 198.6C586.722 197.053 586.695 195.8 586.669 194.84C586.669 193.853 586.669 193.067 586.669 192.48C586.669 191.867 586.669 191.427 586.669 191.16C586.695 190.867 586.722 190.653 586.749 190.52C586.749 190.493 586.749 190.48 586.749 190.48C586.775 190.453 586.789 190.427 586.789 190.4H586.829H586.909C588.162 190.347 589.162 190.307 589.909 190.28C590.655 190.253 591.282 190.293 591.789 190.4C591.922 189.44 591.989 188.387 591.989 187.24C592.015 186.093 592.002 185.08 591.949 184.2Z" fill="#E7A702"/>
<path d="M22.3296 114.379L499.283 51.5669L973.506 114.379L987 1.06096e-05H0L22.3296 114.379Z" fill="#C83E3E"/>
<line y1="-3.5" x2="88.8787" y2="-3.5" transform="matrix(-0.108448 -0.994102 -0.994102 0.108448 207.553 89.3184)" stroke="#E7A702" stroke-width="7"/>
<line x1="784.964" y1="88.9388" x2="794.603" y2="0.584293" stroke="#E7A702" stroke-width="7"/>
<line y1="-3.5" x2="52.6914" y2="-3.5" transform="matrix(-4.37114e-08 -1 -1 4.37114e-08 497.998 52.6914)" stroke="#E7A702" stroke-width="7"/>
<path d="M75.112 41.442C75.336 40.242 75.24 39.25 74.824 38.466C74.408 37.682 73.816 37.09 73.048 36.69C72.664 36.514 72.24 36.37 71.776 36.258C71.328 36.146 70.864 36.082 70.384 36.066C69.92 36.034 69.456 36.05 68.992 36.114C68.528 36.162 68.104 36.266 67.72 36.426C66.952 36.746 66.296 37.234 65.752 37.89C65.224 38.546 64.864 39.274 64.672 40.074C64.48 40.874 64.488 41.698 64.696 42.546C64.92 43.394 65.4 44.17 66.136 44.874C66.36 45.066 66.608 45.234 66.88 45.378C67.152 45.522 67.448 45.626 67.768 45.69C68.104 45.754 68.464 45.826 68.848 45.906C69.232 45.97 69.584 46.074 69.904 46.218C70.24 46.362 70.528 46.554 70.768 46.794C71.008 47.018 71.152 47.322 71.2 47.706C71.296 48.266 71.184 48.682 70.864 48.954C70.56 49.226 70.192 49.37 69.76 49.386C69.344 49.386 68.944 49.258 68.56 49.002C68.192 48.746 67.992 48.362 67.96 47.85C67.416 47.866 66.808 47.858 66.136 47.826C65.464 47.778 64.848 47.794 64.288 47.874V47.946V48.018C64.24 48.786 64.376 49.474 64.696 50.082C65.016 50.674 65.448 51.178 65.992 51.594C66.536 52.01 67.152 52.338 67.84 52.578C68.544 52.802 69.248 52.922 69.952 52.938C70.448 52.954 70.928 52.914 71.392 52.818C71.872 52.706 72.312 52.538 72.712 52.314C73.128 52.09 73.496 51.802 73.816 51.45C74.136 51.098 74.392 50.674 74.584 50.178C74.776 49.762 74.912 49.33 74.992 48.882C75.088 48.418 75.12 47.962 75.088 47.514C75.072 47.066 74.992 46.634 74.848 46.218C74.704 45.786 74.488 45.386 74.2 45.018C73.736 44.33 73.136 43.762 72.4 43.314C71.68 42.866 70.896 42.594 70.048 42.498C69.712 42.45 69.4 42.362 69.112 42.234C68.824 42.106 68.616 41.85 68.488 41.466C68.472 41.354 68.456 41.25 68.44 41.154C68.44 41.042 68.456 40.93 68.488 40.818C68.552 40.37 68.76 40.066 69.112 39.906C69.48 39.746 69.856 39.706 70.24 39.786C70.624 39.866 70.952 40.05 71.224 40.338C71.496 40.626 71.584 40.986 71.488 41.418C72.048 41.578 72.648 41.65 73.288 41.634C73.928 41.602 74.528 41.538 75.088 41.442H75.112ZM85.7524 48.21C85.5764 48.162 85.3524 48.138 85.0804 48.138C84.8084 48.122 84.5204 48.122 84.2164 48.138C83.9124 48.154 83.6244 48.17 83.3524 48.186C83.0804 48.186 82.8644 48.178 82.7044 48.162C82.6564 48.37 82.5844 48.61 82.4884 48.882C82.4084 49.138 82.2884 49.322 82.1284 49.434C81.9364 49.562 81.6804 49.65 81.3604 49.698C81.0404 49.73 80.7284 49.714 80.4244 49.65C80.1204 49.57 79.8564 49.426 79.6324 49.218C79.4244 49.01 79.3364 48.722 79.3684 48.354C79.4004 47.794 79.4164 47.258 79.4164 46.746C79.4164 46.234 79.4484 45.73 79.5124 45.234C79.5604 44.978 79.6324 44.818 79.7284 44.754C79.9364 44.498 80.2084 44.322 80.5444 44.226C81.1684 44.066 81.6724 44.146 82.0564 44.466C82.4404 44.77 82.6724 45.202 82.7524 45.762C82.9604 45.794 83.1924 45.826 83.4484 45.858C83.7204 45.89 83.9924 45.914 84.2644 45.93C84.5524 45.946 84.8244 45.954 85.0804 45.954C85.3524 45.954 85.5924 45.93 85.8004 45.882C85.7844 45.354 85.7684 44.866 85.7524 44.418C85.7524 43.954 85.7204 43.538 85.6564 43.17C85.5924 42.802 85.4964 42.482 85.3684 42.21C85.2564 41.938 85.0884 41.722 84.8644 41.562C84.5284 41.242 84.1284 41.002 83.6644 40.842C83.2004 40.682 82.7124 40.586 82.2004 40.554C81.8644 40.522 81.5444 40.522 81.2404 40.554C80.9524 40.57 80.6484 40.562 80.3284 40.53C79.9444 40.53 79.5604 40.554 79.1764 40.602C78.8084 40.65 78.4564 40.738 78.1204 40.866C77.8004 40.978 77.5124 41.122 77.2564 41.298C77.0164 41.474 76.8404 41.682 76.7284 41.922C76.6804 42.082 76.6084 42.314 76.5124 42.618C76.4164 42.922 76.3604 43.162 76.3444 43.338C76.2484 43.914 76.2004 44.49 76.2004 45.066C76.2644 45.594 76.2804 46.178 76.2484 46.818C76.2324 47.458 76.2404 48.098 76.2724 48.738C76.3044 49.362 76.4004 49.962 76.5604 50.538C76.7204 51.114 77.0164 51.594 77.4484 51.978C78.0084 52.538 78.6964 52.89 79.5124 53.034C79.9604 53.034 80.4564 53.05 81.0004 53.082C81.5444 53.13 82.0724 53.13 82.5844 53.082C83.0964 53.05 83.5684 52.954 84.0004 52.794C84.4484 52.634 84.8084 52.362 85.0804 51.978C85.1924 51.866 85.2804 51.69 85.3444 51.45C85.4244 51.194 85.4884 50.898 85.5364 50.562C85.5844 50.21 85.6244 49.834 85.6564 49.434C85.6884 49.034 85.7204 48.626 85.7524 48.21ZM90.0576 40.746C89.5456 40.762 89.1056 40.762 88.7376 40.746C88.3696 40.73 88.0816 40.714 87.8736 40.698C87.7936 40.698 87.6736 40.69 87.5136 40.674C87.3696 40.658 87.2656 40.658 87.2016 40.674V40.698C87.1056 41.642 87.0576 42.618 87.0576 43.626C87.0576 44.618 87.0736 45.626 87.1056 46.65C87.1376 47.674 87.1536 48.706 87.1536 49.746C87.1696 50.786 87.1376 51.81 87.0576 52.818C87.1696 52.786 87.3936 52.778 87.7296 52.794C88.0656 52.81 88.4176 52.818 88.7856 52.818C89.1696 52.834 89.5216 52.834 89.8416 52.818C90.1616 52.818 90.3616 52.77 90.4416 52.674C90.3296 50.738 90.2976 48.762 90.3456 46.746C90.4096 44.73 90.4496 42.754 90.4656 40.818V40.746H90.0576ZM87.1056 35.514C87.0896 36.25 87.0976 36.874 87.1296 37.386C87.1776 37.882 87.2016 38.362 87.2016 38.826C87.5056 38.81 87.8336 38.818 88.1856 38.85C88.5376 38.866 88.8656 38.882 89.1696 38.898C89.4896 38.898 89.7616 38.882 89.9856 38.85C90.2256 38.818 90.3776 38.754 90.4416 38.658C90.4416 38.418 90.4336 38.146 90.4176 37.842C90.4176 37.522 90.4096 37.218 90.3936 36.93C90.3936 36.626 90.3856 36.354 90.3696 36.114C90.3696 35.858 90.3696 35.682 90.3696 35.586L87.1056 35.514ZM94.9784 46.794C95.1384 46.826 95.3944 46.85 95.7464 46.866C96.0984 46.882 96.4904 46.89 96.9224 46.89C97.3704 46.89 97.8344 46.882 98.3144 46.866C98.7944 46.85 99.2424 46.826 99.6584 46.794C100.09 46.762 100.458 46.73 100.762 46.698C101.082 46.666 101.298 46.634 101.41 46.602C101.458 45.93 101.458 45.266 101.41 44.61C101.362 43.954 101.218 43.354 100.978 42.81C100.754 42.266 100.418 41.802 99.9704 41.418C99.5224 41.034 98.9304 40.778 98.1944 40.65C97.6184 40.506 97.0264 40.442 96.4184 40.458C95.8104 40.474 95.2344 40.57 94.6904 40.746C94.1464 40.906 93.6584 41.154 93.2264 41.49C92.7944 41.81 92.4744 42.202 92.2664 42.666C92.0744 43.194 91.9464 43.738 91.8824 44.298C91.8344 44.842 91.7864 45.41 91.7384 46.002C91.7064 46.658 91.7224 47.314 91.7864 47.97C91.8504 48.626 91.9704 49.25 92.1464 49.842C92.3224 50.418 92.5544 50.954 92.8424 51.45C93.1304 51.93 93.4904 52.322 93.9224 52.626C94.3064 52.85 94.7224 52.994 95.1704 53.058C95.6184 53.058 96.1064 53.074 96.6344 53.106C97.1784 53.138 97.7064 53.138 98.2184 53.106C98.7304 53.074 99.2024 52.978 99.6344 52.818C100.066 52.658 100.418 52.386 100.69 52.002C100.802 51.906 100.89 51.738 100.954 51.498C101.034 51.242 101.098 50.946 101.146 50.61C101.194 50.258 101.234 49.882 101.266 49.482C101.298 49.082 101.33 48.674 101.362 48.258C101.186 48.21 100.962 48.186 100.69 48.186C100.418 48.17 100.13 48.17 99.8264 48.186C99.5384 48.202 99.2584 48.218 98.9864 48.234C98.7144 48.234 98.4984 48.226 98.3384 48.21C98.3704 48.866 98.2664 49.362 98.0264 49.698C97.8024 50.018 97.5224 50.21 97.1864 50.274C96.8504 50.338 96.5064 50.282 96.1544 50.106C95.8024 49.93 95.5304 49.658 95.3384 49.29C95.1624 49.002 95.0584 48.706 95.0264 48.402C95.0104 48.098 94.9944 47.706 94.9784 47.226V46.794ZM97.8824 43.074C98.1704 43.218 98.3944 43.434 98.5544 43.722C98.7304 44.01 98.8184 44.314 98.8184 44.634C98.8184 44.762 98.8184 44.85 98.8184 44.898C98.8184 44.93 98.7704 44.954 98.6744 44.97C98.5944 44.97 98.4504 44.962 98.2424 44.946C98.0344 44.93 97.7224 44.922 97.3064 44.922C96.6984 44.922 96.2344 44.93 95.9144 44.946C95.6104 44.946 95.3864 44.938 95.2424 44.922C95.0984 44.89 95.0184 44.842 95.0024 44.778C95.0024 44.698 95.0184 44.57 95.0504 44.394C95.0824 44.186 95.1304 43.986 95.1944 43.794C95.2744 43.602 95.3864 43.434 95.5304 43.29C95.6744 43.146 95.8664 43.034 96.1064 42.954C96.3464 42.874 96.6584 42.834 97.0424 42.834C97.2184 42.834 97.3704 42.858 97.4984 42.906C97.6264 42.938 97.7544 42.994 97.8824 43.074ZM105.954 42.114C105.938 41.89 105.93 41.69 105.93 41.514C105.946 41.338 105.938 41.114 105.906 40.842C105.906 40.794 105.842 40.77 105.714 40.77C105.586 40.754 105.442 40.754 105.282 40.77C105.122 40.786 104.962 40.81 104.802 40.842C104.642 40.858 104.53 40.866 104.466 40.866C104.274 40.882 104.114 40.898 103.986 40.914C103.858 40.914 103.738 40.914 103.626 40.914C103.514 40.914 103.394 40.914 103.266 40.914C103.138 40.898 102.978 40.882 102.786 40.866C102.722 42.978 102.706 45.018 102.738 46.986C102.786 48.954 102.81 50.922 102.81 52.89C103.194 52.858 103.514 52.85 103.77 52.866C104.026 52.882 104.258 52.89 104.466 52.89C104.674 52.906 104.874 52.906 105.066 52.89C105.274 52.874 105.514 52.826 105.786 52.746V52.65C105.85 52.122 105.882 51.594 105.882 51.066C105.882 50.538 105.866 50.01 105.834 49.482C105.818 48.938 105.802 48.402 105.786 47.874C105.77 47.33 105.778 46.778 105.81 46.218C105.842 45.786 105.954 45.466 106.146 45.258C106.338 45.034 106.554 44.89 106.794 44.826C107.034 44.746 107.274 44.73 107.514 44.778C107.77 44.81 107.962 44.858 108.09 44.922C108.106 44.938 108.122 44.946 108.138 44.946C108.154 44.946 108.17 44.954 108.186 44.97C108.314 45.066 108.41 45.202 108.474 45.378C108.554 45.554 108.61 45.754 108.642 45.978C108.69 46.202 108.722 46.434 108.738 46.674C108.754 46.898 108.77 47.106 108.786 47.298C108.818 47.73 108.834 48.194 108.834 48.69C108.85 49.186 108.85 49.682 108.834 50.178C108.834 50.674 108.834 51.154 108.834 51.618C108.834 52.082 108.85 52.498 108.882 52.866C109.442 52.866 109.938 52.866 110.37 52.866C110.818 52.882 111.322 52.85 111.882 52.77C111.85 52.226 111.842 51.594 111.858 50.874C111.874 50.154 111.89 49.41 111.906 48.642C111.922 47.858 111.93 47.09 111.93 46.338C111.946 45.57 111.938 44.866 111.906 44.226C111.89 43.586 111.834 43.042 111.738 42.594C111.658 42.13 111.538 41.826 111.378 41.682C111.042 41.394 110.666 41.194 110.25 41.082C109.834 40.97 109.402 40.922 108.954 40.938C108.522 40.954 108.098 41.034 107.682 41.178C107.266 41.322 106.89 41.514 106.554 41.754C106.474 41.818 106.37 41.882 106.242 41.946C106.13 42.01 106.034 42.066 105.954 42.114ZM122.807 48.21C122.631 48.162 122.407 48.138 122.135 48.138C121.863 48.122 121.575 48.122 121.271 48.138C120.967 48.154 120.679 48.17 120.407 48.186C120.135 48.186 119.919 48.178 119.759 48.162C119.711 48.37 119.639 48.61 119.543 48.882C119.463 49.138 119.343 49.322 119.183 49.434C118.991 49.562 118.735 49.65 118.415 49.698C118.095 49.73 117.783 49.714 117.479 49.65C117.175 49.57 116.911 49.426 116.687 49.218C116.479 49.01 116.391 48.722 116.423 48.354C116.455 47.794 116.471 47.258 116.471 46.746C116.471 46.234 116.503 45.73 116.567 45.234C116.615 44.978 116.687 44.818 116.783 44.754C116.991 44.498 117.263 44.322 117.599 44.226C118.223 44.066 118.727 44.146 119.111 44.466C119.495 44.77 119.727 45.202 119.807 45.762C120.015 45.794 120.247 45.826 120.503 45.858C120.775 45.89 121.047 45.914 121.319 45.93C121.607 45.946 121.879 45.954 122.135 45.954C122.407 45.954 122.647 45.93 122.855 45.882C122.839 45.354 122.823 44.866 122.807 44.418C122.807 43.954 122.775 43.538 122.711 43.17C122.647 42.802 122.551 42.482 122.423 42.21C122.311 41.938 122.143 41.722 121.919 41.562C121.583 41.242 121.183 41.002 120.719 40.842C120.255 40.682 119.767 40.586 119.255 40.554C118.919 40.522 118.599 40.522 118.295 40.554C118.007 40.57 117.703 40.562 117.383 40.53C116.999 40.53 116.615 40.554 116.231 40.602C115.863 40.65 115.511 40.738 115.175 40.866C114.855 40.978 114.567 41.122 114.311 41.298C114.071 41.474 113.895 41.682 113.783 41.922C113.735 42.082 113.663 42.314 113.567 42.618C113.471 42.922 113.415 43.162 113.399 43.338C113.303 43.914 113.255 44.49 113.255 45.066C113.319 45.594 113.335 46.178 113.303 46.818C113.287 47.458 113.295 48.098 113.327 48.738C113.359 49.362 113.455 49.962 113.615 50.538C113.775 51.114 114.071 51.594 114.503 51.978C115.063 52.538 115.751 52.89 116.567 53.034C117.015 53.034 117.511 53.05 118.055 53.082C118.599 53.13 119.127 53.13 119.639 53.082C120.151 53.05 120.623 52.954 121.055 52.794C121.503 52.634 121.863 52.362 122.135 51.978C122.247 51.866 122.335 51.69 122.399 51.45C122.479 51.194 122.543 50.898 122.591 50.562C122.639 50.21 122.679 49.834 122.711 49.434C122.743 49.034 122.775 48.626 122.807 48.21ZM127.064 46.794C127.224 46.826 127.48 46.85 127.832 46.866C128.184 46.882 128.576 46.89 129.008 46.89C129.456 46.89 129.92 46.882 130.4 46.866C130.88 46.85 131.328 46.826 131.744 46.794C132.176 46.762 132.544 46.73 132.848 46.698C133.168 46.666 133.384 46.634 133.496 46.602C133.544 45.93 133.544 45.266 133.496 44.61C133.448 43.954 133.304 43.354 133.064 42.81C132.84 42.266 132.504 41.802 132.056 41.418C131.608 41.034 131.016 40.778 130.28 40.65C129.704 40.506 129.112 40.442 128.504 40.458C127.896 40.474 127.32 40.57 126.776 40.746C126.232 40.906 125.744 41.154 125.312 41.49C124.88 41.81 124.56 42.202 124.352 42.666C124.16 43.194 124.032 43.738 123.968 44.298C123.92 44.842 123.872 45.41 123.824 46.002C123.792 46.658 123.808 47.314 123.872 47.97C123.936 48.626 124.056 49.25 124.232 49.842C124.408 50.418 124.64 50.954 124.928 51.45C125.216 51.93 125.576 52.322 126.008 52.626C126.392 52.85 126.808 52.994 127.256 53.058C127.704 53.058 128.192 53.074 128.72 53.106C129.264 53.138 129.792 53.138 130.304 53.106C130.816 53.074 131.288 52.978 131.72 52.818C132.152 52.658 132.504 52.386 132.776 52.002C132.888 51.906 132.976 51.738 133.04 51.498C133.12 51.242 133.184 50.946 133.232 50.61C133.28 50.258 133.32 49.882 133.352 49.482C133.384 49.082 133.416 48.674 133.448 48.258C133.272 48.21 133.048 48.186 132.776 48.186C132.504 48.17 132.216 48.17 131.912 48.186C131.624 48.202 131.344 48.218 131.072 48.234C130.8 48.234 130.584 48.226 130.424 48.21C130.456 48.866 130.352 49.362 130.112 49.698C129.888 50.018 129.608 50.21 129.272 50.274C128.936 50.338 128.592 50.282 128.24 50.106C127.888 49.93 127.616 49.658 127.424 49.29C127.248 49.002 127.144 48.706 127.112 48.402C127.096 48.098 127.08 47.706 127.064 47.226V46.794ZM129.968 43.074C130.256 43.218 130.48 43.434 130.64 43.722C130.816 44.01 130.904 44.314 130.904 44.634C130.904 44.762 130.904 44.85 130.904 44.898C130.904 44.93 130.856 44.954 130.76 44.97C130.68 44.97 130.536 44.962 130.328 44.946C130.12 44.93 129.808 44.922 129.392 44.922C128.784 44.922 128.32 44.93 128 44.946C127.696 44.946 127.472 44.938 127.328 44.922C127.184 44.89 127.104 44.842 127.088 44.778C127.088 44.698 127.104 44.57 127.136 44.394C127.168 44.186 127.216 43.986 127.28 43.794C127.36 43.602 127.472 43.434 127.616 43.29C127.76 43.146 127.952 43.034 128.192 42.954C128.432 42.874 128.744 42.834 129.128 42.834C129.304 42.834 129.456 42.858 129.584 42.906C129.712 42.938 129.84 42.994 129.968 43.074Z" fill="#FFBE16"/>
<path d="M622.013 34.992C622.141 34.864 622.317 34.776 622.541 34.728C622.781 34.68 623.005 34.64 623.213 34.608C623.677 34.592 624.013 34.688 624.221 34.896C624.445 35.104 624.597 35.376 624.677 35.712C624.757 36.032 624.797 36.384 624.797 36.768C624.813 37.152 624.845 37.496 624.893 37.8C625.501 37.912 626.085 37.992 626.645 38.04C627.221 38.072 627.805 38.024 628.397 37.896C628.653 37.16 628.749 36.44 628.685 35.736C628.621 35.032 628.437 34.384 628.133 33.792C627.829 33.184 627.421 32.648 626.909 32.184C626.397 31.72 625.821 31.352 625.181 31.08C624.557 30.792 623.885 30.624 623.165 30.576C622.445 30.528 621.717 30.624 620.981 30.864C620.757 30.928 620.541 31.008 620.333 31.104C620.125 31.184 619.933 31.288 619.757 31.416C619.453 31.688 619.189 32 618.965 32.352C618.757 32.704 618.581 33.088 618.437 33.504C618.341 33.744 618.261 34.008 618.197 34.296C618.149 34.568 618.141 34.84 618.173 35.112C618.157 36.408 618.141 37.552 618.125 38.544C618.125 39.52 618.125 40.4 618.125 41.184C618.141 41.952 618.157 42.648 618.173 43.272C618.189 43.896 618.213 44.496 618.245 45.072C618.309 45.744 618.517 46.304 618.869 46.752C619.237 47.2 619.685 47.552 620.213 47.808C620.741 48.048 621.309 48.2 621.917 48.264C622.525 48.344 623.117 48.344 623.693 48.264C624.573 48.248 625.357 48.032 626.045 47.616C626.749 47.184 627.317 46.64 627.749 45.984C628.181 45.328 628.461 44.592 628.589 43.776C628.717 42.944 628.645 42.112 628.373 41.28C628.149 41.216 627.893 41.176 627.605 41.16C627.333 41.144 627.053 41.136 626.765 41.136C626.477 41.136 626.189 41.144 625.901 41.16C625.629 41.176 625.381 41.168 625.157 41.136C625.077 41.536 625.045 41.944 625.061 42.36C625.093 42.76 625.021 43.144 624.845 43.512C624.685 43.832 624.445 44.064 624.125 44.208C623.821 44.336 623.493 44.384 623.141 44.352C622.677 44.224 622.341 43.944 622.133 43.512C621.941 43.064 621.821 42.608 621.773 42.144C621.725 41.584 621.701 40.928 621.701 40.176C621.701 39.408 621.709 38.672 621.725 37.968C621.741 37.264 621.757 36.656 621.773 36.144C621.805 35.632 621.837 35.352 621.869 35.304C621.885 35.272 621.901 35.224 621.917 35.16C621.949 35.08 621.981 35.024 622.013 34.992ZM635.843 46.704C635.859 46.928 635.859 47.128 635.843 47.304C635.843 47.48 635.859 47.704 635.891 47.976C635.891 48.024 635.955 48.048 636.083 48.048C636.211 48.064 636.355 48.064 636.515 48.048C636.675 48.032 636.835 48.016 636.995 48C637.155 47.968 637.267 47.952 637.331 47.952C637.523 47.936 637.683 47.928 637.811 47.928C637.939 47.912 638.059 47.904 638.171 47.904C638.283 47.904 638.403 47.912 638.531 47.928C638.659 47.928 638.819 47.936 639.011 47.952C639.075 45.84 639.083 43.8 639.035 41.832C639.003 39.864 638.987 37.896 638.987 35.928C638.603 35.96 638.283 35.968 638.027 35.952C637.771 35.936 637.539 35.928 637.331 35.928C637.123 35.912 636.915 35.912 636.707 35.928C636.515 35.944 636.283 35.992 636.011 36.072V36.168C635.931 36.696 635.891 37.224 635.891 37.752C635.907 38.28 635.923 38.816 635.939 39.36C635.971 39.888 635.995 40.424 636.011 40.968C636.027 41.512 636.019 42.056 635.987 42.6C635.955 43.032 635.843 43.36 635.651 43.584C635.459 43.792 635.243 43.936 635.003 44.016C634.763 44.08 634.515 44.096 634.259 44.064C634.019 44.016 633.835 43.96 633.707 43.896C633.691 43.88 633.675 43.872 633.659 43.872C633.643 43.872 633.627 43.864 633.611 43.848C633.483 43.752 633.379 43.616 633.299 43.44C633.235 43.264 633.179 43.064 633.131 42.84C633.099 42.616 633.075 42.392 633.059 42.168C633.043 41.928 633.027 41.712 633.011 41.52C632.979 41.088 632.955 40.624 632.939 40.128C632.939 39.632 632.939 39.136 632.939 38.64C632.955 38.144 632.963 37.664 632.963 37.2C632.963 36.736 632.947 36.32 632.915 35.952C632.355 35.952 631.851 35.952 631.403 35.952C630.971 35.936 630.475 35.968 629.915 36.048C629.947 36.592 629.955 37.224 629.939 37.944C629.923 38.664 629.907 39.416 629.891 40.2C629.875 40.968 629.859 41.736 629.843 42.504C629.843 43.256 629.851 43.952 629.867 44.592C629.899 45.232 629.955 45.784 630.035 46.248C630.131 46.696 630.259 46.992 630.419 47.136C630.755 47.424 631.131 47.624 631.547 47.736C631.963 47.848 632.387 47.896 632.819 47.88C633.267 47.864 633.699 47.784 634.115 47.64C634.531 47.496 634.907 47.304 635.243 47.064C635.323 47 635.419 46.936 635.531 46.872C635.659 46.808 635.763 46.752 635.843 46.704ZM640.84 30.552C640.696 32.008 640.624 33.464 640.624 34.92C640.64 36.376 640.672 37.832 640.72 39.288C640.768 40.744 640.8 42.2 640.816 43.656C640.848 45.112 640.808 46.56 640.696 48C640.808 47.968 641.032 47.96 641.368 47.976C641.704 47.992 642.056 48 642.424 48C642.808 48.016 643.16 48.016 643.48 48C643.8 48 644 47.952 644.08 47.856C644.048 47.216 644.024 46.44 644.008 45.528C643.992 44.6 643.984 43.608 643.984 42.552C643.984 41.496 643.984 40.4 643.984 39.264C644 38.128 644.016 37.032 644.032 35.976C644.048 34.92 644.064 33.928 644.08 33C644.096 32.072 644.104 31.28 644.104 30.624L640.84 30.552ZM650.009 31.584C649.737 31.616 649.465 31.624 649.193 31.608C648.921 31.592 648.649 31.576 648.377 31.56C648.105 31.528 647.841 31.504 647.585 31.488C647.345 31.472 647.121 31.48 646.913 31.512C646.881 31.816 646.857 32.16 646.841 32.544C646.841 32.928 646.841 33.328 646.841 33.744C646.841 34.16 646.849 34.576 646.865 34.992C646.881 35.392 646.889 35.768 646.889 36.12C646.633 36.12 646.361 36.12 646.073 36.12C645.801 36.12 645.505 36.112 645.185 36.096L645.113 39.024C645.449 39.024 645.753 39.024 646.025 39.024C646.313 39.024 646.585 39.016 646.841 39C646.825 40.168 646.833 41.304 646.865 42.408C646.897 43.496 647.017 44.656 647.225 45.888C647.433 46.384 647.769 46.776 648.233 47.064C648.713 47.352 649.257 47.568 649.865 47.712C650.473 47.856 651.121 47.952 651.809 48C652.497 48.032 653.161 48.032 653.801 48C653.881 47.76 653.929 47.496 653.945 47.208C653.977 46.92 653.985 46.632 653.969 46.344C653.953 46.056 653.929 45.776 653.897 45.504C653.865 45.232 653.833 44.984 653.801 44.76C653.529 44.776 653.209 44.776 652.841 44.76C652.489 44.744 652.137 44.704 651.785 44.64C651.433 44.56 651.105 44.456 650.801 44.328C650.497 44.2 650.265 44.024 650.105 43.8C650.089 43.08 650.081 42.312 650.081 41.496C650.081 40.664 650.081 39.816 650.081 38.952H653.801C653.769 38.744 653.761 38.496 653.777 38.208C653.809 37.904 653.833 37.608 653.849 37.32C653.865 37.032 653.865 36.768 653.849 36.528C653.833 36.272 653.769 36.08 653.657 35.952C652.841 36 652.153 36.04 651.593 36.072C651.049 36.104 650.529 36.128 650.033 36.144C650.033 35.904 650.025 35.672 650.009 35.448C650.009 35.224 650.009 35.008 650.009 34.8V31.584ZM660.875 46.704C660.891 46.928 660.891 47.128 660.875 47.304C660.875 47.48 660.891 47.704 660.923 47.976C660.923 48.024 660.987 48.048 661.115 48.048C661.243 48.064 661.387 48.064 661.547 48.048C661.707 48.032 661.867 48.016 662.027 48C662.187 47.968 662.299 47.952 662.363 47.952C662.555 47.936 662.715 47.928 662.843 47.928C662.971 47.912 663.091 47.904 663.203 47.904C663.315 47.904 663.435 47.912 663.563 47.928C663.691 47.928 663.851 47.936 664.043 47.952C664.107 45.84 664.115 43.8 664.067 41.832C664.035 39.864 664.019 37.896 664.019 35.928C663.635 35.96 663.315 35.968 663.059 35.952C662.803 35.936 662.571 35.928 662.363 35.928C662.155 35.912 661.947 35.912 661.739 35.928C661.547 35.944 661.315 35.992 661.043 36.072V36.168C660.963 36.696 660.923 37.224 660.923 37.752C660.939 38.28 660.955 38.816 660.971 39.36C661.003 39.888 661.027 40.424 661.043 40.968C661.059 41.512 661.051 42.056 661.019 42.6C660.987 43.032 660.875 43.36 660.683 43.584C660.491 43.792 660.275 43.936 660.035 44.016C659.795 44.08 659.547 44.096 659.291 44.064C659.051 44.016 658.867 43.96 658.739 43.896C658.723 43.88 658.707 43.872 658.691 43.872C658.675 43.872 658.659 43.864 658.643 43.848C658.515 43.752 658.411 43.616 658.331 43.44C658.267 43.264 658.211 43.064 658.163 42.84C658.131 42.616 658.107 42.392 658.091 42.168C658.075 41.928 658.059 41.712 658.043 41.52C658.011 41.088 657.987 40.624 657.971 40.128C657.971 39.632 657.971 39.136 657.971 38.64C657.987 38.144 657.995 37.664 657.995 37.2C657.995 36.736 657.979 36.32 657.947 35.952C657.387 35.952 656.883 35.952 656.435 35.952C656.003 35.936 655.507 35.968 654.947 36.048C654.979 36.592 654.987 37.224 654.971 37.944C654.955 38.664 654.939 39.416 654.923 40.2C654.907 40.968 654.891 41.736 654.875 42.504C654.875 43.256 654.883 43.952 654.899 44.592C654.931 45.232 654.987 45.784 655.067 46.248C655.163 46.696 655.291 46.992 655.451 47.136C655.787 47.424 656.163 47.624 656.579 47.736C656.995 47.848 657.419 47.896 657.851 47.88C658.299 47.864 658.731 47.784 659.147 47.64C659.563 47.496 659.939 47.304 660.275 47.064C660.355 47 660.451 46.936 660.563 46.872C660.691 46.808 660.795 46.752 660.875 46.704ZM669.087 36.84C669.087 36.728 669.079 36.648 669.063 36.6C669.063 36.552 669.063 36.512 669.063 36.48C669.063 36.432 669.063 36.376 669.063 36.312C669.063 36.248 669.063 36.152 669.063 36.024C669.063 35.992 668.991 35.976 668.847 35.976C668.719 35.96 668.559 35.96 668.367 35.976C668.191 35.992 668.015 36.008 667.839 36.024C667.679 36.04 667.567 36.048 667.503 36.048C667.311 36.064 667.151 36.08 667.023 36.096C666.895 36.096 666.775 36.096 666.663 36.096C666.551 36.096 666.431 36.096 666.303 36.096C666.175 36.08 666.015 36.064 665.823 36.048C665.759 38.16 665.743 40.2 665.775 42.168C665.823 44.136 665.847 46.104 665.847 48.072C666.231 48.04 666.559 48.032 666.831 48.048C667.119 48.064 667.383 48.072 667.623 48.072C667.863 48.088 668.095 48.088 668.319 48.072C668.543 48.056 668.791 48.008 669.063 47.928V47.832C669.063 47.24 669.055 46.688 669.039 46.176C669.039 45.648 669.039 45.136 669.039 44.64C669.039 44.128 669.031 43.624 669.015 43.128C668.999 42.632 668.983 42.104 668.967 41.544C668.951 41.096 669.015 40.752 669.159 40.512C669.303 40.272 669.503 40.096 669.759 39.984C670.031 39.872 670.343 39.816 670.695 39.816C671.063 39.816 671.463 39.84 671.895 39.888C671.911 39.888 672.015 39.904 672.207 39.936C672.415 39.968 672.615 40.008 672.807 40.056C672.887 40.088 672.967 40.12 673.047 40.152C673.143 40.168 673.231 40.192 673.311 40.224L673.527 40.296C673.511 40.056 673.503 39.8 673.503 39.528C673.503 39.256 673.503 38.96 673.503 38.64C673.503 38.304 673.503 37.928 673.503 37.512C673.519 37.096 673.527 36.616 673.527 36.072C673.527 36.056 673.407 36.048 673.167 36.048C672.943 36.032 672.663 36.032 672.327 36.048C671.991 36.064 671.631 36.104 671.247 36.168C670.863 36.216 670.519 36.288 670.215 36.384C669.991 36.464 669.759 36.552 669.519 36.648C669.295 36.744 669.151 36.808 669.087 36.84ZM677.515 41.976C677.675 42.008 677.931 42.032 678.283 42.048C678.635 42.064 679.027 42.072 679.459 42.072C679.907 42.072 680.371 42.064 680.851 42.048C681.331 42.032 681.779 42.008 682.195 41.976C682.627 41.944 682.995 41.912 683.299 41.88C683.619 41.848 683.835 41.816 683.947 41.784C683.995 41.112 683.995 40.448 683.947 39.792C683.899 39.136 683.755 38.536 683.515 37.992C683.291 37.448 682.955 36.984 682.507 36.6C682.059 36.216 681.467 35.96 680.731 35.832C680.155 35.688 679.563 35.624 678.955 35.64C678.347 35.656 677.771 35.752 677.227 35.928C676.683 36.088 676.195 36.336 675.763 36.672C675.331 36.992 675.011 37.384 674.803 37.848C674.611 38.376 674.483 38.92 674.419 39.48C674.371 40.024 674.323 40.592 674.275 41.184C674.243 41.84 674.259 42.496 674.323 43.152C674.387 43.808 674.507 44.432 674.683 45.024C674.859 45.6 675.091 46.136 675.379 46.632C675.667 47.112 676.027 47.504 676.459 47.808C676.843 48.032 677.259 48.176 677.707 48.24C678.155 48.24 678.643 48.256 679.171 48.288C679.715 48.32 680.243 48.32 680.755 48.288C681.267 48.256 681.739 48.16 682.171 48C682.603 47.84 682.955 47.568 683.227 47.184C683.339 47.088 683.427 46.92 683.491 46.68C683.571 46.424 683.635 46.128 683.683 45.792C683.731 45.44 683.771 45.064 683.803 44.664C683.835 44.264 683.867 43.856 683.899 43.44C683.723 43.392 683.499 43.368 683.227 43.368C682.955 43.352 682.667 43.352 682.363 43.368C682.075 43.384 681.795 43.4 681.523 43.416C681.251 43.416 681.035 43.408 680.875 43.392C680.907 44.048 680.803 44.544 680.563 44.88C680.339 45.2 680.059 45.392 679.723 45.456C679.387 45.52 679.043 45.464 678.691 45.288C678.339 45.112 678.067 44.84 677.875 44.472C677.699 44.184 677.595 43.888 677.563 43.584C677.547 43.28 677.531 42.888 677.515 42.408V41.976ZM680.419 38.256C680.707 38.4 680.931 38.616 681.091 38.904C681.267 39.192 681.355 39.496 681.355 39.816C681.355 39.944 681.355 40.032 681.355 40.08C681.355 40.112 681.307 40.136 681.211 40.152C681.131 40.152 680.987 40.144 680.779 40.128C680.571 40.112 680.259 40.104 679.843 40.104C679.235 40.104 678.771 40.112 678.451 40.128C678.147 40.128 677.923 40.12 677.779 40.104C677.635 40.072 677.555 40.024 677.539 39.96C677.539 39.88 677.555 39.752 677.587 39.576C677.619 39.368 677.667 39.168 677.731 38.976C677.811 38.784 677.923 38.616 678.067 38.472C678.211 38.328 678.403 38.216 678.643 38.136C678.883 38.056 679.195 38.016 679.579 38.016C679.755 38.016 679.907 38.04 680.035 38.088C680.163 38.12 680.291 38.176 680.419 38.256Z" fill="#FFBE16"/>
<path d="M293.298 46.8009C292.21 46.8329 291.154 46.8249 290.13 46.7769C289.106 46.7129 288.066 46.6809 287.01 46.6809L286.986 46.6569C286.954 46.2729 286.922 45.7929 286.89 45.2169C286.874 44.6409 286.906 44.1209 286.986 43.6569C287.066 43.5929 287.218 43.5529 287.442 43.5369C287.666 43.5209 287.914 43.5129 288.186 43.5129C288.474 43.5129 288.77 43.5129 289.074 43.5129C289.378 43.4969 289.65 43.4569 289.89 43.3929C289.874 42.8009 289.882 42.2329 289.914 41.6889C289.946 41.1449 289.922 40.6009 289.842 40.0569V40.0329C289.346 40.0169 288.85 40.0089 288.354 40.0089C287.858 40.0089 287.37 39.9929 286.89 39.9609L286.866 39.9369C286.754 39.5049 286.722 39.0489 286.77 38.5689C286.834 38.0729 286.858 37.5929 286.842 37.1289L286.866 37.1049H286.938C287.466 37.0569 287.994 37.0329 288.522 37.0329C289.05 37.0329 289.578 37.0409 290.106 37.0569C290.634 37.0569 291.154 37.0489 291.666 37.0329C292.194 37.0009 292.714 36.9289 293.226 36.8169V36.7929C293.226 36.2329 293.242 35.6649 293.274 35.0889C293.322 34.5129 293.306 33.9449 293.226 33.3849C293.226 33.3689 293.066 33.3529 292.746 33.3369C292.426 33.3209 292.002 33.3129 291.474 33.3129C290.946 33.3129 290.338 33.3209 289.65 33.3369C288.962 33.3529 288.25 33.3689 287.514 33.3849C286.778 33.4009 286.042 33.4249 285.306 33.4569C284.586 33.4729 283.914 33.4969 283.29 33.5289C283.21 34.9049 283.162 36.2729 283.146 37.6329C283.13 38.9929 283.13 40.3529 283.146 41.7129C283.162 43.0729 283.186 44.4409 283.218 45.8169C283.25 47.1769 283.266 48.5529 283.266 49.9449C284.818 50.0729 286.434 50.1129 288.114 50.0649C289.81 50.0009 291.474 49.9769 293.106 49.9929C293.234 49.5129 293.306 49.0009 293.322 48.4569C293.338 47.8969 293.33 47.3609 293.298 46.8489V46.8009ZM297.797 39.3609C297.781 39.1369 297.773 38.9369 297.773 38.7609C297.789 38.5849 297.781 38.3609 297.749 38.0889C297.749 38.0409 297.685 38.0169 297.557 38.0169C297.429 38.0009 297.285 38.0009 297.125 38.0169C296.965 38.0329 296.805 38.0569 296.645 38.0889C296.485 38.1049 296.373 38.1129 296.309 38.1129C296.117 38.1289 295.957 38.1449 295.829 38.1609C295.701 38.1609 295.581 38.1609 295.469 38.1609C295.357 38.1609 295.237 38.1609 295.109 38.1609C294.981 38.1449 294.821 38.1289 294.629 38.1129C294.565 40.2249 294.549 42.2649 294.581 44.2329C294.629 46.2009 294.653 48.1689 294.653 50.1369C295.037 50.1049 295.357 50.0969 295.613 50.1129C295.869 50.1289 296.101 50.1369 296.309 50.1369C296.517 50.1529 296.717 50.1529 296.909 50.1369C297.117 50.1209 297.357 50.0729 297.629 49.9929V49.8969C297.693 49.3689 297.725 48.8409 297.725 48.3129C297.725 47.7849 297.709 47.2569 297.677 46.7289C297.661 46.1849 297.645 45.6489 297.629 45.1209C297.613 44.5769 297.621 44.0249 297.653 43.4649C297.685 43.0329 297.797 42.7129 297.989 42.5049C298.181 42.2809 298.397 42.1369 298.637 42.0729C298.877 41.9929 299.117 41.9769 299.357 42.0249C299.613 42.0569 299.805 42.1049 299.933 42.1689C299.949 42.1849 299.965 42.1929 299.981 42.1929C299.997 42.1929 300.013 42.2009 300.029 42.2169C300.157 42.3129 300.253 42.4489 300.317 42.6249C300.397 42.8009 300.453 43.0009 300.485 43.2249C300.533 43.4489 300.565 43.6809 300.581 43.9209C300.597 44.1449 300.613 44.3529 300.629 44.5449C300.661 44.9769 300.677 45.4409 300.677 45.9369C300.693 46.4329 300.693 46.9289 300.677 47.4249C300.677 47.9209 300.677 48.4009 300.677 48.8649C300.677 49.3289 300.693 49.7449 300.725 50.1129C301.285 50.1129 301.781 50.1129 302.213 50.1129C302.661 50.1289 303.165 50.0969 303.725 50.0169C303.693 49.4729 303.685 48.8409 303.701 48.1209C303.717 47.4009 303.733 46.6569 303.749 45.8889C303.765 45.1049 303.773 44.3369 303.773 43.5849C303.789 42.8169 303.781 42.1129 303.749 41.4729C303.733 40.8329 303.677 40.2889 303.581 39.8409C303.501 39.3769 303.381 39.0729 303.221 38.9289C302.885 38.6409 302.509 38.4409 302.093 38.3289C301.677 38.2169 301.245 38.1689 300.797 38.1849C300.365 38.2009 299.941 38.2809 299.525 38.4249C299.109 38.5689 298.733 38.7609 298.397 39.0009C298.317 39.0649 298.213 39.1289 298.085 39.1929C297.973 39.2569 297.877 39.3129 297.797 39.3609ZM307.911 38.1369C307.399 38.0729 306.855 38.0649 306.279 38.1129C305.719 38.1449 305.151 38.1289 304.575 38.0649C305.087 39.9529 305.551 41.9369 305.967 44.0169C306.383 46.0969 306.751 48.1369 307.071 50.1369C307.375 50.1369 307.719 50.1369 308.103 50.1369C308.503 50.1529 308.903 50.1609 309.303 50.1609C309.719 50.1769 310.119 50.1769 310.503 50.1609C310.903 50.1609 311.263 50.1369 311.583 50.0889C311.855 49.0809 312.103 48.0649 312.327 47.0409C312.551 46.0009 312.775 44.9689 312.999 43.9449C313.223 42.9209 313.455 41.9209 313.695 40.9449C313.951 39.9529 314.247 39.0009 314.583 38.0889C314.247 38.0729 313.943 38.0649 313.671 38.0649C313.399 38.0649 313.135 38.0729 312.879 38.0889C312.623 38.1049 312.375 38.1209 312.135 38.1369C311.895 38.1529 311.639 38.1609 311.367 38.1609C311.175 38.6409 310.999 39.2489 310.839 39.9849C310.679 40.7209 310.527 41.4809 310.383 42.2649C310.255 43.0489 310.119 43.8089 309.975 44.5449C309.831 45.2649 309.671 45.8649 309.495 46.3449C309.319 45.8649 309.159 45.2809 309.015 44.5929C308.871 43.8889 308.735 43.1529 308.607 42.3849C308.479 41.6169 308.359 40.8649 308.247 40.1289C308.135 39.3769 308.023 38.7129 307.911 38.1369ZM318.392 37.9929C317.88 38.0089 317.44 38.0089 317.072 37.9929C316.704 37.9769 316.416 37.9609 316.208 37.9449C316.128 37.9449 316.008 37.9369 315.848 37.9209C315.704 37.9049 315.6 37.9049 315.536 37.9209V37.9449C315.44 38.8889 315.392 39.8649 315.392 40.8729C315.392 41.8649 315.408 42.8729 315.44 43.8969C315.472 44.9209 315.488 45.9529 315.488 46.9929C315.504 48.0329 315.472 49.0569 315.392 50.0649C315.504 50.0329 315.728 50.0249 316.064 50.0409C316.4 50.0569 316.752 50.0649 317.12 50.0649C317.504 50.0809 317.856 50.0809 318.176 50.0649C318.496 50.0649 318.696 50.0169 318.776 49.9209C318.664 47.9849 318.632 46.0089 318.68 43.9929C318.744 41.9769 318.784 40.0009 318.8 38.0649V37.9929H318.392ZM315.44 32.7609C315.424 33.4969 315.432 34.1209 315.464 34.6329C315.512 35.1289 315.536 35.6089 315.536 36.0729C315.84 36.0569 316.168 36.0649 316.52 36.0969C316.872 36.1129 317.2 36.1289 317.504 36.1449C317.824 36.1449 318.096 36.1289 318.32 36.0969C318.56 36.0649 318.712 36.0009 318.776 35.9049C318.776 35.6649 318.768 35.3929 318.752 35.0889C318.752 34.7689 318.744 34.4649 318.728 34.1769C318.728 33.8729 318.72 33.6009 318.704 33.3609C318.704 33.1049 318.704 32.9289 318.704 32.8329L315.44 32.7609ZM320.649 39.1209C320.601 39.2969 320.529 39.5369 320.433 39.8409C320.337 40.1289 320.281 40.3609 320.265 40.5369C320.217 40.8409 320.185 41.1369 320.169 41.4249C320.153 41.6969 320.145 41.9769 320.145 42.2649C320.193 42.7929 320.201 43.3769 320.169 44.0169C320.153 44.6569 320.161 45.2969 320.193 45.9369C320.225 46.5609 320.321 47.1609 320.481 47.7369C320.641 48.3129 320.937 48.7929 321.369 49.1769C321.929 49.7369 322.617 50.0889 323.433 50.2329C323.881 50.2329 324.377 50.2489 324.921 50.2809C325.465 50.3289 325.993 50.3289 326.505 50.2809C327.017 50.2489 327.489 50.1529 327.921 49.9929C328.369 49.8329 328.729 49.5609 329.001 49.1769C329.161 49.0169 329.281 48.7209 329.361 48.2889C329.457 47.8569 329.529 47.3689 329.577 46.8249C329.641 46.2809 329.681 45.7129 329.697 45.1209C329.729 44.5289 329.753 44.0009 329.769 43.5369C329.753 43.0089 329.737 42.4969 329.721 42.0009C329.705 41.4889 329.665 41.0249 329.601 40.6089C329.537 40.1769 329.441 39.8009 329.313 39.4809C329.185 39.1609 329.009 38.9289 328.785 38.7849C328.449 38.4649 328.049 38.2249 327.585 38.0649C327.121 37.8889 326.633 37.7849 326.121 37.7529C325.785 37.7209 325.465 37.7209 325.161 37.7529C324.873 37.7689 324.569 37.7609 324.249 37.7289C323.865 37.7289 323.481 37.7529 323.097 37.8009C322.729 37.8489 322.377 37.9369 322.041 38.0649C321.721 38.1769 321.433 38.3209 321.177 38.4969C320.937 38.6729 320.761 38.8809 320.649 39.1209ZM323.649 41.9529C323.857 41.6969 324.129 41.5209 324.465 41.4249C325.089 41.2809 325.593 41.3369 325.977 41.5929C326.361 41.8489 326.593 42.2569 326.673 42.8169C326.769 43.2809 326.793 43.7769 326.745 44.3049C326.713 44.8169 326.665 45.3289 326.601 45.8409C326.505 46.2409 326.321 46.5049 326.049 46.6329C325.841 46.7449 325.577 46.8249 325.257 46.8729C324.937 46.9049 324.625 46.8889 324.321 46.8249C324.033 46.7449 323.785 46.6089 323.577 46.4169C323.369 46.2089 323.273 45.9209 323.289 45.5529C323.321 44.9929 323.337 44.4649 323.337 43.9689C323.337 43.4569 323.369 42.9449 323.433 42.4329C323.481 42.1769 323.553 42.0169 323.649 41.9529ZM334.479 38.9049C334.479 38.7929 334.471 38.7129 334.455 38.6649C334.455 38.6169 334.455 38.5769 334.455 38.5449C334.455 38.4969 334.455 38.4409 334.455 38.3769C334.455 38.3129 334.455 38.2169 334.455 38.0889C334.455 38.0569 334.383 38.0409 334.239 38.0409C334.111 38.0249 333.951 38.0249 333.759 38.0409C333.583 38.0569 333.407 38.0729 333.231 38.0889C333.071 38.1049 332.959 38.1129 332.895 38.1129C332.703 38.1289 332.543 38.1449 332.415 38.1609C332.287 38.1609 332.167 38.1609 332.055 38.1609C331.943 38.1609 331.823 38.1609 331.695 38.1609C331.567 38.1449 331.407 38.1289 331.215 38.1129C331.151 40.2249 331.135 42.2649 331.167 44.2329C331.215 46.2009 331.239 48.1689 331.239 50.1369C331.623 50.1049 331.951 50.0969 332.223 50.1129C332.511 50.1289 332.775 50.1369 333.015 50.1369C333.255 50.1529 333.487 50.1529 333.711 50.1369C333.935 50.1209 334.183 50.0729 334.455 49.9929V49.8969C334.455 49.3049 334.447 48.7529 334.431 48.2409C334.431 47.7129 334.431 47.2009 334.431 46.7049C334.431 46.1929 334.423 45.6889 334.407 45.1929C334.391 44.6969 334.375 44.1689 334.359 43.6089C334.343 43.1609 334.407 42.8169 334.551 42.5769C334.695 42.3369 334.895 42.1609 335.151 42.0489C335.423 41.9369 335.735 41.8809 336.087 41.8809C336.455 41.8809 336.855 41.9049 337.287 41.9529C337.303 41.9529 337.407 41.9689 337.599 42.0009C337.807 42.0329 338.007 42.0729 338.199 42.1209C338.279 42.1529 338.359 42.1849 338.439 42.2169C338.535 42.2329 338.623 42.2569 338.703 42.2889L338.919 42.3609C338.903 42.1209 338.895 41.8649 338.895 41.5929C338.895 41.3209 338.895 41.0249 338.895 40.7049C338.895 40.3689 338.895 39.9929 338.895 39.5769C338.911 39.1609 338.919 38.6809 338.919 38.1369C338.919 38.1209 338.799 38.1129 338.559 38.1129C338.335 38.0969 338.055 38.0969 337.719 38.1129C337.383 38.1289 337.023 38.1689 336.639 38.2329C336.255 38.2809 335.911 38.3529 335.607 38.4489C335.383 38.5289 335.151 38.6169 334.911 38.7129C334.687 38.8089 334.543 38.8729 334.479 38.9049ZM343.219 39.3609C343.203 39.1369 343.195 38.9369 343.195 38.7609C343.211 38.5849 343.203 38.3609 343.171 38.0889C343.171 38.0409 343.107 38.0169 342.979 38.0169C342.851 38.0009 342.707 38.0009 342.547 38.0169C342.387 38.0329 342.227 38.0569 342.067 38.0889C341.907 38.1049 341.795 38.1129 341.731 38.1129C341.539 38.1289 341.379 38.1449 341.251 38.1609C341.123 38.1609 341.003 38.1609 340.891 38.1609C340.779 38.1609 340.659 38.1609 340.531 38.1609C340.403 38.1449 340.243 38.1289 340.051 38.1129C339.987 40.2249 339.971 42.2649 340.003 44.2329C340.051 46.2009 340.075 48.1689 340.075 50.1369C340.459 50.1049 340.779 50.0969 341.035 50.1129C341.291 50.1289 341.523 50.1369 341.731 50.1369C341.939 50.1529 342.139 50.1529 342.331 50.1369C342.539 50.1209 342.779 50.0729 343.051 49.9929V49.8969C343.115 49.3689 343.147 48.8409 343.147 48.3129C343.147 47.7849 343.131 47.2569 343.099 46.7289C343.083 46.1849 343.067 45.6489 343.051 45.1209C343.035 44.5769 343.043 44.0249 343.075 43.4649C343.107 43.0329 343.219 42.7129 343.411 42.5049C343.603 42.2809 343.819 42.1369 344.059 42.0729C344.299 41.9929 344.539 41.9769 344.779 42.0249C345.035 42.0569 345.227 42.1049 345.355 42.1689C345.371 42.1849 345.387 42.1929 345.403 42.1929C345.419 42.1929 345.435 42.2009 345.451 42.2169C345.579 42.3129 345.675 42.4489 345.739 42.6249C345.819 42.8009 345.875 43.0009 345.907 43.2249C345.955 43.4489 345.987 43.6809 346.003 43.9209C346.019 44.1449 346.035 44.3529 346.051 44.5449C346.083 44.9769 346.099 45.4409 346.099 45.9369C346.115 46.4329 346.115 46.9289 346.099 47.4249C346.099 47.9209 346.099 48.4009 346.099 48.8649C346.099 49.3289 346.115 49.7449 346.147 50.1129C346.707 50.1129 347.203 50.1129 347.635 50.1129C348.083 50.1289 348.587 50.0969 349.147 50.0169C349.115 49.4729 349.107 48.8409 349.123 48.1209C349.139 47.4009 349.155 46.6569 349.171 45.8889C349.187 45.1049 349.195 44.3369 349.195 43.5849C349.211 42.8169 349.203 42.1129 349.171 41.4729C349.155 40.8329 349.099 40.2889 349.003 39.8409C348.923 39.3769 348.803 39.0729 348.643 38.9289C348.307 38.6409 347.931 38.4409 347.515 38.3289C347.099 38.2169 346.667 38.1689 346.219 38.1849C345.787 38.2009 345.363 38.2809 344.947 38.4249C344.531 38.5689 344.155 38.7609 343.819 39.0009C343.739 39.0649 343.635 39.1289 343.507 39.1929C343.395 39.2569 343.299 39.3129 343.219 39.3609ZM353.999 39.3609C353.983 39.1369 353.975 38.9369 353.975 38.7609C353.991 38.5849 353.983 38.3609 353.951 38.0889C353.951 38.0409 353.887 38.0169 353.759 38.0169C353.631 38.0009 353.487 38.0009 353.327 38.0169C353.167 38.0329 353.007 38.0569 352.847 38.0889C352.687 38.1049 352.575 38.1129 352.511 38.1129C352.319 38.1289 352.159 38.1449 352.031 38.1609C351.903 38.1609 351.783 38.1609 351.671 38.1609C351.559 38.1609 351.439 38.1609 351.311 38.1609C351.183 38.1449 351.023 38.1289 350.831 38.1129C350.767 40.2249 350.751 42.2649 350.783 44.2329C350.831 46.2009 350.855 48.1689 350.855 50.1369C351.239 50.1049 351.559 50.0969 351.815 50.1129C352.071 50.1289 352.303 50.1369 352.511 50.1369C352.719 50.1529 352.919 50.1529 353.111 50.1369C353.319 50.1209 353.559 50.0729 353.831 49.9929V49.8969C353.895 49.3689 353.927 48.8409 353.927 48.3129C353.927 47.7849 353.911 47.2569 353.879 46.7289C353.863 46.1849 353.847 45.6489 353.831 45.1209C353.815 44.5769 353.823 44.0249 353.855 43.4649C353.887 43.0329 353.999 42.7129 354.191 42.5049C354.383 42.2809 354.599 42.1369 354.839 42.0729C355.079 41.9929 355.319 41.9769 355.559 42.0249C355.815 42.0569 356.007 42.1049 356.135 42.1689C356.151 42.1849 356.167 42.1929 356.183 42.1929C356.199 42.1929 356.215 42.2009 356.231 42.2169C356.359 42.3129 356.455 42.4489 356.519 42.6249C356.599 42.8009 356.655 43.0009 356.687 43.2249C356.735 43.4489 356.767 43.6809 356.783 43.9209C356.799 44.1449 356.815 44.3529 356.831 44.5449C356.863 44.9769 356.879 45.4409 356.879 45.9369C356.895 46.4329 356.895 46.9289 356.879 47.4249C356.879 47.9209 356.879 48.4009 356.879 48.8649C356.879 49.3289 356.895 49.7449 356.927 50.1129C357.487 50.1129 357.983 50.1129 358.415 50.1129C358.863 50.1289 359.367 50.0969 359.927 50.0169C359.895 49.5369 359.879 48.9849 359.879 48.3609C359.895 47.7209 359.911 47.0649 359.927 46.3929C359.943 45.7049 359.959 45.0169 359.975 44.3289C359.991 43.6249 359.991 42.9609 359.975 42.3369C360.119 42.2249 360.271 42.1449 360.431 42.0969C360.607 42.0329 360.775 42.0009 360.935 42.0009C361.111 42.0009 361.271 42.0169 361.415 42.0489C361.559 42.0809 361.679 42.1209 361.775 42.1689C361.791 42.1849 361.807 42.1929 361.823 42.1929C361.839 42.1929 361.855 42.2009 361.871 42.2169C361.999 42.3129 362.095 42.4489 362.159 42.6249C362.239 42.8009 362.295 43.0009 362.327 43.2249C362.375 43.4489 362.407 43.6809 362.423 43.9209C362.439 44.1449 362.455 44.3529 362.471 44.5449C362.503 44.9769 362.519 45.4409 362.519 45.9369C362.535 46.4329 362.535 46.9289 362.519 47.4249C362.519 47.9209 362.519 48.4009 362.519 48.8649C362.519 49.3289 362.535 49.7449 362.567 50.1129C363.127 50.1129 363.623 50.1129 364.055 50.1129C364.503 50.1289 365.007 50.0969 365.567 50.0169C365.535 49.4729 365.527 48.8409 365.543 48.1209C365.559 47.4009 365.575 46.6569 365.591 45.8889C365.607 45.1049 365.615 44.3369 365.615 43.5849C365.631 42.8169 365.623 42.1129 365.591 41.4729C365.575 40.8329 365.519 40.2889 365.423 39.8409C365.343 39.3769 365.223 39.0729 365.063 38.9289C364.727 38.6409 364.351 38.4409 363.935 38.3289C363.519 38.2169 363.087 38.1689 362.639 38.1849C362.207 38.2009 361.783 38.2809 361.367 38.4249C360.951 38.5689 360.575 38.7609 360.239 39.0009C360.159 39.0649 360.063 39.1289 359.951 39.1929C359.839 39.2409 359.743 39.2889 359.663 39.3369C359.583 39.1449 359.503 39.0089 359.423 38.9289C359.087 38.6409 358.711 38.4409 358.295 38.3289C357.879 38.2169 357.447 38.1689 356.999 38.1849C356.567 38.2009 356.143 38.2809 355.727 38.4249C355.311 38.5689 354.935 38.7609 354.599 39.0009C354.519 39.0649 354.415 39.1289 354.287 39.1929C354.175 39.2569 354.079 39.3129 353.999 39.3609ZM370.118 44.0409C370.278 44.0729 370.534 44.0969 370.886 44.1129C371.238 44.1289 371.63 44.1369 372.062 44.1369C372.51 44.1369 372.974 44.1289 373.454 44.1129C373.934 44.0969 374.382 44.0729 374.798 44.0409C375.23 44.0089 375.598 43.9769 375.902 43.9449C376.222 43.9129 376.438 43.8809 376.55 43.8489C376.598 43.1769 376.598 42.5129 376.55 41.8569C376.502 41.2009 376.358 40.6009 376.118 40.0569C375.894 39.5129 375.558 39.0489 375.11 38.6649C374.662 38.2809 374.07 38.0249 373.334 37.8969C372.758 37.7529 372.166 37.6889 371.558 37.7049C370.95 37.7209 370.374 37.8169 369.83 37.9929C369.286 38.1529 368.798 38.4009 368.366 38.7369C367.934 39.0569 367.614 39.4489 367.406 39.9129C367.214 40.4409 367.086 40.9849 367.022 41.5449C366.974 42.0889 366.926 42.6569 366.878 43.2489C366.846 43.9049 366.862 44.5609 366.926 45.2169C366.99 45.8729 367.11 46.4969 367.286 47.0889C367.462 47.6649 367.694 48.2009 367.982 48.6969C368.27 49.1769 368.63 49.5689 369.062 49.8729C369.446 50.0969 369.862 50.2409 370.31 50.3049C370.758 50.3049 371.246 50.3209 371.774 50.3529C372.318 50.3849 372.846 50.3849 373.358 50.3529C373.87 50.3209 374.342 50.2249 374.774 50.0649C375.206 49.9049 375.558 49.6329 375.83 49.2489C375.942 49.1529 376.03 48.9849 376.094 48.7449C376.174 48.4889 376.238 48.1929 376.286 47.8569C376.334 47.5049 376.374 47.1289 376.406 46.7289C376.438 46.3289 376.47 45.9209 376.502 45.5049C376.326 45.4569 376.102 45.4329 375.83 45.4329C375.558 45.4169 375.27 45.4169 374.966 45.4329C374.678 45.4489 374.398 45.4649 374.126 45.4809C373.854 45.4809 373.638 45.4729 373.478 45.4569C373.51 46.1129 373.406 46.6089 373.166 46.9449C372.942 47.2649 372.662 47.4569 372.326 47.5209C371.99 47.5849 371.646 47.5289 371.294 47.3529C370.942 47.1769 370.67 46.9049 370.478 46.5369C370.302 46.2489 370.198 45.9529 370.166 45.6489C370.15 45.3449 370.134 44.9529 370.118 44.4729V44.0409ZM373.022 40.3209C373.31 40.4649 373.534 40.6809 373.694 40.9689C373.87 41.2569 373.958 41.5609 373.958 41.8809C373.958 42.0089 373.958 42.0969 373.958 42.1449C373.958 42.1769 373.91 42.2009 373.814 42.2169C373.734 42.2169 373.59 42.2089 373.382 42.1929C373.174 42.1769 372.862 42.1689 372.446 42.1689C371.838 42.1689 371.374 42.1769 371.054 42.1929C370.75 42.1929 370.526 42.1849 370.382 42.1689C370.238 42.1369 370.158 42.0889 370.142 42.0249C370.142 41.9449 370.158 41.8169 370.19 41.6409C370.222 41.4329 370.27 41.2329 370.334 41.0409C370.414 40.8489 370.526 40.6809 370.67 40.5369C370.814 40.3929 371.006 40.2809 371.246 40.2009C371.486 40.1209 371.798 40.0809 372.182 40.0809C372.358 40.0809 372.51 40.1049 372.638 40.1529C372.766 40.1849 372.894 40.2409 373.022 40.3209ZM381.094 39.3609C381.078 39.1369 381.07 38.9369 381.07 38.7609C381.086 38.5849 381.078 38.3609 381.046 38.0889C381.046 38.0409 380.982 38.0169 380.854 38.0169C380.726 38.0009 380.582 38.0009 380.422 38.0169C380.262 38.0329 380.102 38.0569 379.942 38.0889C379.782 38.1049 379.67 38.1129 379.606 38.1129C379.414 38.1289 379.254 38.1449 379.126 38.1609C378.998 38.1609 378.878 38.1609 378.766 38.1609C378.654 38.1609 378.534 38.1609 378.406 38.1609C378.278 38.1449 378.118 38.1289 377.926 38.1129C377.862 40.2249 377.846 42.2649 377.878 44.2329C377.926 46.2009 377.95 48.1689 377.95 50.1369C378.334 50.1049 378.654 50.0969 378.91 50.1129C379.166 50.1289 379.398 50.1369 379.606 50.1369C379.814 50.1529 380.014 50.1529 380.206 50.1369C380.414 50.1209 380.654 50.0729 380.926 49.9929V49.8969C380.99 49.3689 381.022 48.8409 381.022 48.3129C381.022 47.7849 381.006 47.2569 380.974 46.7289C380.958 46.1849 380.942 45.6489 380.926 45.1209C380.91 44.5769 380.918 44.0249 380.95 43.4649C380.982 43.0329 381.094 42.7129 381.286 42.5049C381.478 42.2809 381.694 42.1369 381.934 42.0729C382.174 41.9929 382.414 41.9769 382.654 42.0249C382.91 42.0569 383.102 42.1049 383.23 42.1689C383.246 42.1849 383.262 42.1929 383.278 42.1929C383.294 42.1929 383.31 42.2009 383.326 42.2169C383.454 42.3129 383.55 42.4489 383.614 42.6249C383.694 42.8009 383.75 43.0009 383.782 43.2249C383.83 43.4489 383.862 43.6809 383.878 43.9209C383.894 44.1449 383.91 44.3529 383.926 44.5449C383.958 44.9769 383.974 45.4409 383.974 45.9369C383.99 46.4329 383.99 46.9289 383.974 47.4249C383.974 47.9209 383.974 48.4009 383.974 48.8649C383.974 49.3289 383.99 49.7449 384.022 50.1129C384.582 50.1129 385.078 50.1129 385.51 50.1129C385.958 50.1289 386.462 50.0969 387.022 50.0169C386.99 49.4729 386.982 48.8409 386.998 48.1209C387.014 47.4009 387.03 46.6569 387.046 45.8889C387.062 45.1049 387.07 44.3369 387.07 43.5849C387.086 42.8169 387.078 42.1129 387.046 41.4729C387.03 40.8329 386.974 40.2889 386.878 39.8409C386.798 39.3769 386.678 39.0729 386.518 38.9289C386.182 38.6409 385.806 38.4409 385.39 38.3289C384.974 38.2169 384.542 38.1689 384.094 38.1849C383.662 38.2009 383.238 38.2809 382.822 38.4249C382.406 38.5689 382.03 38.7609 381.694 39.0009C381.614 39.0649 381.51 39.1289 381.382 39.1929C381.27 39.2569 381.174 39.3129 381.094 39.3609ZM393.002 33.6489C392.73 33.6809 392.458 33.6889 392.186 33.6729C391.914 33.6569 391.642 33.6409 391.37 33.6249C391.098 33.5929 390.834 33.5689 390.578 33.5529C390.338 33.5369 390.114 33.5449 389.906 33.5769C389.874 33.8809 389.85 34.2249 389.834 34.6089C389.834 34.9929 389.834 35.3929 389.834 35.8089C389.834 36.2249 389.842 36.6409 389.858 37.0569C389.874 37.4569 389.882 37.8329 389.882 38.1849C389.626 38.1849 389.354 38.1849 389.066 38.1849C388.794 38.1849 388.498 38.1769 388.178 38.1609L388.106 41.0889C388.442 41.0889 388.746 41.0889 389.018 41.0889C389.306 41.0889 389.578 41.0809 389.834 41.0649C389.818 42.2329 389.826 43.3689 389.858 44.4729C389.89 45.5609 390.01 46.7209 390.218 47.9529C390.426 48.4489 390.762 48.8409 391.226 49.1289C391.706 49.4169 392.25 49.6329 392.858 49.7769C393.466 49.9209 394.114 50.0169 394.802 50.0649C395.49 50.0969 396.154 50.0969 396.794 50.0649C396.874 49.8249 396.922 49.5609 396.938 49.2729C396.97 48.9849 396.978 48.6969 396.962 48.4089C396.946 48.1209 396.922 47.8409 396.89 47.5689C396.858 47.2969 396.826 47.0489 396.794 46.8249C396.522 46.8409 396.202 46.8409 395.834 46.8249C395.482 46.8089 395.13 46.7689 394.778 46.7049C394.426 46.6249 394.098 46.5209 393.794 46.3929C393.49 46.2649 393.258 46.0889 393.098 45.8649C393.082 45.1449 393.074 44.3769 393.074 43.5609C393.074 42.7289 393.074 41.8809 393.074 41.0169H396.794C396.762 40.8089 396.754 40.5609 396.77 40.2729C396.802 39.9689 396.826 39.6729 396.842 39.3849C396.858 39.0969 396.858 38.8329 396.842 38.5929C396.826 38.3369 396.762 38.1449 396.65 38.0169C395.834 38.0649 395.146 38.1049 394.586 38.1369C394.042 38.1689 393.522 38.1929 393.026 38.2089C393.026 37.9689 393.018 37.7369 393.002 37.5129C393.002 37.2889 393.002 37.0729 393.002 36.8649V33.6489Z" fill="#FFBE16"/>
<path d="M836.899 50.634C836.883 50.506 836.875 50.362 836.875 50.202C836.891 50.026 836.907 49.858 836.923 49.698C836.939 49.522 836.947 49.346 836.947 49.17C836.819 49.186 836.587 49.194 836.251 49.194C835.931 49.178 835.555 49.162 835.123 49.146C834.707 49.13 834.259 49.114 833.779 49.098C833.315 49.066 832.875 49.042 832.459 49.026C832.043 49.01 831.675 49.002 831.355 49.002C831.051 48.986 830.843 48.994 830.731 49.026V49.002C830.747 47.978 830.747 46.922 830.731 45.834C830.731 44.73 830.723 43.626 830.707 42.522C830.691 41.418 830.675 40.322 830.659 39.234C830.659 38.13 830.675 37.058 830.707 36.018C830.483 35.922 830.187 35.85 829.819 35.802C829.451 35.754 829.075 35.73 828.691 35.73C828.307 35.73 827.947 35.754 827.611 35.802C827.275 35.834 827.027 35.882 826.867 35.946C826.883 37.066 826.899 38.09 826.915 39.018C826.931 39.93 826.947 40.794 826.963 41.61C826.979 42.426 826.987 43.226 826.987 44.01C826.987 44.794 826.979 45.61 826.963 46.458C826.963 47.29 826.947 48.194 826.915 49.17C826.883 50.13 826.843 51.21 826.795 52.41V52.842C828.731 52.874 830.275 52.89 831.427 52.89C832.595 52.89 833.507 52.882 834.163 52.866C834.835 52.85 835.307 52.834 835.579 52.818C835.867 52.802 836.099 52.802 836.275 52.818C836.451 52.818 836.587 52.818 836.683 52.818C836.779 52.802 836.843 52.73 836.875 52.602C836.923 52.458 836.947 52.242 836.947 51.954C836.947 51.65 836.931 51.21 836.899 50.634ZM838.074 41.874C838.026 42.05 837.954 42.29 837.858 42.594C837.762 42.882 837.706 43.114 837.69 43.29C837.642 43.594 837.61 43.89 837.594 44.178C837.578 44.45 837.57 44.73 837.57 45.018C837.618 45.546 837.626 46.13 837.594 46.77C837.578 47.41 837.586 48.05 837.618 48.69C837.65 49.314 837.746 49.914 837.906 50.49C838.066 51.066 838.362 51.546 838.794 51.93C839.354 52.49 840.042 52.842 840.858 52.986C841.306 52.986 841.802 53.002 842.346 53.034C842.89 53.082 843.418 53.082 843.93 53.034C844.442 53.002 844.914 52.906 845.346 52.746C845.794 52.586 846.154 52.314 846.426 51.93C846.586 51.77 846.706 51.474 846.786 51.042C846.882 50.61 846.954 50.122 847.002 49.578C847.066 49.034 847.106 48.466 847.122 47.874C847.154 47.282 847.178 46.754 847.194 46.29C847.178 45.762 847.162 45.25 847.146 44.754C847.13 44.242 847.09 43.778 847.026 43.362C846.962 42.93 846.866 42.554 846.738 42.234C846.61 41.914 846.434 41.682 846.21 41.538C845.874 41.218 845.474 40.978 845.01 40.818C844.546 40.642 844.058 40.538 843.546 40.506C843.21 40.474 842.89 40.474 842.586 40.506C842.298 40.522 841.994 40.514 841.674 40.482C841.29 40.482 840.906 40.506 840.522 40.554C840.154 40.602 839.802 40.69 839.466 40.818C839.146 40.93 838.858 41.074 838.602 41.25C838.362 41.426 838.186 41.634 838.074 41.874ZM841.074 44.706C841.282 44.45 841.554 44.274 841.89 44.178C842.514 44.034 843.018 44.09 843.402 44.346C843.786 44.602 844.018 45.01 844.098 45.57C844.194 46.034 844.218 46.53 844.17 47.058C844.138 47.57 844.09 48.082 844.026 48.594C843.93 48.994 843.746 49.258 843.474 49.386C843.266 49.498 843.002 49.578 842.682 49.626C842.362 49.658 842.05 49.642 841.746 49.578C841.458 49.498 841.21 49.362 841.002 49.17C840.794 48.962 840.698 48.674 840.714 48.306C840.746 47.746 840.762 47.218 840.762 46.722C840.762 46.21 840.794 45.698 840.858 45.186C840.906 44.93 840.978 44.77 841.074 44.706ZM850.991 47.13C850.991 46.97 850.991 46.818 850.991 46.674C850.991 46.514 851.007 46.354 851.039 46.194C851.103 45.826 851.215 45.482 851.375 45.162C851.551 44.826 851.759 44.522 851.999 44.25C852.191 44.09 852.407 43.978 852.647 43.914C852.903 43.834 853.159 43.81 853.415 43.842C853.671 43.874 853.903 43.962 854.111 44.106C854.335 44.234 854.495 44.418 854.591 44.658C854.751 45.266 854.839 45.906 854.855 46.578C854.887 47.234 854.903 47.882 854.903 48.522C854.887 48.666 854.863 48.818 854.831 48.978C854.815 49.122 854.783 49.266 854.735 49.41C854.687 49.538 854.623 49.658 854.543 49.77C854.463 49.866 854.351 49.938 854.207 49.986C853.791 50.114 853.343 50.146 852.863 50.082C852.383 50.002 851.999 49.786 851.711 49.434C851.231 48.858 850.991 48.162 850.991 47.346V47.13ZM855.143 57.618C855.335 57.602 855.543 57.57 855.767 57.522C855.991 57.474 856.215 57.386 856.439 57.258C856.663 57.146 856.887 56.986 857.111 56.778C857.351 56.57 857.583 56.29 857.807 55.938C857.967 55.682 858.039 55.362 858.023 54.978C858.007 54.61 858.007 54.234 858.023 53.85C858.119 51.546 858.159 49.306 858.143 47.13C858.143 44.938 858.111 42.842 858.047 40.842C857.503 40.842 856.959 40.834 856.415 40.818C855.871 40.786 855.335 40.802 854.807 40.866C854.759 40.946 854.735 41.058 854.735 41.202C854.751 41.33 854.759 41.466 854.759 41.61C854.775 41.738 854.775 41.85 854.759 41.946C854.759 42.026 854.727 42.05 854.663 42.018C854.471 41.57 854.151 41.266 853.703 41.106C853.271 40.93 852.799 40.858 852.287 40.89C851.263 40.954 850.479 41.25 849.935 41.778C849.391 42.29 848.991 42.93 848.735 43.698C848.495 44.45 848.359 45.258 848.327 46.122C848.295 46.986 848.279 47.794 848.279 48.546C848.311 49.042 848.375 49.53 848.471 50.01C848.567 50.474 848.727 50.922 848.951 51.354C849.095 51.658 849.279 51.906 849.503 52.098C849.727 52.29 849.975 52.442 850.247 52.554C850.535 52.666 850.831 52.746 851.135 52.794C851.455 52.842 851.767 52.866 852.071 52.866C852.295 52.85 852.535 52.842 852.791 52.842C853.047 52.842 853.295 52.826 853.535 52.794C853.791 52.762 854.023 52.706 854.231 52.626C854.455 52.546 854.647 52.418 854.807 52.242C854.775 52.53 854.775 52.81 854.807 53.082C854.823 53.21 854.823 53.354 854.807 53.514C854.791 53.69 854.775 53.858 854.759 54.018C854.663 54.466 854.455 54.786 854.135 54.978C853.831 55.17 853.511 55.25 853.175 55.218C852.855 55.186 852.559 55.042 852.287 54.786C852.031 54.546 851.903 54.218 851.903 53.802C851.711 53.77 851.471 53.738 851.183 53.706C850.911 53.69 850.623 53.674 850.319 53.658C850.031 53.658 849.751 53.666 849.479 53.682C849.207 53.714 848.991 53.762 848.831 53.826C848.815 53.954 848.807 54.106 848.807 54.282C848.823 54.458 848.847 54.642 848.879 54.834C848.927 55.026 848.975 55.21 849.023 55.386C849.087 55.578 849.151 55.73 849.215 55.842C849.583 56.386 850.063 56.818 850.655 57.138C851.247 57.458 851.919 57.618 852.671 57.618C853.327 57.618 853.863 57.626 854.279 57.642C854.695 57.658 854.983 57.65 855.143 57.618ZM862.746 40.746C862.234 40.762 861.794 40.762 861.426 40.746C861.058 40.73 860.77 40.714 860.562 40.698C860.482 40.698 860.362 40.69 860.202 40.674C860.058 40.658 859.954 40.658 859.89 40.674V40.698C859.794 41.642 859.746 42.618 859.746 43.626C859.746 44.618 859.762 45.626 859.794 46.65C859.826 47.674 859.842 48.706 859.842 49.746C859.858 50.786 859.826 51.81 859.746 52.818C859.858 52.786 860.082 52.778 860.418 52.794C860.754 52.81 861.106 52.818 861.474 52.818C861.858 52.834 862.21 52.834 862.53 52.818C862.85 52.818 863.05 52.77 863.13 52.674C863.018 50.738 862.986 48.762 863.034 46.746C863.098 44.73 863.138 42.754 863.154 40.818V40.746H862.746ZM859.794 35.514C859.778 36.25 859.786 36.874 859.818 37.386C859.866 37.882 859.89 38.362 859.89 38.826C860.194 38.81 860.522 38.818 860.874 38.85C861.226 38.866 861.554 38.882 861.858 38.898C862.178 38.898 862.45 38.882 862.674 38.85C862.914 38.818 863.066 38.754 863.13 38.658C863.13 38.418 863.122 38.146 863.106 37.842C863.106 37.522 863.098 37.218 863.082 36.93C863.082 36.626 863.074 36.354 863.058 36.114C863.058 35.858 863.058 35.682 863.058 35.586L859.794 35.514ZM874.027 48.21C873.851 48.162 873.627 48.138 873.355 48.138C873.083 48.122 872.795 48.122 872.491 48.138C872.187 48.154 871.899 48.17 871.627 48.186C871.355 48.186 871.139 48.178 870.979 48.162C870.931 48.37 870.859 48.61 870.763 48.882C870.683 49.138 870.563 49.322 870.403 49.434C870.211 49.562 869.955 49.65 869.635 49.698C869.315 49.73 869.003 49.714 868.699 49.65C868.395 49.57 868.131 49.426 867.907 49.218C867.699 49.01 867.611 48.722 867.643 48.354C867.675 47.794 867.691 47.258 867.691 46.746C867.691 46.234 867.723 45.73 867.787 45.234C867.835 44.978 867.907 44.818 868.003 44.754C868.211 44.498 868.483 44.322 868.819 44.226C869.443 44.066 869.947 44.146 870.331 44.466C870.715 44.77 870.947 45.202 871.027 45.762C871.235 45.794 871.467 45.826 871.723 45.858C871.995 45.89 872.267 45.914 872.539 45.93C872.827 45.946 873.099 45.954 873.355 45.954C873.627 45.954 873.867 45.93 874.075 45.882C874.059 45.354 874.043 44.866 874.027 44.418C874.027 43.954 873.995 43.538 873.931 43.17C873.867 42.802 873.771 42.482 873.643 42.21C873.531 41.938 873.363 41.722 873.139 41.562C872.803 41.242 872.403 41.002 871.939 40.842C871.475 40.682 870.987 40.586 870.475 40.554C870.139 40.522 869.819 40.522 869.515 40.554C869.227 40.57 868.923 40.562 868.603 40.53C868.219 40.53 867.835 40.554 867.451 40.602C867.083 40.65 866.731 40.738 866.395 40.866C866.075 40.978 865.787 41.122 865.531 41.298C865.291 41.474 865.115 41.682 865.003 41.922C864.955 42.082 864.883 42.314 864.787 42.618C864.691 42.922 864.635 43.162 864.619 43.338C864.523 43.914 864.475 44.49 864.475 45.066C864.539 45.594 864.555 46.178 864.523 46.818C864.507 47.458 864.515 48.098 864.547 48.738C864.579 49.362 864.675 49.962 864.835 50.538C864.995 51.114 865.291 51.594 865.723 51.978C866.283 52.538 866.971 52.89 867.787 53.034C868.235 53.034 868.731 53.05 869.275 53.082C869.819 53.13 870.347 53.13 870.859 53.082C871.371 53.05 871.843 52.954 872.275 52.794C872.723 52.634 873.083 52.362 873.355 51.978C873.467 51.866 873.555 51.69 873.619 51.45C873.699 51.194 873.763 50.898 873.811 50.562C873.859 50.21 873.899 49.834 873.931 49.434C873.963 49.034 873.995 48.626 874.027 48.21Z" fill="#FFBE16"/>
<path d="M293.209 145.228L283.931 138.354L282.617 149.826L293.209 145.228ZM22.5996 115.249L284.154 145.198L284.381 143.211L22.8271 113.262L22.5996 115.249Z" fill="black"/>
<path d="M342.766 130.086L334.878 121.652L331.518 132.7L342.766 130.086ZM208.948 90.4337L333.864 128.424L334.446 126.51L209.529 88.5203L208.948 90.4337Z" fill="black"/>
<path d="M655.247 130.086L663.134 121.652L666.494 132.7L655.247 130.086ZM789.065 90.4337L664.148 128.424L663.566 126.51L788.483 88.5203L789.065 90.4337Z" fill="black"/>
<path d="M707.557 145.228L718.158 149.805L716.821 138.335L707.557 145.228ZM973.119 113.262L716.38 143.193L716.612 145.179L973.35 115.249L973.119 113.262Z" fill="black"/>
<path d="M458.45 82.48C458.11 82.52 457.77 82.53 457.43 82.51C457.09 82.49 456.75 82.47 456.41 82.45C456.07 82.41 455.74 82.38 455.42 82.36C455.12 82.34 454.84 82.35 454.58 82.39C454.54 82.77 454.51 83.2 454.49 83.68C454.49 84.16 454.49 84.66 454.49 85.18C454.49 85.7 454.5 86.22 454.52 86.74C454.54 87.24 454.55 87.71 454.55 88.15C454.23 88.15 453.89 88.15 453.53 88.15C453.19 88.15 452.82 88.14 452.42 88.12L452.33 91.78C452.75 91.78 453.13 91.78 453.47 91.78C453.83 91.78 454.17 91.77 454.49 91.75C454.47 93.21 454.48 94.63 454.52 96.01C454.56 97.37 454.71 98.82 454.97 100.36C455.23 100.98 455.65 101.47 456.23 101.83C456.83 102.19 457.51 102.46 458.27 102.64C459.03 102.82 459.84 102.94 460.7 103C461.56 103.04 462.39 103.04 463.19 103C463.29 102.7 463.35 102.37 463.37 102.01C463.41 101.65 463.42 101.29 463.4 100.93C463.38 100.57 463.35 100.22 463.31 99.88C463.27 99.54 463.23 99.23 463.19 98.95C462.85 98.97 462.45 98.97 461.99 98.95C461.55 98.93 461.11 98.88 460.67 98.8C460.23 98.7 459.82 98.57 459.44 98.41C459.06 98.25 458.77 98.03 458.57 97.75C458.55 96.85 458.54 95.89 458.54 94.87C458.54 93.83 458.54 92.77 458.54 91.69H463.19C463.15 91.43 463.14 91.12 463.16 90.76C463.2 90.38 463.23 90.01 463.25 89.65C463.27 89.29 463.27 88.96 463.25 88.66C463.23 88.34 463.15 88.1 463.01 87.94C461.99 88 461.13 88.05 460.43 88.09C459.75 88.13 459.1 88.16 458.48 88.18C458.48 87.88 458.47 87.59 458.45 87.31C458.45 87.03 458.45 86.76 458.45 86.5V82.48ZM468.612 89.62C468.612 89.54 468.612 89.29 468.612 88.87C468.612 88.45 468.612 87.95 468.612 87.37C468.612 86.79 468.612 86.17 468.612 85.51C468.612 84.83 468.612 84.2 468.612 83.62C468.612 83.02 468.612 82.51 468.612 82.09C468.612 81.65 468.602 81.38 468.582 81.28C468.582 81.22 468.502 81.19 468.342 81.19C468.182 81.17 468.002 81.17 467.802 81.19C467.602 81.21 467.402 81.24 467.202 81.28C467.002 81.3 466.862 81.31 466.782 81.31C466.542 81.33 466.342 81.35 466.182 81.37C466.022 81.37 465.872 81.37 465.732 81.37C465.592 81.37 465.442 81.37 465.282 81.37C465.122 81.35 464.922 81.33 464.682 81.31C464.662 82.19 464.642 83.23 464.622 84.43C464.622 85.61 464.622 86.87 464.622 88.21C464.622 89.55 464.622 90.93 464.622 92.35C464.622 93.75 464.622 95.11 464.622 96.43C464.642 97.75 464.652 98.99 464.652 100.15C464.672 101.29 464.682 102.27 464.682 103.09C465.162 103.05 465.562 103.04 465.882 103.06C466.202 103.08 466.492 103.09 466.752 103.09C467.012 103.11 467.262 103.11 467.502 103.09C467.762 103.07 468.062 103.01 468.402 102.91V102.79C468.482 102.13 468.522 101.47 468.522 100.81C468.522 100.15 468.502 99.49 468.462 98.83C468.442 98.15 468.422 97.48 468.402 96.82C468.382 96.14 468.392 95.45 468.432 94.75C468.472 94.21 468.612 93.81 468.852 93.55C469.092 93.27 469.362 93.09 469.662 93.01C469.962 92.91 470.262 92.89 470.562 92.95C470.882 92.99 471.122 93.05 471.282 93.13C471.302 93.15 471.322 93.16 471.342 93.16C471.362 93.16 471.382 93.17 471.402 93.19C471.562 93.31 471.682 93.48 471.762 93.7C471.862 93.92 471.932 94.17 471.972 94.45C472.032 94.73 472.072 95.02 472.092 95.32C472.112 95.6 472.132 95.86 472.152 96.1C472.192 96.64 472.212 97.22 472.212 97.84C472.232 98.46 472.232 99.08 472.212 99.7C472.212 100.32 472.212 100.92 472.212 101.5C472.212 102.08 472.232 102.6 472.272 103.06C472.972 103.06 473.592 103.06 474.132 103.06C474.692 103.08 475.322 103.04 476.022 102.94C475.982 102.26 475.972 101.47 475.992 100.57C476.012 99.67 476.032 98.74 476.052 97.78C476.072 96.8 476.082 95.84 476.082 94.9C476.102 93.94 476.092 93.06 476.052 92.26C476.032 91.46 475.962 90.78 475.842 90.22C475.742 89.64 475.592 89.26 475.392 89.08C474.972 88.72 474.502 88.47 473.982 88.33C473.462 88.19 472.922 88.13 472.362 88.15C471.822 88.17 471.292 88.27 470.772 88.45C470.252 88.63 469.782 88.87 469.362 89.17C469.262 89.25 469.132 89.33 468.972 89.41C468.832 89.49 468.712 89.56 468.612 89.62ZM482.239 89.05C482.239 88.91 482.229 88.81 482.209 88.75C482.209 88.69 482.209 88.64 482.209 88.6C482.209 88.54 482.209 88.47 482.209 88.39C482.209 88.31 482.209 88.19 482.209 88.03C482.209 87.99 482.119 87.97 481.939 87.97C481.779 87.95 481.579 87.95 481.339 87.97C481.119 87.99 480.899 88.01 480.679 88.03C480.479 88.05 480.339 88.06 480.259 88.06C480.019 88.08 479.819 88.1 479.659 88.12C479.499 88.12 479.349 88.12 479.209 88.12C479.069 88.12 478.919 88.12 478.759 88.12C478.599 88.1 478.399 88.08 478.159 88.06C478.079 90.7 478.059 93.25 478.099 95.71C478.159 98.17 478.189 100.63 478.189 103.09C478.669 103.05 479.079 103.04 479.419 103.06C479.779 103.08 480.109 103.09 480.409 103.09C480.709 103.11 480.999 103.11 481.279 103.09C481.559 103.07 481.869 103.01 482.209 102.91V102.79C482.209 102.05 482.199 101.36 482.179 100.72C482.179 100.06 482.179 99.42 482.179 98.8C482.179 98.16 482.169 97.53 482.149 96.91C482.129 96.29 482.109 95.63 482.089 94.93C482.069 94.37 482.149 93.94 482.329 93.64C482.509 93.34 482.759 93.12 483.079 92.98C483.419 92.84 483.809 92.77 484.249 92.77C484.709 92.77 485.209 92.8 485.749 92.86C485.769 92.86 485.899 92.88 486.139 92.92C486.399 92.96 486.649 93.01 486.889 93.07C486.989 93.11 487.089 93.15 487.189 93.19C487.309 93.21 487.419 93.24 487.519 93.28L487.789 93.37C487.769 93.07 487.759 92.75 487.759 92.41C487.759 92.07 487.759 91.7 487.759 91.3C487.759 90.88 487.759 90.41 487.759 89.89C487.779 89.37 487.789 88.77 487.789 88.09C487.789 88.07 487.639 88.06 487.339 88.06C487.059 88.04 486.709 88.04 486.289 88.06C485.869 88.08 485.419 88.13 484.939 88.21C484.459 88.27 484.029 88.36 483.649 88.48C483.369 88.58 483.079 88.69 482.779 88.81C482.499 88.93 482.319 89.01 482.239 89.05ZM489.444 89.32C489.384 89.54 489.294 89.84 489.174 90.22C489.054 90.58 488.984 90.87 488.964 91.09C488.904 91.47 488.864 91.84 488.844 92.2C488.824 92.54 488.814 92.89 488.814 93.25C488.874 93.91 488.884 94.64 488.844 95.44C488.824 96.24 488.834 97.04 488.874 97.84C488.914 98.62 489.034 99.37 489.234 100.09C489.434 100.81 489.804 101.41 490.344 101.89C491.044 102.59 491.904 103.03 492.924 103.21C493.484 103.21 494.104 103.23 494.784 103.27C495.464 103.33 496.124 103.33 496.764 103.27C497.404 103.23 497.994 103.11 498.534 102.91C499.094 102.71 499.544 102.37 499.884 101.89C500.084 101.69 500.234 101.32 500.334 100.78C500.454 100.24 500.544 99.63 500.604 98.95C500.684 98.27 500.734 97.56 500.754 96.82C500.794 96.08 500.824 95.42 500.844 94.84C500.824 94.18 500.804 93.54 500.784 92.92C500.764 92.28 500.714 91.7 500.634 91.18C500.554 90.64 500.434 90.17 500.274 89.77C500.114 89.37 499.894 89.08 499.614 88.9C499.194 88.5 498.694 88.2 498.114 88C497.534 87.78 496.924 87.65 496.284 87.61C495.864 87.57 495.464 87.57 495.084 87.61C494.724 87.63 494.344 87.62 493.944 87.58C493.464 87.58 492.984 87.61 492.504 87.67C492.044 87.73 491.604 87.84 491.184 88C490.784 88.14 490.424 88.32 490.104 88.54C489.804 88.76 489.584 89.02 489.444 89.32ZM493.194 92.86C493.454 92.54 493.794 92.32 494.214 92.2C494.994 92.02 495.624 92.09 496.104 92.41C496.584 92.73 496.874 93.24 496.974 93.94C497.094 94.52 497.124 95.14 497.064 95.8C497.024 96.44 496.964 97.08 496.884 97.72C496.764 98.22 496.534 98.55 496.194 98.71C495.934 98.85 495.604 98.95 495.204 99.01C494.804 99.05 494.414 99.03 494.034 98.95C493.674 98.85 493.364 98.68 493.104 98.44C492.844 98.18 492.724 97.82 492.744 97.36C492.784 96.66 492.804 96 492.804 95.38C492.804 94.74 492.844 94.1 492.924 93.46C492.984 93.14 493.074 92.94 493.194 92.86ZM509.971 101.38C509.991 101.66 509.991 101.91 509.971 102.13C509.971 102.35 509.991 102.63 510.031 102.97C510.031 103.03 510.111 103.06 510.271 103.06C510.431 103.08 510.611 103.08 510.811 103.06C511.011 103.04 511.211 103.02 511.411 103C511.611 102.96 511.751 102.94 511.831 102.94C512.071 102.92 512.271 102.91 512.431 102.91C512.591 102.89 512.741 102.88 512.881 102.88C513.021 102.88 513.171 102.89 513.331 102.91C513.491 102.91 513.691 102.92 513.931 102.94C514.011 100.3 514.021 97.75 513.961 95.29C513.921 92.83 513.901 90.37 513.901 87.91C513.421 87.95 513.021 87.96 512.701 87.94C512.381 87.92 512.091 87.91 511.831 87.91C511.571 87.89 511.311 87.89 511.051 87.91C510.811 87.93 510.521 87.99 510.181 88.09V88.21C510.081 88.87 510.031 89.53 510.031 90.19C510.051 90.85 510.071 91.52 510.091 92.2C510.131 92.86 510.161 93.53 510.181 94.21C510.201 94.89 510.191 95.57 510.151 96.25C510.111 96.79 509.971 97.2 509.731 97.48C509.491 97.74 509.221 97.92 508.921 98.02C508.621 98.1 508.311 98.12 507.991 98.08C507.691 98.02 507.461 97.95 507.301 97.87C507.281 97.85 507.261 97.84 507.241 97.84C507.221 97.84 507.201 97.83 507.181 97.81C507.021 97.69 506.891 97.52 506.791 97.3C506.711 97.08 506.641 96.83 506.581 96.55C506.541 96.27 506.511 95.99 506.491 95.71C506.471 95.41 506.451 95.14 506.431 94.9C506.391 94.36 506.361 93.78 506.341 93.16C506.341 92.54 506.341 91.92 506.341 91.3C506.361 90.68 506.371 90.08 506.371 89.5C506.371 88.92 506.351 88.4 506.311 87.94C505.611 87.94 504.981 87.94 504.421 87.94C503.881 87.92 503.261 87.96 502.561 88.06C502.601 88.74 502.611 89.53 502.591 90.43C502.571 91.33 502.551 92.27 502.531 93.25C502.511 94.21 502.491 95.17 502.471 96.13C502.471 97.07 502.481 97.94 502.501 98.74C502.541 99.54 502.611 100.23 502.711 100.81C502.831 101.37 502.991 101.74 503.191 101.92C503.611 102.28 504.081 102.53 504.601 102.67C505.121 102.81 505.651 102.87 506.191 102.85C506.751 102.83 507.291 102.73 507.811 102.55C508.331 102.37 508.801 102.13 509.221 101.83C509.321 101.75 509.441 101.67 509.581 101.59C509.741 101.51 509.871 101.44 509.971 101.38ZM519.097 95.89C519.097 95.69 519.097 95.5 519.097 95.32C519.097 95.12 519.117 94.92 519.157 94.72C519.237 94.26 519.377 93.83 519.577 93.43C519.797 93.01 520.057 92.63 520.357 92.29C520.597 92.09 520.867 91.95 521.167 91.87C521.487 91.77 521.807 91.74 522.127 91.78C522.447 91.82 522.737 91.93 522.997 92.11C523.277 92.27 523.477 92.5 523.597 92.8C523.797 93.56 523.907 94.36 523.927 95.2C523.967 96.02 523.987 96.83 523.987 97.63C523.967 97.81 523.937 98 523.897 98.2C523.877 98.38 523.837 98.56 523.777 98.74C523.717 98.9 523.637 99.05 523.537 99.19C523.437 99.31 523.297 99.4 523.117 99.46C522.597 99.62 522.037 99.66 521.437 99.58C520.837 99.48 520.357 99.21 519.997 98.77C519.397 98.05 519.097 97.18 519.097 96.16V95.89ZM524.287 109C524.527 108.98 524.787 108.94 525.067 108.88C525.347 108.82 525.627 108.71 525.907 108.55C526.187 108.41 526.467 108.21 526.747 107.95C527.047 107.69 527.337 107.34 527.617 106.9C527.817 106.58 527.907 106.18 527.887 105.7C527.867 105.24 527.867 104.77 527.887 104.29C528.007 101.41 528.057 98.61 528.037 95.89C528.037 93.15 527.997 90.53 527.917 88.03C527.237 88.03 526.557 88.02 525.877 88C525.197 87.96 524.527 87.98 523.867 88.06C523.807 88.16 523.777 88.3 523.777 88.48C523.797 88.64 523.807 88.81 523.807 88.99C523.827 89.15 523.827 89.29 523.807 89.41C523.807 89.51 523.767 89.54 523.687 89.5C523.447 88.94 523.047 88.56 522.487 88.36C521.947 88.14 521.357 88.05 520.717 88.09C519.437 88.17 518.457 88.54 517.777 89.2C517.097 89.84 516.597 90.64 516.277 91.6C515.977 92.54 515.807 93.55 515.767 94.63C515.727 95.71 515.707 96.72 515.707 97.66C515.747 98.28 515.827 98.89 515.947 99.49C516.067 100.07 516.267 100.63 516.547 101.17C516.727 101.55 516.957 101.86 517.237 102.1C517.517 102.34 517.827 102.53 518.167 102.67C518.527 102.81 518.897 102.91 519.277 102.97C519.677 103.03 520.067 103.06 520.447 103.06C520.727 103.04 521.027 103.03 521.347 103.03C521.667 103.03 521.977 103.01 522.277 102.97C522.597 102.93 522.887 102.86 523.147 102.76C523.427 102.66 523.667 102.5 523.867 102.28C523.827 102.64 523.827 102.99 523.867 103.33C523.887 103.49 523.887 103.67 523.867 103.87C523.847 104.09 523.827 104.3 523.807 104.5C523.687 105.06 523.427 105.46 523.027 105.7C522.647 105.94 522.247 106.04 521.827 106C521.427 105.96 521.057 105.78 520.717 105.46C520.397 105.16 520.237 104.75 520.237 104.23C519.997 104.19 519.697 104.15 519.337 104.11C518.997 104.09 518.637 104.07 518.257 104.05C517.897 104.05 517.547 104.06 517.207 104.08C516.867 104.12 516.597 104.18 516.397 104.26C516.377 104.42 516.367 104.61 516.367 104.83C516.387 105.05 516.417 105.28 516.457 105.52C516.517 105.76 516.577 105.99 516.637 106.21C516.717 106.45 516.797 106.64 516.877 106.78C517.337 107.46 517.937 108 518.677 108.4C519.417 108.8 520.257 109 521.197 109C522.017 109 522.687 109.01 523.207 109.03C523.727 109.05 524.087 109.04 524.287 109ZM534.061 89.62C534.061 89.54 534.061 89.29 534.061 88.87C534.061 88.45 534.061 87.95 534.061 87.37C534.061 86.79 534.061 86.17 534.061 85.51C534.061 84.83 534.061 84.2 534.061 83.62C534.061 83.02 534.061 82.51 534.061 82.09C534.061 81.65 534.051 81.38 534.031 81.28C534.031 81.22 533.951 81.19 533.791 81.19C533.631 81.17 533.451 81.17 533.251 81.19C533.051 81.21 532.851 81.24 532.651 81.28C532.451 81.3 532.311 81.31 532.231 81.31C531.991 81.33 531.791 81.35 531.631 81.37C531.471 81.37 531.321 81.37 531.181 81.37C531.041 81.37 530.891 81.37 530.731 81.37C530.571 81.35 530.371 81.33 530.131 81.31C530.111 82.19 530.091 83.23 530.071 84.43C530.071 85.61 530.071 86.87 530.071 88.21C530.071 89.55 530.071 90.93 530.071 92.35C530.071 93.75 530.071 95.11 530.071 96.43C530.091 97.75 530.101 98.99 530.101 100.15C530.121 101.29 530.131 102.27 530.131 103.09C530.611 103.05 531.011 103.04 531.331 103.06C531.651 103.08 531.941 103.09 532.201 103.09C532.461 103.11 532.711 103.11 532.951 103.09C533.211 103.07 533.511 103.01 533.851 102.91V102.79C533.931 102.13 533.971 101.47 533.971 100.81C533.971 100.15 533.951 99.49 533.911 98.83C533.891 98.15 533.871 97.48 533.851 96.82C533.831 96.14 533.841 95.45 533.881 94.75C533.921 94.21 534.061 93.81 534.301 93.55C534.541 93.27 534.811 93.09 535.111 93.01C535.411 92.91 535.711 92.89 536.011 92.95C536.331 92.99 536.571 93.05 536.731 93.13C536.751 93.15 536.771 93.16 536.791 93.16C536.811 93.16 536.831 93.17 536.851 93.19C537.011 93.31 537.131 93.48 537.211 93.7C537.311 93.92 537.381 94.17 537.421 94.45C537.481 94.73 537.521 95.02 537.541 95.32C537.561 95.6 537.581 95.86 537.601 96.1C537.641 96.64 537.661 97.22 537.661 97.84C537.681 98.46 537.681 99.08 537.661 99.7C537.661 100.32 537.661 100.92 537.661 101.5C537.661 102.08 537.681 102.6 537.721 103.06C538.421 103.06 539.041 103.06 539.581 103.06C540.141 103.08 540.771 103.04 541.471 102.94C541.431 102.26 541.421 101.47 541.441 100.57C541.461 99.67 541.481 98.74 541.501 97.78C541.521 96.8 541.531 95.84 541.531 94.9C541.551 93.94 541.541 93.06 541.501 92.26C541.481 91.46 541.411 90.78 541.291 90.22C541.191 89.64 541.041 89.26 540.841 89.08C540.421 88.72 539.951 88.47 539.431 88.33C538.911 88.19 538.371 88.13 537.811 88.15C537.271 88.17 536.741 88.27 536.221 88.45C535.701 88.63 535.231 88.87 534.811 89.17C534.711 89.25 534.581 89.33 534.421 89.41C534.281 89.49 534.161 89.56 534.061 89.62Z" fill="black"/>
</svg>
