<svg width="604" height="439" viewBox="0 0 604 439" fill="none" xmlns="http://www.w3.org/2000/svg">
<g filter="url(#filter0_d_51_2)">
<path d="M63.7928 71.0171C63.7928 71.0171 6.10761 117.725 2.39467 182.755C-1.31827 247.785 -0.295868 294.493 40.0622 338.484C80.4203 382.474 87.6847 402.572 140.823 411.747C193.961 420.922 239.727 427.325 291.95 399.828C344.174 372.33 349.662 389.765 379.877 325.65C410.092 261.534 412.836 221.23 412.836 221.23L206.876 215.714L63.7928 71.0171Z" fill="white"/>
<path d="M63.7928 71.0171C63.7928 71.0171 6.10761 117.725 2.39467 182.755C-1.31827 247.785 -0.295868 294.493 40.0622 338.484C80.4203 382.474 87.6847 402.572 140.823 411.747C193.961 420.922 239.727 427.325 291.95 399.828C344.174 372.33 349.662 389.765 379.877 325.65C410.092 261.534 412.836 221.23 412.836 221.23L206.876 215.714L63.7928 71.0171Z" stroke="#C83E3E" stroke-width="2" stroke-miterlimit="10"/>
</g>
<g filter="url(#filter1_d_51_2)">
<path d="M67.7285 59.4932L207.152 207.688L413.005 212.45C413.005 212.45 416.691 137.33 382.791 95.1966C348.89 53.0628 301.321 12.7585 248.183 5.44024C195.045 -1.87802 170.319 3.52996 139.189 17.3593C108.06 31.1887 67.7285 59.4932 67.7285 59.4932Z" fill="white"/>
<path d="M67.7285 59.4932L207.152 207.688L413.005 212.45C413.005 212.45 416.691 137.33 382.791 95.1966C348.89 53.0628 301.321 12.7585 248.183 5.44024C195.045 -1.87802 170.319 3.52996 139.189 17.3593C108.06 31.1887 67.7285 59.4932 67.7285 59.4932Z" stroke="#C83E3E" stroke-width="3" stroke-miterlimit="10"/>
</g>
<path d="M537.192 205.434C538.168 204.457 538.168 202.875 537.192 201.898L521.282 185.988C520.306 185.012 518.723 185.012 517.747 185.988C516.77 186.965 516.77 188.548 517.747 189.524L531.889 203.666L517.747 217.808C516.77 218.784 516.77 220.367 517.747 221.344C518.723 222.32 520.306 222.32 521.282 221.344L537.192 205.434ZM433.184 206.166H535.424V201.166H433.184V206.166Z" fill="white"/>
<path d="M412.154 212.315L207.084 207.135L412.154 192.773V212.315Z" fill="#EA1414" stroke="#C83E3E" stroke-width="6"/>
<path d="M161.204 294.028L163.282 295.465L158.907 301.856C159.272 301.814 159.527 301.793 159.673 301.793L160.251 301.762C162.105 301.762 163.736 302.424 165.142 303.747C166.548 305.069 167.251 306.596 167.251 308.325C167.251 310.377 166.553 312.116 165.157 313.543C163.762 314.971 162.059 315.684 160.048 315.684C158.038 315.684 156.319 314.986 154.892 313.59C153.465 312.184 152.751 310.491 152.751 308.512C152.751 306.991 153.199 305.585 154.095 304.293L161.204 294.028ZM164.407 308.418C164.407 307.21 163.97 306.168 163.095 305.293C162.23 304.408 161.204 303.965 160.017 303.965C158.829 303.965 157.793 304.413 156.907 305.309C156.022 306.194 155.579 307.231 155.579 308.418C155.579 309.648 156.006 310.689 156.861 311.543C157.725 312.387 158.777 312.809 160.017 312.809C161.236 312.809 162.272 312.382 163.126 311.528C163.98 310.674 164.407 309.637 164.407 308.418ZM176.595 312.356H184.173V315.012H170.579L180.72 304.231C181.48 303.398 181.861 302.481 181.861 301.481C181.861 300.304 181.46 299.283 180.657 298.418C179.855 297.554 178.913 297.122 177.829 297.122C176.934 297.122 176.09 297.408 175.298 297.981C174.517 298.554 174.006 299.439 173.767 300.637H171.142C171.402 298.679 172.173 297.158 173.454 296.075C174.746 294.981 176.262 294.434 178.001 294.434C179.741 294.434 181.256 295.122 182.548 296.497C183.84 297.861 184.486 299.481 184.486 301.356C184.486 302.262 184.319 303.096 183.986 303.856C183.663 304.606 183.085 305.424 182.251 306.309L176.595 312.356ZM187.454 300.168C187.454 298.418 187.861 297.033 188.673 296.012C189.486 294.981 190.574 294.465 191.939 294.465C193.324 294.465 194.413 294.976 195.204 295.997C195.996 297.007 196.392 298.408 196.392 300.2C196.392 301.918 195.991 303.278 195.189 304.278C194.387 305.267 193.303 305.762 191.939 305.762C190.564 305.762 189.47 305.262 188.657 304.262C187.855 303.262 187.454 301.898 187.454 300.168ZM194.22 299.997C194.22 297.694 193.48 296.543 192.001 296.543C190.387 296.543 189.579 297.762 189.579 300.2C189.579 301.325 189.782 302.194 190.189 302.809C190.595 303.413 191.168 303.715 191.907 303.715C192.71 303.715 193.293 303.418 193.657 302.825C194.032 302.231 194.22 301.288 194.22 299.997ZM205.923 294.465H207.97L194.017 316.418H191.939L205.923 294.465ZM203.423 311.137C203.423 309.21 203.809 307.731 204.579 306.7C205.361 305.668 206.47 305.153 207.907 305.153C209.21 305.153 210.256 305.653 211.048 306.653C211.84 307.653 212.236 308.986 212.236 310.653C212.236 312.497 211.85 313.918 211.079 314.918C210.309 315.918 209.22 316.418 207.814 316.418C206.491 316.418 205.428 315.944 204.626 314.997C203.824 314.038 203.423 312.752 203.423 311.137ZM210.111 310.856C210.111 308.418 209.366 307.2 207.876 307.2C206.293 307.2 205.501 308.319 205.501 310.559C205.501 311.913 205.678 312.892 206.032 313.497C206.397 314.101 206.991 314.403 207.814 314.403C209.345 314.403 210.111 313.221 210.111 310.856Z" fill="#231F20"/>
<path d="M229.647 126.076H226.741C226.928 124.399 227.584 123.123 228.709 122.248C229.845 121.363 231.215 120.92 232.819 120.92C234.663 120.92 236.189 121.446 237.397 122.498C238.605 123.55 239.209 124.868 239.209 126.451C239.209 128.42 238.209 129.925 236.209 130.967C238.553 132.175 239.725 133.842 239.725 135.967C239.725 137.633 239.084 139.081 237.803 140.311C236.532 141.529 235.022 142.139 233.272 142.139C231.511 142.139 229.985 141.701 228.694 140.826C227.413 139.941 226.569 138.545 226.163 136.639H229.131C229.777 138.701 231.1 139.732 233.1 139.732C234.121 139.732 235.011 139.383 235.772 138.686C236.532 137.977 236.913 137.154 236.913 136.217C236.913 135.238 236.564 134.342 235.866 133.529C235.168 132.706 234.022 132.279 232.428 132.248V129.779C233.647 129.758 234.6 129.462 235.288 128.889C235.985 128.305 236.334 127.561 236.334 126.654C236.334 125.727 236.011 124.941 235.366 124.295C234.72 123.649 233.933 123.326 233.006 123.326C232.131 123.326 231.433 123.545 230.913 123.982C230.392 124.42 229.97 125.118 229.647 126.076ZM242.725 121.529H259.147L245.131 142.451L243.053 141.076L254.319 124.154H242.725V121.529ZM260.475 126.654C260.475 124.904 260.881 123.519 261.694 122.498C262.506 121.467 263.595 120.951 264.959 120.951C266.345 120.951 267.433 121.462 268.225 122.482C269.017 123.493 269.413 124.894 269.413 126.686C269.413 128.404 269.011 129.764 268.209 130.764C267.407 131.753 266.324 132.248 264.959 132.248C263.584 132.248 262.491 131.748 261.678 130.748C260.876 129.748 260.475 128.383 260.475 126.654ZM267.241 126.482C267.241 124.18 266.501 123.029 265.022 123.029C263.407 123.029 262.6 124.248 262.6 126.686C262.6 127.811 262.803 128.68 263.209 129.295C263.616 129.899 264.189 130.201 264.928 130.201C265.73 130.201 266.314 129.904 266.678 129.311C267.053 128.717 267.241 127.774 267.241 126.482ZM278.944 120.951H280.991L267.038 142.904H264.959L278.944 120.951ZM276.444 137.623C276.444 135.696 276.829 134.217 277.6 133.186C278.381 132.154 279.491 131.639 280.928 131.639C282.23 131.639 283.277 132.139 284.069 133.139C284.86 134.139 285.256 135.472 285.256 137.139C285.256 138.982 284.871 140.404 284.1 141.404C283.329 142.404 282.241 142.904 280.834 142.904C279.511 142.904 278.449 142.43 277.647 141.482C276.845 140.524 276.444 139.238 276.444 137.623ZM283.131 137.342C283.131 134.904 282.386 133.686 280.897 133.686C279.314 133.686 278.522 134.805 278.522 137.045C278.522 138.399 278.699 139.378 279.053 139.982C279.418 140.587 280.011 140.889 280.834 140.889C282.366 140.889 283.131 139.706 283.131 137.342Z" fill="#231F20"/>
<path d="M563.563 192.344H568.735V212.188H566.048V194.969H562.657L563.563 192.344ZM577.079 197.344C577.079 195.594 577.485 194.209 578.298 193.188C579.11 192.157 580.199 191.641 581.563 191.641C582.949 191.641 584.037 192.152 584.829 193.172C585.621 194.183 586.017 195.584 586.017 197.375C586.017 199.094 585.615 200.454 584.813 201.454C584.011 202.443 582.928 202.938 581.563 202.938C580.188 202.938 579.095 202.438 578.282 201.438C577.48 200.438 577.079 199.073 577.079 197.344ZM583.845 197.172C583.845 194.87 583.105 193.719 581.626 193.719C580.011 193.719 579.204 194.938 579.204 197.375C579.204 198.5 579.407 199.37 579.813 199.985C580.22 200.589 580.793 200.891 581.532 200.891C582.334 200.891 582.918 200.594 583.282 200C583.657 199.407 583.845 198.464 583.845 197.172ZM595.548 191.641H597.595L583.642 213.594H581.563L595.548 191.641ZM593.048 208.313C593.048 206.386 593.433 204.907 594.204 203.875C594.985 202.844 596.095 202.329 597.532 202.329C598.834 202.329 599.881 202.829 600.673 203.829C601.464 204.829 601.86 206.162 601.86 207.829C601.86 209.672 601.475 211.094 600.704 212.094C599.933 213.094 598.845 213.594 597.438 213.594C596.115 213.594 595.053 213.12 594.251 212.172C593.449 211.214 593.048 209.928 593.048 208.313ZM599.735 208.032C599.735 205.594 598.99 204.375 597.501 204.375C595.918 204.375 595.126 205.495 595.126 207.735C595.126 209.089 595.303 210.068 595.657 210.672C596.022 211.277 596.615 211.579 597.438 211.579C598.97 211.579 599.735 210.396 599.735 208.032Z" fill="black"/>
<path d="M212.43 205.677L214.089 208.442" stroke="black"/>
<path d="M217.775 205.309L219.987 208.627" stroke="black"/>
<path d="M304.78 199.041L308.836 210.838" stroke="black"/>
<path d="M222.937 204.939L225.333 208.626" stroke="black"/>
<path d="M309.942 198.672L314.366 211.207" stroke="black"/>
<path d="M228.098 204.571L230.679 208.995" stroke="black"/>
<path d="M315.103 198.304L319.527 211.207" stroke="black"/>
<path d="M233.259 204.202L235.84 208.995" stroke="black"/>
<path d="M320.264 197.935L324.688 211.576" stroke="black"/>
<path d="M238.421 203.834L241.001 209.364" stroke="black"/>
<path d="M325.426 197.566L329.85 211.391" stroke="black"/>
<path d="M243.582 203.465L246.531 209.363" stroke="black"/>
<path d="M330.587 197.198L335.38 211.944" stroke="black"/>
<path d="M274.55 201.253L278.974 210.101" stroke="black"/>
<path d="M361.555 194.986L365.242 212.313" stroke="black"/>
<path d="M397.316 192.773L403.583 213.787" stroke="black"/>
<path d="M248.743 203.096L252.061 209.364" stroke="black"/>
<path d="M335.748 196.829L340.541 211.944" stroke="black"/>
<path d="M279.343 200.884L283.767 210.47" stroke="black"/>
<path d="M366.348 194.986L370.772 212.682" stroke="black"/>
<path d="M402.108 192.405L407.638 213.419" stroke="black"/>
<path d="M253.905 202.728L257.96 209.732" stroke="black"/>
<path d="M340.91 196.46L345.518 211.76" stroke="black"/>
<path d="M284.504 200.516L288.928 210.47" stroke="black"/>
<path d="M371.509 194.617L377.039 213.05" stroke="black"/>
<path d="M407.27 192.036L412.799 213.787" stroke="black"/>
<path d="M259.066 202.359L263.121 209.732" stroke="black"/>
<path d="M346.071 196.091L350.126 211.944" stroke="black"/>
<path d="M289.665 200.147L294.089 210.838" stroke="black"/>
<path d="M376.67 194.248L384.781 213.419" stroke="black"/>
<path d="M264.227 201.99L268.651 209.732" stroke="black"/>
<path d="M351.232 195.723L354.919 212.313" stroke="black"/>
<path d="M386.993 193.511L394.735 213.788" stroke="black"/>
<path d="M294.826 199.778L299.619 210.838" stroke="black"/>
<path d="M381.832 193.879L389.574 213.419" stroke="black"/>
<path d="M269.389 201.622L273.813 210.101" stroke="black"/>
<path d="M356.394 195.354L359.343 212.313" stroke="black"/>
<path d="M392.154 193.142L399.159 214.156" stroke="black"/>
<path d="M299.988 199.41L304.043 211.207" stroke="black"/>
<defs>
<filter id="filter0_d_51_2" x="-0.000732422" y="69.6699" width="423.906" height="368.949" filterUnits="userSpaceOnUse" color-interpolation-filters="sRGB">
<feFlood flood-opacity="0" result="BackgroundImageFix"/>
<feColorMatrix in="SourceAlpha" type="matrix" values="0 0 0 0 0 0 0 0 0 0 0 0 0 0 0 0 0 0 127 0" result="hardAlpha"/>
<feOffset dx="6" dy="14"/>
<feGaussianBlur stdDeviation="2"/>
<feComposite in2="hardAlpha" operator="out"/>
<feColorMatrix type="matrix" values="0 0 0 0 0 0 0 0 0 0 0 0 0 0 0 0 0 0 0.71 0"/>
<feBlend mode="normal" in2="BackgroundImageFix" result="effect1_dropShadow_51_2"/>
<feBlend mode="normal" in="SourceGraphic" in2="effect1_dropShadow_51_2" result="shape"/>
</filter>
<filter id="filter1_d_51_2" x="65.4496" y="0.67334" width="363.173" height="225.311" filterUnits="userSpaceOnUse" color-interpolation-filters="sRGB">
<feFlood flood-opacity="0" result="BackgroundImageFix"/>
<feColorMatrix in="SourceAlpha" type="matrix" values="0 0 0 0 0 0 0 0 0 0 0 0 0 0 0 0 0 0 127 0" result="hardAlpha"/>
<feOffset dx="10" dy="8"/>
<feGaussianBlur stdDeviation="2"/>
<feComposite in2="hardAlpha" operator="out"/>
<feColorMatrix type="matrix" values="0 0 0 0 0 0 0 0 0 0 0 0 0 0 0 0 0 0 1 0"/>
<feBlend mode="normal" in2="BackgroundImageFix" result="effect1_dropShadow_51_2"/>
<feBlend mode="normal" in="SourceGraphic" in2="effect1_dropShadow_51_2" result="shape"/>
</filter>
</defs>
</svg>
