<svg width="79" height="93" viewBox="0 0 79 93" fill="none" xmlns="http://www.w3.org/2000/svg">
<path d="M3.33525 2.82718C0.565238 6.15026 -0.450432 10.0272 0.749906 13.0733C1.76558 15.8426 20.0476 39.4734 39.53 63.2888C47.4707 72.9811 55.7808 83.2273 58.0891 86.0888C62.9828 92.1811 66.0298 93.7503 71.1081 92.3657C75.3555 91.1657 78.4025 87.2888 78.4025 82.858C78.4025 80.1811 76.7405 77.5042 68.5228 66.8888C48.6711 41.0426 20.0476 6.51949 14.877 2.18103C11.1836 -0.95744 6.28992 -0.680516 3.33525 2.82718ZM21.802 14.2733C45.8087 41.8734 75.5402 79.8119 75.6325 82.9503C75.6325 85.6273 70.9235 90.5196 68.3381 90.5196C66.0298 90.5196 63.8138 88.3965 56.7041 79.4426C53.6571 75.658 47.9324 68.6426 43.9621 63.8426C39.9917 59.1349 37.2217 55.5349 37.7757 55.9042C38.5144 56.3657 38.7914 56.1811 38.5144 55.3503C38.2374 54.6118 37.591 54.1503 37.037 54.2426C36.2984 54.4272 10.3526 22.3964 4.62792 14.0887C2.13491 10.581 2.50425 8.08872 5.82826 4.48872C7.49026 2.82718 8.78293 2.18103 10.0756 2.55026C11.1836 2.82718 16.4466 8.08872 21.802 14.2733Z" fill="#E7A702"/>
<path d="M17.0006 13.4426C18.2933 15.3811 19.309 17.3195 19.309 17.6888C19.309 18.1503 19.7706 18.5195 20.3247 18.5195C21.525 18.5195 17.1853 10.858 15.708 10.3964C15.0616 10.2118 15.708 11.5964 17.0006 13.4426Z" fill="#E7A702"/>
<path d="M18.3857 22.212C19.4013 24.2428 20.694 25.9043 21.248 25.9043C21.7097 25.9043 21.1557 24.2428 20.0477 22.212C17.2777 17.412 15.8927 17.412 18.3857 22.212Z" fill="#E7A702"/>
<path d="M12.9379 21.197C17.8316 27.8431 29.835 42.4278 30.2043 42.0585C30.943 41.3201 13.8613 19.6278 12.4763 19.5354C12.0146 19.4431 12.2916 20.1816 12.9379 21.197Z" fill="#E7A702"/>
<path d="M26.6956 32.8275C26.6956 33.1044 28.0806 35.1352 29.8349 37.2583C31.4969 39.3814 33.4359 42.0583 33.9899 43.166C34.5439 44.366 35.4673 45.2891 36.0213 45.2891C36.4829 45.2891 35.2826 42.8891 33.2512 39.9352C29.8349 34.766 26.6956 31.4429 26.6956 32.8275Z" fill="#E7A702"/>
<path d="M36.1137 37.166C37.868 39.3814 42.4847 45.1967 46.4551 50.1814C50.5177 55.166 53.9341 58.9506 54.2111 58.766C54.7651 58.1198 34.9134 33.289 33.8054 33.289C33.3437 33.289 34.3594 35.0429 36.1137 37.166Z" fill="#E7A702"/>
<path d="M42.577 54.3351C43.2233 55.9044 66.5837 87.7505 67.5071 88.3044C68.0611 88.6736 68.3381 88.5813 68.1534 88.1198C67.3224 85.9967 43.685 53.689 43.0387 53.689C42.577 53.5967 42.3923 53.9659 42.577 54.3351Z" fill="#E7A702"/>
<path d="M47.9324 55.8115C47.9324 57.5654 67.1378 79.9039 67.9688 79.0731C68.2458 78.7962 65.3834 75.1962 61.6901 70.95C57.9044 66.7039 53.2877 61.4423 51.4411 59.1346C49.502 56.8269 47.9324 55.35 47.9324 55.8115Z" fill="#E7A702"/>
</svg>
