<svg width="210" height="67" viewBox="0 0 210 67" fill="none" xmlns="http://www.w3.org/2000/svg">
<path d="M54.3957 2.45451C52.9567 3.41458 46.2414 9.36702 39.526 15.7035C32.7147 22.0399 23.697 30.1045 19.284 33.5608C10.8419 40.4733 6.81266 44.6016 2.49565 50.8421C0.193245 54.2023 -0.0945559 55.6424 0.0973114 60.0587C0.385112 65.1471 0.481046 65.4351 3.64686 66.2992C5.85333 66.9713 11.9931 66.8752 22.3539 66.0112C30.892 65.4351 48.9275 64.5711 62.5501 64.2831C82.7921 63.803 87.205 63.419 86.8213 62.3629C86.5335 61.6909 85.862 58.3306 85.1904 54.9704L84.1352 48.9219L79.2425 48.2499C76.4605 47.9619 72.4313 47.6738 70.1289 47.6738C67.1549 47.6738 66.0996 47.2898 66.4834 46.4257C68.402 41.7214 69.1695 37.7851 68.5939 34.9049C67.8264 30.5846 62.646 24.8242 58.1372 23.288L54.5876 22.0399L59.3843 15.2234C61.9745 11.4792 64.181 7.8309 64.181 7.06285C64.181 5.71875 59.0006 0.534368 57.7534 0.726382C57.2737 0.726382 55.8347 1.49444 54.3957 2.45451ZM60.1518 4.37465C61.303 5.43073 62.2623 6.48681 62.2623 6.87083C62.2623 7.25486 60.3436 10.4231 58.0412 13.9754C55.7388 17.4316 51.9974 24.3441 49.7909 29.1445C46.3373 36.633 45.0902 38.4572 41.7325 40.4733C31.7554 46.5217 31.1798 49.2099 40.3894 46.9058C45.378 45.6577 47.2967 45.6577 52.573 46.6178C57.7534 47.5778 79.9141 50.458 82.6962 50.554C83.0799 50.554 83.3677 51.7061 83.3677 53.2422C83.3677 54.6823 83.7514 57.2745 84.2311 59.0027L85.1904 62.0749H78.7629C64.085 62.1709 23.9848 63.995 16.7898 65.0511C10.9378 65.8192 7.96387 65.8192 4.98993 65.0511C1.24851 63.995 0.86478 63.611 0.86478 60.8268C0.86478 54.5863 8.82727 43.6415 18.9003 36.057C24.0807 32.1207 31.5635 25.4002 45.8576 11.7672C51.5177 6.29479 56.3144 2.55052 57.4656 2.55052C57.7534 2.64652 58.9046 3.41458 60.1518 4.37465ZM61.4948 26.6483C66.6752 30.3926 68.402 36.921 66.0037 43.7375C65.1403 46.0417 64.4688 46.7138 62.8379 46.5217C61.0152 46.2337 60.8233 45.7537 61.1111 40.8573C61.3989 36.153 61.1111 35.0969 59.1924 33.2728C58.0412 32.1207 55.8347 30.9686 54.3957 30.6806C51.2299 30.0085 50.8462 28.4724 53.7242 28.4724C56.9859 28.4724 62.1664 32.2167 62.9338 35.0009C63.2216 36.345 63.0298 39.2252 62.4542 41.3374C61.8786 43.5455 61.5908 45.4657 61.8786 45.6577C62.5501 46.3297 65.1403 39.2252 65.1403 36.537C65.1403 33.5608 60.4396 28.7604 56.6022 27.8964C53.0527 27.0323 52.6689 26.6483 53.3405 25.0162C54.012 23.192 57.5615 23.8641 61.4948 26.6483ZM56.1225 32.8887C59.864 34.6169 60.9192 37.3051 59.9599 42.4895L59.2884 45.9457L55.2591 45.0816C50.1747 44.1216 43.4593 44.1216 39.7179 45.1776C37.3196 45.8497 37.7033 45.3697 41.8284 42.4895C44.8983 40.3773 47.6804 37.4971 48.8316 35.1929C51.0381 30.8726 51.5177 30.6806 56.1225 32.8887Z" fill="#E7A702"/>
<path d="M23.1214 43.9296C21.9702 44.4096 20.3394 46.2337 19.476 47.9619C18.1329 50.8421 18.037 51.6101 19.1882 54.0103C21.9702 59.6747 29.7409 59.5787 32.1392 53.9143C33.3863 50.9381 33.3863 50.17 32.0433 47.7699C30.4124 44.6016 26.2872 42.7775 23.1214 43.9296ZM30.5083 48.8259C31.7555 51.0341 31.7555 51.6101 30.3165 53.8183C28.3978 56.6985 23.9848 57.1786 21.5865 54.7784C19.7638 53.0503 19.6678 51.5141 21.1068 48.2499C23.0255 44.1216 28.0141 44.5056 30.5083 48.8259Z" fill="#E7A702"/>
<path d="M23.3132 49.0177C22.162 51.9939 23.3132 53.9141 26.2872 53.9141C28.8774 53.9141 29.1652 53.626 29.1652 51.0339C29.1652 48.6337 28.7814 48.1536 26.479 47.8656C24.8482 47.6736 23.697 48.0576 23.3132 49.0177ZM27.6302 49.4977C29.2611 50.5538 28.3018 53.434 26.3831 53.434C24.5604 53.434 23.697 52.0899 24.4644 50.1698C25.136 48.4417 25.7116 48.3457 27.6302 49.4977Z" fill="#E7A702"/>
<path d="M7.10048 57.1772C6.04521 57.6573 4.31841 59.0014 3.26314 60.2494C1.53633 62.1696 1.53633 62.3616 3.07127 61.7856C4.03061 61.4015 6.52488 61.1135 8.63542 61.1135C12.6646 61.1135 14.7752 58.8093 12.2809 57.1772C10.65 56.2171 9.59476 56.2171 7.10048 57.1772ZM10.9378 59.1934C10.65 59.6734 9.21102 60.1534 7.77202 60.1534C5.75741 60.1534 5.46961 59.9614 6.62082 59.1934C8.53949 57.9453 11.7053 57.9453 10.9378 59.1934Z" fill="#E7A702"/>
<path d="M198.488 51.0335C198.488 51.8016 199.16 52.4736 199.927 52.4736C200.695 52.4736 201.366 51.8016 201.366 51.0335C201.366 50.2655 200.695 49.5934 199.927 49.5934C199.16 49.5934 198.488 50.2655 198.488 51.0335Z" fill="#C89106"/>
<path d="M135.651 51.2264C133.925 51.5144 133.733 52.1865 134.021 56.7948C134.308 61.2111 134.692 62.0752 136.227 62.0752C137.57 62.0752 138.05 61.4032 138.146 59.387L138.242 56.7948L139.297 59.387C140.64 62.7473 143.71 63.1313 143.134 59.771C142.846 58.619 143.134 56.0268 143.614 54.2026C144.477 51.0344 144.381 50.8424 142.271 51.3224C140.352 51.7064 140.064 52.1865 140.544 54.2986C141.024 56.6028 140.928 56.6988 139.681 55.0667C138.529 53.7226 138.146 53.6266 137.762 54.5867C137.57 55.2587 137.474 54.6827 137.666 53.1465C137.858 51.7064 137.858 50.6504 137.762 50.6504C137.666 50.7464 136.707 51.0344 135.651 51.2264Z" fill="#C89106"/>
<path d="M166.062 52.283C166.446 53.6271 166.062 54.0111 164.527 54.0111C162.897 53.9151 162.417 54.5872 162.225 57.6594C161.841 62.0757 162.609 63.0358 166.158 62.3637C168.653 61.8837 168.749 61.5957 168.749 56.2193C168.749 51.611 168.461 50.5549 167.214 50.5549C166.158 50.5549 165.775 51.1309 166.062 52.283ZM166.158 58.3314C165.871 59.4835 165.295 59.9636 164.719 59.3875C163.76 58.4275 164.719 55.1632 165.871 55.8353C166.35 56.1233 166.446 57.1794 166.158 58.3314Z" fill="#C89106"/>
<path d="M92.4814 54.3936L89.6993 57.2738L92.4814 60.154C93.9204 61.6901 95.6472 62.6502 96.1268 62.3622C96.7024 61.9781 96.2228 61.0181 94.9756 59.962C92.7692 58.2338 93.1529 58.2338 111.092 58.2338C122.7 58.2338 129.416 57.8498 129.416 57.2738C129.416 56.6977 122.7 56.3137 111.092 56.3137C93.1529 56.3137 92.7692 56.3137 94.9756 54.5856C96.2228 53.5295 96.7024 52.5694 96.1268 52.1854C95.6472 51.8974 93.9204 52.8575 92.4814 54.3936Z" fill="#E7A702"/>
<path d="M189.854 56.7948C189.854 61.4992 190.046 62.0752 191.869 62.0752C193.403 62.0752 193.691 61.6912 193.212 60.1551C192.732 58.811 192.924 58.4269 193.979 58.811C196.281 59.675 198.008 56.6028 196.761 53.9146C195.898 52.0905 194.938 51.5144 192.732 51.5144C189.854 51.5144 189.854 51.5144 189.854 56.7948ZM194.651 54.2986C194.651 54.8747 194.267 55.5467 193.691 55.8347C193.212 56.1228 192.732 55.7387 192.732 54.9707C192.732 54.1066 193.212 53.4346 193.691 53.4346C194.267 53.4346 194.651 53.8186 194.651 54.2986Z" fill="#C89106"/>
<path d="M145.629 55.4504C144.861 56.9866 144.861 58.1386 145.629 59.7708C146.972 62.747 150.233 62.747 151.576 59.7708C153.783 54.9704 148.123 50.8421 145.629 55.4504ZM149.562 57.7546C149.562 59.0987 149.178 60.1548 148.602 60.1548C148.123 60.1548 147.643 59.0987 147.643 57.7546C147.643 56.4105 148.123 55.3544 148.602 55.3544C149.178 55.3544 149.562 56.4105 149.562 57.7546Z" fill="#C89106"/>
<path d="M153.783 55.7379C152.824 59.6741 154.167 62.2663 157.045 61.8823C159.827 61.5943 160.69 59.5781 159.731 55.7379C158.867 52.4736 154.646 52.4736 153.783 55.7379ZM157.812 58.8101C157.332 60.0582 156.853 60.1542 156.085 59.3861C155.51 58.8101 155.318 57.658 155.702 56.6979C156.181 55.4498 156.661 55.3538 157.428 56.1219C158.004 56.6979 158.196 57.85 157.812 58.8101Z" fill="#C89106"/>
<path d="M171.819 54.5856C168.845 57.5619 171.819 64.6664 174.984 62.0742C176.999 60.4421 176.807 59.194 174.601 59.194C173.545 59.194 172.874 58.6179 172.97 57.7539C173.258 56.0257 174.505 54.6816 174.505 56.1218C174.505 56.7938 172.487 57.1067 172.967 57.1067C173.543 57.1067 176.423 56.4098 176.423 55.3537C176.423 53.1455 173.641 52.7615 171.819 54.5856Z" fill="#C89106"/>
<path d="M178.15 57.7549C177.862 61.4031 178.15 62.0752 179.493 62.0752C180.836 62.0752 181.124 61.4031 181.028 59.291C180.836 57.6589 181.22 56.5068 181.7 56.6028C182.275 56.6988 182.563 57.9469 182.563 59.387C182.371 61.3071 182.851 62.0752 184.002 62.0752C185.249 62.0752 185.441 61.3071 185.249 57.7549C184.865 53.5306 184.77 53.4346 181.7 53.4346C178.63 53.4346 178.534 53.5306 178.15 57.7549Z" fill="#C89106"/>
<path d="M198.488 57.7549C198.488 60.9231 198.872 62.0752 199.927 62.0752C200.982 62.0752 201.366 60.9231 201.366 57.7549C201.366 54.5866 200.982 53.4346 199.927 53.4346C198.872 53.4346 198.488 54.5866 198.488 57.7549Z" fill="#C89106"/>
<path d="M203.285 57.7549C203.285 60.9231 203.668 62.0752 204.724 62.0752C205.683 62.0752 206.163 61.0191 206.163 58.7149C206.163 56.8908 206.642 55.3547 207.218 55.3547C207.889 55.3547 208.081 56.5068 207.698 58.7149C207.122 61.4031 207.314 62.0752 208.561 62.0752C209.616 62.0752 210 61.0191 210 57.7549C210 53.4346 210 53.4346 206.642 53.4346C203.285 53.4346 203.285 53.4346 203.285 57.7549Z" fill="#C89106"/>
</svg>
