<svg width="102" height="59" viewBox="0 0 102 59" fill="none" xmlns="http://www.w3.org/2000/svg">
<path d="M64.6753 11.4926C24.4284 30.1207 3.35375 41.1812 1.59752 44.8195C-2.06128 51.6595 4.08551 59.8093 11.6958 58.354C13.452 57.9174 34.3804 48.0212 58.0894 36.3786L101.263 14.9854L101.702 9.45514C102.873 -3.64276 96.2873 -3.20616 64.6753 11.4926ZM98.629 5.52577C99.7998 7.99981 99.9461 9.7462 98.7753 11.7837C97.4581 14.2577 53.4062 36.5241 18.8671 52.0961C8.62242 56.7531 8.18337 56.7531 5.40268 54.2791C3.7928 52.8237 2.47563 50.0586 2.47563 48.3122C2.47563 45.2561 5.54903 43.2186 24.7212 33.6135C53.8452 19.2058 93.5066 1.1598 95.4092 1.74193C96.2873 1.88746 97.6045 3.63385 98.629 5.52577Z" fill="#E7A702"/>
<path d="M84.579 10.0364C82.6765 11.6373 81.5057 13.2381 81.9447 13.6747C82.8228 14.6935 90.1404 9.74536 90.2868 7.99897C90.2868 6.25258 88.2378 6.98024 84.579 10.0364Z" fill="#E7A702"/>
<path d="M70.9684 14.2559C66.2852 16.7299 62.48 20.0771 64.3826 20.0771C65.5534 20.0771 78.5788 12.5095 78.5788 11.9273C78.5788 10.7631 76.3835 11.4907 70.9684 14.2559Z" fill="#E7A702"/>
<path d="M80.9204 18.6232C74.4809 21.8249 68.6268 25.0266 67.7487 26.0454C65.8461 28.0828 65.9924 27.9373 80.774 20.8062C93.9457 14.5483 93.9457 14.5483 93.0676 13.6751C92.7749 13.2385 87.2135 15.567 80.9204 18.6232Z" fill="#E7A702"/>
<path d="M47.2595 26.1921C40.9663 29.2482 36.1367 32.3044 36.5758 32.5955C37.0148 33.0321 42.1371 30.9946 47.9912 27.9384C59.6994 22.2627 60.2848 21.8261 59.4067 20.9529C59.114 20.6618 53.6989 22.9903 47.2595 26.1921Z" fill="#E7A702"/>
<path d="M54.2843 28.0826C52.8208 29.2469 52.2354 30.1201 52.9671 30.2656C55.1624 30.2656 58.8212 27.646 57.9431 26.7729C57.504 26.3363 55.8942 26.9184 54.2843 28.0826Z" fill="#E7A702"/>
<path d="M30.5752 40.0183C26.331 42.0558 23.1112 44.0932 23.5503 44.5298C24.7211 45.5485 39.0636 38.8541 39.0636 37.2532C39.0636 36.6711 38.9173 36.089 38.7709 36.2345C38.4782 36.2345 34.8194 37.9809 30.5752 40.0183Z" fill="#E7A702"/>
<path d="M13.8911 42.3455C9.20786 44.9651 5.40271 47.5847 5.40271 48.1668C5.40271 49.4766 20.7697 41.4723 23.6967 38.8528C26.3311 36.2332 22.2332 37.834 13.8911 42.3455Z" fill="#E7A702"/>
<path d="M11.2567 52.242C11.2567 52.9697 11.9884 53.2608 12.7202 52.8242C13.5983 52.3876 14.1837 51.6599 14.1837 51.2233C14.1837 50.9322 13.5983 50.6412 12.7202 50.6412C11.9884 50.6412 11.2567 51.3688 11.2567 52.242Z" fill="#E7A702"/>
</svg>
