<svg width="222" height="86" viewBox="0 0 222 86" fill="none" xmlns="http://www.w3.org/2000/svg">
<path d="M135.092 0.704583C133.683 1.00666 132.175 1.61082 131.571 2.21498C130.867 2.91984 131.571 3.12122 133.784 2.71845L137.003 2.11429L132.678 8.96143C130.264 12.6871 125.838 19.6349 122.821 24.2668C115.479 35.6452 115.78 35.2424 116.887 35.2424C117.39 35.2424 122.519 27.8918 128.252 18.9301C137.003 5.23578 138.612 3.12122 138.914 5.33647C139.115 6.84687 139.718 8.05519 140.221 8.05519C140.724 8.05519 140.925 6.84687 140.523 5.23578C139.618 0.805276 139.215 -0.000270068 138.411 0.100423C138.008 0.201117 136.5 0.503196 135.092 0.704583Z" fill="#E7A702"/>
<path d="M210.525 6.34374C206.703 9.46523 178.743 43.2982 164.46 62.1278C157.52 71.1902 156.917 73.8082 160.739 77.9367C163.153 80.5547 168.383 81.5616 170.797 79.7491C171.4 79.3464 176.63 73.2041 182.464 65.9542C219.175 20.6422 221.589 17.3193 221.589 13.3923C221.589 7.04859 214.85 2.81947 210.525 6.34374ZM217.666 9.26384C221.187 13.5937 221.388 13.2916 199.965 40.4788C196.143 45.4127 192.522 49.3398 191.818 49.3398C191.214 49.3398 190.41 50.1453 190.209 51.1522C189.907 52.1592 185.079 58.7042 179.346 65.7528C168.081 79.6484 166.17 80.8568 162.348 75.9228C161.141 74.4124 160.236 72.902 160.236 72.4992C160.236 71.2909 184.375 40.4788 196.042 26.6838C214.247 5.23611 214.247 5.23611 217.666 9.26384Z" fill="#E7A702"/>
<path d="M207.609 15.7091C205.698 18.2265 204.893 20.1396 205.899 20.1396C206.1 20.1396 207.206 18.5286 208.413 16.6154C210.827 12.3863 210.525 12.0842 207.609 15.7091Z" fill="#E7A702"/>
<path d="M206 23.3607L204.39 26.6836L206.502 24.267C207.609 22.9579 208.514 21.5482 208.514 21.0448C208.514 19.2323 207.508 20.2392 206 23.3607Z" fill="#E7A702"/>
<path d="M204.792 28.9998C201.373 33.3296 198.255 37.7601 197.853 38.8677C197.249 40.3781 202.278 34.5379 211.833 22.354C212.336 21.7498 212.436 21.1457 211.934 21.1457C211.431 21.2464 208.212 24.7706 204.792 28.9998Z" fill="#E7A702"/>
<path d="M197.149 34.4379C194.031 38.667 192.12 42.292 193.125 42.1913C194.131 42.1913 200.669 32.122 200.065 31.5178C199.864 31.3164 198.557 32.6254 197.149 34.4379Z" fill="#E7A702"/>
<path d="M185.683 42.4932C180.754 48.8368 177.938 53.1666 178.642 53.5694C179.346 53.9722 177.033 57.1944 172.909 61.8263C169.188 66.0554 166.573 69.479 167.076 69.479C167.679 69.479 171.4 65.6526 175.424 60.92C179.447 56.1874 182.866 52.5625 183.168 52.7639C183.57 53.2673 183.068 53.9722 172.909 67.7672C169.691 72.097 167.277 75.8226 167.578 76.1247C168.081 76.7289 168.182 76.6282 178.743 62.1283C183.47 55.5833 187.392 49.7431 187.392 49.1389C187.392 48.5348 186.487 49.1389 185.381 50.4479C184.174 51.9583 183.47 52.3611 183.369 51.4549C183.369 50.3472 182.866 50.5486 181.157 51.9583C179.849 53.1666 179.346 53.2673 179.849 52.3611C180.654 50.9514 190.913 37.8613 194.232 33.9342C195.036 33.028 195.338 32.2224 194.835 32.2224C194.332 32.2224 190.209 36.8543 185.683 42.4932Z" fill="#E7A702"/>
<path d="M86.3109 33.2292C85.6069 34.4375 86.5121 36.25 87.9202 36.25C89.1271 36.25 89.1271 33.5313 87.9202 32.7257C87.4173 32.4237 86.7132 32.625 86.3109 33.2292Z" fill="#C89206"/>
<path d="M98.3804 39.9757C98.3804 44.4062 98.7827 46.3193 99.6879 46.3193C100.291 46.3193 100.895 45.4131 100.895 44.2048C100.895 42.9965 101.297 42.493 102.001 42.7951C102.605 43.1978 102.806 44.1041 102.504 44.9096C102.202 45.8159 102.705 46.3193 103.912 46.3193C105.622 46.3193 105.723 45.9166 104.918 43.802C104.315 42.1909 104.315 40.3784 104.918 38.7673C106.125 35.6458 105.622 35.6458 102.906 38.4653L100.694 40.7812L101.398 37.2569C101.901 34.2361 101.8 33.632 100.191 33.632C98.6821 33.632 98.3804 34.5382 98.3804 39.9757Z" fill="#C89206"/>
<path d="M0.115067 40.1773C-0.186669 45.514 0.014488 46.1182 1.8249 46.1182C3.63532 46.1182 3.83647 45.4133 3.83647 40.1773C3.83647 35.344 3.53474 34.2364 2.12664 34.2364C0.819117 34.2364 0.416802 35.4447 0.115067 40.1773Z" fill="#C89206"/>
<path d="M79.7734 35.8472C79.7734 36.6528 79.371 37.0556 78.7676 36.7535C78.2647 36.4514 77.7618 36.6528 77.7618 37.1562C77.7618 37.7604 78.3653 38.2639 79.1699 38.2639C80.2762 38.2639 80.4774 39.2708 80.0751 42.2916C79.5722 45.8159 79.7734 46.3193 81.5838 46.3193C83.3942 46.3193 83.4948 45.8159 83.0924 42.0902C82.6901 39.1701 82.7907 38.1632 83.5953 38.6666C84.2994 39.0694 84.8023 38.7673 84.8023 37.7604C84.8023 36.8542 84.4 36.4514 83.7965 36.7535C83.2936 37.0556 82.7907 36.6528 82.7907 35.8472C82.7907 34.941 82.0867 34.2361 81.282 34.2361C80.4774 34.2361 79.7734 34.941 79.7734 35.8472Z" fill="#C89206"/>
<path d="M152.793 36.0488C152.492 36.6529 153.196 37.8612 154.403 38.6668C156.515 40.1772 155.207 40.2779 137.304 40.2779C125.134 40.2779 117.993 40.6807 117.993 41.2848C117.993 41.889 125.034 42.2917 137.204 42.2917C156.012 42.2917 156.414 42.2917 154.101 44.1042C152.793 45.2118 152.29 46.2188 152.894 46.6216C153.397 46.9236 155.207 45.9167 156.817 44.2049L159.633 41.2848L156.515 38.1633C154.704 36.3508 153.196 35.4446 152.793 36.0488Z" fill="#E7A702"/>
<path d="M29.484 41.2847C29.484 45.2117 29.7857 46.3193 31.0933 46.3193C32.3002 46.3193 32.6019 45.6145 32.1996 43.6006C31.5962 40.5798 32.3002 38.2639 33.7083 38.2639C34.2112 38.2639 34.3118 39.2708 34.01 40.3784C33.5072 41.9895 33.7083 42.3923 34.6135 42.0902C35.4181 41.7881 36.0216 40.5798 36.0216 39.1701C36.0216 37.2569 35.4181 36.7535 32.8031 36.5521L29.484 36.25V41.2847Z" fill="#C89206"/>
<path d="M39.1396 38.1638C36.6251 40.9832 37.3291 45.7158 40.4471 46.1186C41.7546 46.32 43.2633 45.9172 43.6656 45.1117C45.0737 42.9971 44.772 42.393 42.5592 42.9971C41.4529 43.2992 40.5477 43.0978 40.5477 42.4936C40.5477 41.9902 41.4529 41.2853 42.6598 40.9832C43.9673 40.5805 44.6714 39.7749 44.3696 38.5666C43.8668 36.0493 41.2517 35.8479 39.1396 38.1638ZM42.5592 39.2715C42.5592 39.7749 42.0563 40.2784 41.4529 40.2784C40.95 40.2784 40.7488 39.7749 41.0506 39.2715C41.3523 38.6673 41.8552 38.2645 42.1569 38.2645C42.3581 38.2645 42.5592 38.6673 42.5592 39.2715Z" fill="#C89206"/>
<path d="M14.1639 38.0476C11.6494 40.867 12.3535 45.5996 15.4714 46.0024C16.779 46.2038 18.2876 45.801 18.6899 44.9955C20.098 42.8809 19.7963 42.2767 17.5836 42.8809C16.4772 43.183 15.572 42.9816 15.572 42.3774C15.572 41.874 16.4772 41.1691 17.6842 40.867C18.9917 40.4643 19.6957 39.6587 19.394 38.4504C18.8911 35.9331 16.2761 35.7317 14.1639 38.0476ZM17.5836 39.1552C17.5836 39.6587 17.0807 40.1622 16.4772 40.1622C15.9743 40.1622 15.7732 39.6587 16.0749 39.1552C16.3766 38.5511 16.8795 38.1483 17.1813 38.1483C17.3824 38.1483 17.5836 38.5511 17.5836 39.1552Z" fill="#C89206"/>
<path d="M46.3812 38.868C45.7777 40.0764 45.5766 42.2916 45.9789 43.7013C46.683 46.42 49.0968 47.2256 49.9015 45.0103C50.3038 44.0034 50.5049 44.0034 50.5049 45.0103C50.6055 45.7152 51.209 46.3193 51.913 46.3193C52.9188 46.3193 53.3211 45.0103 53.2206 41.8888C53.12 37.7604 52.9188 37.3576 50.3038 36.9549C47.9905 36.6528 47.1858 37.0556 46.3812 38.868ZM50.6055 41.2847C50.6055 42.3923 50.2032 43.2985 49.5997 43.2985C49.0968 43.2985 48.5939 42.3923 48.5939 41.2847C48.5939 40.177 49.0968 39.2708 49.5997 39.2708C50.2032 39.2708 50.6055 40.177 50.6055 41.2847Z" fill="#C89206"/>
<path d="M55.1315 41.4861C55.1315 45.3124 55.4333 46.3193 56.8414 46.3193C58.2495 46.3193 58.4506 45.6145 57.9477 42.7951C57.5454 40.4791 57.7466 39.2708 58.5512 39.2708C59.1547 39.2708 59.6576 40.5798 59.6576 42.2916C59.6576 43.9027 60.1605 45.3124 60.6634 45.3124C61.2668 45.3124 61.6691 43.9027 61.6691 42.2916C61.6691 40.5798 62.172 39.2708 62.7755 39.2708C63.4796 39.2708 63.7813 40.6805 63.4796 42.7951C63.1778 45.7152 63.379 46.3193 64.8877 46.3193C66.1952 46.3193 66.6981 45.5138 66.6981 43.4999C66.6981 37.3576 65.994 36.5521 60.3616 36.6528L55.1315 36.7535V41.4861Z" fill="#C89206"/>
<path d="M72.0288 36.9551C70.0173 37.7606 70.5202 41.0835 72.7329 41.7884C74.845 42.4932 75.5491 44.3057 73.7387 44.3057C73.2358 44.3057 72.7329 43.8022 72.7329 43.0974C72.7329 42.1911 72.4312 42.1911 71.6265 42.9967C71.0231 43.6008 70.8219 44.6078 71.1236 45.2119C72.1294 46.823 75.3479 46.5209 76.8566 44.7085C77.963 43.3994 77.6612 42.7953 75.1468 40.7814C73.5375 39.3717 72.7329 38.3648 73.4369 38.2641C74.0404 38.2641 74.7445 38.8682 75.0462 39.4724C75.2474 40.1773 75.8508 40.4793 76.2531 40.0766C76.6555 39.6738 76.756 38.6669 76.4543 37.7606C75.8508 36.2502 74.3421 35.9481 72.0288 36.9551Z" fill="#C89206"/>
<path d="M92.1445 37.459C90.4346 39.6742 90.0323 41.6881 90.9375 44.004C91.9433 46.6221 95.363 47.1255 96.2682 44.7089C97.1734 42.393 97.0728 41.9902 95.4636 42.5943C93.9549 43.1985 92.4462 40.6812 93.452 39.1708C94.4578 37.5597 96.5478 37.3583 95.8438 39.1708C95.4636 40.4881 96.6337 40.1162 97.1603 39.0629C97.6869 36.9565 96.4694 36.2507 94.5584 36.2507C93.7537 36.2507 92.6474 36.8548 92.1445 37.459Z" fill="#C89206"/>
<path d="M22.215 37.6367C20.5051 39.852 20.1028 41.8658 21.008 44.1818C22.0138 46.7998 25.4335 47.3033 26.3387 44.8866C27.2439 42.5707 27.1433 42.1679 25.5341 42.7721C24.0254 43.3762 22.5167 40.8589 23.5225 39.3485C24.5283 37.7374 26.6183 37.536 25.9143 39.3485C25.5341 40.6659 26.7042 40.2939 27.2308 39.2407C27.7574 37.1342 26.5399 36.4284 24.6289 36.4284C23.8242 36.4284 22.7179 37.0326 22.215 37.6367Z" fill="#C89206"/>
<path d="M6.94313 37.6367C5.23329 39.852 4.83098 41.8658 5.73619 44.1818C6.74197 46.7998 10.1616 47.3033 11.0669 44.8866C11.9721 42.5707 11.8715 42.1679 10.2622 42.7721C8.75354 43.3762 7.24486 40.8589 8.25065 39.3485C9.25644 37.7374 11.3465 37.536 10.6424 39.3485C10.2622 40.6659 11.4324 40.2939 11.959 39.2407C12.4856 37.1342 11.268 36.4284 9.35701 36.4284C8.55239 36.4284 7.44602 37.0326 6.94313 37.6367Z" fill="#C89206"/>
<path d="M108.237 36.9549C106.225 37.6597 106.728 40.2777 109.243 42.3923C110.45 43.3992 110.953 44.2048 110.249 44.3055C109.645 44.3055 108.941 43.7013 108.639 42.9965C108.438 42.3923 107.835 42.0902 107.432 42.493C106.125 43.7013 107.734 46.3193 109.846 46.3193C110.953 46.3193 112.361 45.4131 112.964 44.3055C113.869 42.5937 113.668 42.0902 111.456 41.0833C108.941 39.9757 108.036 38.2639 109.947 38.2639C110.55 38.2639 110.953 38.7673 110.953 39.4722C110.953 40.3784 111.254 40.3784 112.16 39.4722C113.165 38.4653 113.165 37.9618 111.958 37.2569C110.349 36.1493 110.047 36.1493 108.237 36.9549Z" fill="#C89206"/>
<path d="M85.808 41.7881C85.808 45.111 86.2103 46.3193 87.3167 46.3193C88.423 46.3193 88.8253 45.111 88.8253 41.7881C88.8253 38.4653 88.423 37.2569 87.3167 37.2569C86.2103 37.2569 85.808 38.4653 85.808 41.7881Z" fill="#C89206"/>
<path d="M118.999 55.3818C120.709 59.8123 123.324 67.0622 125.034 71.5934C126.643 76.0239 128.554 80.6558 129.157 81.7634C130.364 83.9787 130.465 83.9787 125.335 81.8641C124.631 81.5621 124.028 81.7634 124.028 82.2669C124.028 83.1731 130.968 86.0933 131.471 85.3884C133.08 83.5759 134.89 78.5413 134.086 78.0378C133.583 77.7357 132.879 78.642 132.476 80.0517C131.571 83.5759 130.968 82.6697 127.045 71.9962C119.804 52.1596 117.792 47.3263 116.887 47.3263C116.384 47.3263 117.39 50.9513 118.999 55.3818Z" fill="#E7A702"/>
</svg>
