<svg width="192" height="111" viewBox="0 0 192 111" fill="none" xmlns="http://www.w3.org/2000/svg">
<path d="M5.17543 1.95412C1.41133 4.9631 -0.596189 13.99 0.156631 24.5215C0.658511 30.0379 26.0034 43.5784 107.057 81.9429C177.571 115.292 181.084 116.045 188.362 101C195.388 86.2056 191.373 82.4444 142.189 57.871C90.495 31.5424 27.0072 2.70637 16.4677 0.449632C12.2017 -0.553362 7.68483 0.198884 5.17543 1.95412ZM52.854 20.5095C73.1802 29.5365 111.323 47.8411 137.421 61.1308C179.077 82.4444 185.099 86.2056 185.852 91.9728C186.354 95.734 184.598 99.9968 181.335 103.006C174.058 109.525 170.294 108.021 80.9593 63.3875C18.4752 32.2947 4.17167 24.2707 3.66979 19.7573C2.66603 12.7363 7.18295 3.96011 12.2017 3.96011C14.2093 3.96011 32.5279 11.4826 52.854 20.5095Z" fill="#E7A702"/>
<path d="M23.2431 16.2468C23.2431 19.2558 35.2882 27.7813 37.0448 26.026C37.7976 25.5245 34.7863 22.5155 30.7713 19.2558C26.5053 16.2468 23.2431 14.9931 23.2431 16.2468Z" fill="#E7A702"/>
<path d="M43.3183 23.5185C43.3183 24.5215 48.588 28.2827 55.3634 31.5424C71.6745 40.0679 71.9255 40.0679 69.9179 36.8081C67.4085 33.0469 43.3183 20.7602 43.3183 23.5185Z" fill="#E7A702"/>
<path d="M15.9659 27.5303C18.4753 30.2885 64.1463 51.8529 65.1501 50.8499C66.4048 49.5961 29.2657 30.2885 20.7337 27.781C17.2206 26.778 15.213 26.5273 15.9659 27.5303Z" fill="#E7A702"/>
<path d="M78.4499 40.3179C78.4499 42.3239 119.102 62.133 120.357 60.6285C121.11 60.127 112.578 54.8613 101.285 49.3448C80.9593 39.0641 78.4499 38.0611 78.4499 40.3179Z" fill="#E7A702"/>
<path d="M85.9781 55.3633C87.7347 57.62 89.7422 58.623 90.2441 58.1215C92.0006 56.3662 88.4875 51.602 85.4762 51.602C83.9706 51.602 83.9706 53.1065 85.9781 55.3633Z" fill="#E7A702"/>
<path d="M119.102 71.6622C120.106 74.922 146.204 87.2086 146.204 84.7012C146.204 83.6982 139.93 79.6862 132.151 75.925C124.372 72.1637 118.6 70.1577 119.102 71.6622Z" fill="#E7A702"/>
<path d="M145.2 73.9191C149.466 77.6803 178.826 92.4745 180.081 91.2207C181.586 89.967 149.215 71.6624 145.451 71.6624C143.694 71.6624 143.694 72.4146 145.2 73.9191Z" fill="#E7A702"/>
<path d="M165.024 99.2445C165.777 100.498 167.534 101.752 169.039 101.752C170.294 101.752 171.298 100.498 171.298 99.2445C171.298 97.74 169.541 96.737 167.283 96.737C165.275 96.737 164.271 97.74 165.024 99.2445Z" fill="#E7A702"/>
</svg>
